<svg id="Layer_1" data-name="Layer 1" xmlns="http://www.w3.org/2000/svg" viewBox="0 0 208.49 105.12"><defs><style>.cls-1{fill:#fff;}.cls-2{fill:none;}</style></defs><title>DEDE UNDER CNSTRC</title><path class="cls-1" d="M44.84,44.09l0.14,0c2.16,0,4.32,0,6.47.06A10.78,10.78,0,0,1,57.36,46a7.47,7.47,0,0,1,3.24,5.71A8.08,8.08,0,0,1,59,57.5a9.25,9.25,0,0,1-4.84,3.25,14.47,14.47,0,0,1-4.76.53,0.56,0.56,0,0,1-.2-0.1,0.81,0.81,0,0,1,.22-0.09,18.4,18.4,0,0,0,2.41-.22,5.49,5.49,0,0,0,3.9-3.35,9.3,9.3,0,0,0,.75-3.67A16.05,16.05,0,0,0,56,48.94a6.5,6.5,0,0,0-2.41-3.64,5.31,5.31,0,0,0-2.74-1c-0.75-.05-1.5,0-2.29,0,0,0.12,0,.25,0,0.37q0,7.16,0,14.31a0.55,0.55,0,0,1-.33.55c-1.13.65-2.25,1.32-3.38,2a1.29,1.29,0,0,1-.06-0.27q0-8.11,0-16.22v-1Z"/><path class="cls-1" d="M79.83,61.56l-0.63-.23a3.55,3.55,0,0,1-1.83-1.65v1.58H74c0-.11,0-0.21,0-0.32q0-7.57,0-15.14a0.44,0.44,0,0,1,.26-0.44c0.94-.53,1.86-1.08,2.79-1.63a1.79,1.79,0,0,0,.22-0.18h0.06c0,0.14,0,.28,0,0.41q0,3.7,0,7.39c0,0.09,0,.17,0,0.33a1.23,1.23,0,0,0,.12-0.14,3.76,3.76,0,0,1,5.38-1.44,5.38,5.38,0,0,1,2.61,4,9,9,0,0,1,0,2.87,5.38,5.38,0,0,1-4.06,4.55,0.37,0.37,0,0,0-.1.05H79.83Zm-2.48-5.9c0,1,0,2,0,3a1.94,1.94,0,0,0,1.24,1.8A1.7,1.7,0,0,0,80.55,60a3.4,3.4,0,0,0,.83-1.49,10.63,10.63,0,0,0,.13-5.17,3.77,3.77,0,0,0-1.08-2.11,1.64,1.64,0,0,0-2.07-.26,2.08,2.08,0,0,0-1,1.79C77.34,53.7,77.35,54.68,77.35,55.66Z"/><path class="cls-1" d="M115.29,43.56c0,0.08,0,.16,0,0.24q0,3.88,0,7.75a0.93,0.93,0,0,0,0,.24,3.22,3.22,0,0,1,1.19-1.61,3.42,3.42,0,0,1,1.77-.61,4.69,4.69,0,0,1,1.88.18,3.06,3.06,0,0,1,2,2.37,8.06,8.06,0,0,1,.19,1.67c0,2.41,0,4.81,0,7.22,0,0.08,0,.16,0,0.26H119c0-.11,0-0.22,0-0.34,0-2.55,0-5.11,0-7.66a5.2,5.2,0,0,0-.26-1.45,1.51,1.51,0,0,0-1.54-1.19,1.59,1.59,0,0,0-1.6,1.25,7.56,7.56,0,0,0-.26,1.78c0,2.42,0,4.85,0,7.28,0,0.11,0,.21,0,0.33h-3.36V61q0-7.57,0-15.15a0.41,0.41,0,0,1,.24-0.42c1-.55,1.9-1.11,2.84-1.66,0.08,0,.16-0.11.24-0.17h0.06Z"/><path class="cls-1" d="M126.22,61.56c-0.26-.08-0.53-0.15-0.78-0.26a3,3,0,0,1-.71-5.17A14.44,14.44,0,0,1,127,54.85a10.15,10.15,0,0,0,2.29-1.4,2.56,2.56,0,0,0,.53-2.94,1.56,1.56,0,0,0-1.72-.7,2,2,0,0,0-1.35.83c-0.61.83-1.23,1.65-1.84,2.48a0.43,0.43,0,0,1-.55.17c0.07-.77.18-1.53,0.18-2.3a0.8,0.8,0,0,1,.72-0.87,12.19,12.19,0,0,1,5.48-.42,2.88,2.88,0,0,1,2.58,2.78c0,0.29,0,.59,0,0.89q0,3.77,0,7.54v0.38l-0.32,0c-0.83,0-1.66,0-2.49,0a0.27,0.27,0,0,1-.33-0.31c0-.54-0.11-1.08-0.18-1.67a0.66,0.66,0,0,0-.09.13,2.83,2.83,0,0,1-2.2,2.07,0.23,0.23,0,0,0-.07,0h-1.49ZM130,53.07c-0.63.58-1.25,1.11-1.83,1.69a4,4,0,0,0-1.22,3.5,2.66,2.66,0,0,0,.78,1.72,1.14,1.14,0,0,0,1.78-.17,2.23,2.23,0,0,0,.43-1.27c0-.93,0-1.86.06-2.79S130,54,130,53.07Z"/><path class="cls-1" d="M66.34,61.56a14.64,14.64,0,0,1-1.52-.46,5.34,5.34,0,0,1-3.35-4.35,6.12,6.12,0,0,1,1.28-5,5.93,5.93,0,0,1,7.71-1.34,4.69,4.69,0,0,1,2,2.88h-7.9c0,0.49,0,.94,0,1.39a5.8,5.8,0,0,0,1.07,3,4.07,4.07,0,0,0,5.19,1A4,4,0,0,0,72.75,56a1.66,1.66,0,0,1,.13-0.27l0.12,0c-0.06.37-.1,0.75-0.18,1.12a6.07,6.07,0,0,1-1.76,3.39,4.88,4.88,0,0,1-2.48,1.18l-0.28.08h-2ZM64.57,53c0.79,0,1.54,0,2.28,0A7.63,7.63,0,0,0,68,52.94,1,1,0,0,0,69,51.82a2,2,0,0,0-1.22-1.93,2,2,0,0,0-2.25.61A4.69,4.69,0,0,0,64.57,53Z"/><path class="cls-1" d="M91.53,61.56c-0.39-.1-0.79-0.18-1.16-0.32a5.48,5.48,0,0,1-3.78-5A6,6,0,0,1,91,49.75a5.52,5.52,0,0,1,5.33,1.17,4.84,4.84,0,0,1,1.34,2.37H97.29c-2.4,0-4.81,0-7.21,0-0.3,0-.36.1-0.36,0.37a6.91,6.91,0,0,0,.81,3.54,4.06,4.06,0,0,0,6.26.94A4.56,4.56,0,0,0,97.93,56a1.68,1.68,0,0,1,.13-0.27l0.11,0c0,0.16,0,.32-0.05.48a7.84,7.84,0,0,1-.89,2.81,4.75,4.75,0,0,1-3.42,2.41l-0.31.08h-2Zm-1.77-8.5,3.38-.1a0.71,0.71,0,0,0,.39-0.12,1.34,1.34,0,0,0,.52-0.53,2,2,0,0,0-3.51-1.64A4.74,4.74,0,0,0,89.76,53.05Z"/><path class="cls-1" d="M157.47,61.56c-0.47-.08-0.93-0.16-1.4-0.26-0.84-.18-0.85-0.18-1-1s-0.18-1.47-.27-2.2a0.46,0.46,0,0,1,.56.2c0.68,0.87,1.39,1.73,2.07,2.6a1.14,1.14,0,0,0,.78.44,3.8,3.8,0,0,0,1.93-.18,1.88,1.88,0,0,0,1.32-1.76,1.8,1.8,0,0,0-1.23-1.79c-0.74-.3-1.52-0.49-2.28-0.73a5.81,5.81,0,0,1-2.24-1.17,3,3,0,0,1-1-2.09,3.41,3.41,0,0,1,2.58-3.74,8.44,8.44,0,0,1,4.48-.05,6.1,6.1,0,0,1,.71.2,0.31,0.31,0,0,1,.19.19c0.13,0.94.24,1.88,0.36,2.82a0.43,0.43,0,0,1-.57-0.19c-0.64-.84-1.31-1.66-2-2.5a1.23,1.23,0,0,0-.9-0.5,3.87,3.87,0,0,0-1.93.2,1.63,1.63,0,0,0-.52,2.69,3.85,3.85,0,0,0,1.73.87c0.76,0.22,1.52.45,2.26,0.72A4.27,4.27,0,0,1,163,55.55a3.89,3.89,0,0,1,.67,1.43v1.49a0.21,0.21,0,0,0-.05.07,3.77,3.77,0,0,1-2.76,2.74c-0.36.12-.74,0.19-1.11,0.28h-2.26Z"/><path class="cls-1" d="M146.32,61.27H143c0-.14,0-0.25,0-0.37q0-3.56,0-7.13a5.53,5.53,0,0,0-.29-2,1.52,1.52,0,0,0-1.43-1.1,1.57,1.57,0,0,0-1.58.94,4.45,4.45,0,0,0-.37,2q0,3.67,0,7.34v0.38h-3.36V60.92c0-2.38,0-4.75,0-7.13a0.54,0.54,0,0,0-.27-0.53c-0.39-.24-0.75-0.51-1.13-0.77l-0.28-.21,5-2.9v2.34h0.07l0.1-.22a3.13,3.13,0,0,1,2.72-1.92,4.52,4.52,0,0,1,1.91.14,3.08,3.08,0,0,1,2,2.18l0.09,0.29a1.06,1.06,0,0,0,.08-0.16,3.12,3.12,0,0,1,2.91-2.46,4.52,4.52,0,0,1,2.11.22,3.18,3.18,0,0,1,1.89,2.52,6.91,6.91,0,0,1,.14,1.33c0,2.46,0,4.91,0,7.37,0,0.08,0,.16,0,0.26H150V60.91c0-2.48,0-5,0-7.43a6.68,6.68,0,0,0-.29-1.77,1.41,1.41,0,0,0-1.43-1.08,1.57,1.57,0,0,0-1.56,1,5.2,5.2,0,0,0-.36,2.21c0,2.37,0,4.73,0,7.1v0.36Z"/><path class="cls-1" d="M103.24,49.37v2.34h0a1.24,1.24,0,0,0,.08-0.14,3.09,3.09,0,0,1,2.72-2,5.39,5.39,0,0,1,1.62.05A2.92,2.92,0,0,1,110.06,52a7.79,7.79,0,0,1,.22,1.79c0,2.39,0,4.77,0,7.16a0.28,0.28,0,0,1-.35.35c-0.9,0-1.8,0-2.7,0h-0.32V60.91q0-3.68,0-7.37a4.92,4.92,0,0,0-.3-1.83,1.5,1.5,0,0,0-1.42-1.08,1.57,1.57,0,0,0-1.58.94,4.82,4.82,0,0,0-.38,2.14q0,3.59,0,7.19v0.37H99.91V60.92c0-2.4,0-4.79,0-7.19a0.47,0.47,0,0,0-.24-0.46c-0.47-.3-0.93-0.63-1.45-1Z"/><rect class="cls-2" width="208.49" height="105.12"/></svg>