<svg id="Layer_1" data-name="Layer 1" xmlns="http://www.w3.org/2000/svg" viewBox="0 0 856.39 446"><defs><style>.cls-1{fill:#231f20;}.cls-2{fill:none;}</style></defs><title>dede logo</title><path class="cls-1" d="M388.92,233.15a54.42,54.42,0,1,1-18.05-47.39L294.23,230l13.35,23.13,101.3-58.23a80.49,80.49,0,1,0,5.65,43.21Z"/><path class="cls-1" d="M654.49,233.15a54.42,54.42,0,1,0,18.05-47.39L749.17,230l-13.35,23.13-101.3-58.23a80.49,80.49,0,1,1-5.65,43.21Z"/><path class="cls-1" d="M201.68,78.27V228.36a54.41,54.41,0,1,1-13.73-37.12V158a80.46,80.46,0,1,0,39.78,70.4h0V78.27H201.68Z"/><path class="cls-1" d="M576.09,78V228.13A54.41,54.41,0,1,1,562.36,191V157.73a80.46,80.46,0,1,0,39.78,70.4h0V78H576.09Z"/><rect class="cls-2" x="-0.3" y="-30.06" width="856.39" height="446"/><path class="cls-1" d="M87.58,344.1h2.65v31.75H87.58v-4H87.49a7.16,7.16,0,0,1-1.48,2,9,9,0,0,1-2,1.43,10.72,10.72,0,0,1-2.23.88,8.65,8.65,0,0,1-2.25.31,10.89,10.89,0,0,1-4.72-.93,8.78,8.78,0,0,1-3.2-2.54,10.33,10.33,0,0,1-1.83-3.81,18.67,18.67,0,0,1-.57-4.72,16.9,16.9,0,0,1,.62-4.59A11.36,11.36,0,0,1,71.73,356a9.27,9.27,0,0,1,3.17-2.65,9.71,9.71,0,0,1,4.52-1,10.53,10.53,0,0,1,4.65,1.08,8.2,8.2,0,0,1,3.51,3.2V344.1Zm0,20.24a12.59,12.59,0,0,0-.53-3.68,9.53,9.53,0,0,0-1.52-3,7.49,7.49,0,0,0-2.42-2.07,6.73,6.73,0,0,0-3.24-.77,7.36,7.36,0,0,0-3.57.82,7,7,0,0,0-2.47,2.23,9.62,9.62,0,0,0-1.41,3.28,14.9,14.9,0,0,0-.35,4,11.24,11.24,0,0,0,.59,3.81,8.13,8.13,0,0,0,1.65,2.8,7,7,0,0,0,2.47,1.74,7.86,7.86,0,0,0,3.09.59,7.12,7.12,0,0,0,3.31-.75,7,7,0,0,0,2.42-2.05,9.41,9.41,0,0,0,1.48-3.09A14.07,14.07,0,0,0,87.58,364.34Z"/><path class="cls-1" d="M123.6,348V344.1h2.91V348H123.6Zm0.13,27.82V353h2.65v22.84h-2.65Z"/><path class="cls-1" d="M177.21,353h2.65v20.63a20.28,20.28,0,0,1-.46,4.39,9.45,9.45,0,0,1-1.65,3.68,8.29,8.29,0,0,1-3.26,2.54,15.24,15.24,0,0,1-9.66.31,9.38,9.38,0,0,1-3-1.61,7,7,0,0,1-1.74-2.14,5.36,5.36,0,0,1-.64-2.18h2.82a5.22,5.22,0,0,0,1,2.09,4.84,4.84,0,0,0,1.57,1.28,6.7,6.7,0,0,0,2,.64,14.55,14.55,0,0,0,2.29.18,8.73,8.73,0,0,0,4.32-.93,6.34,6.34,0,0,0,2.47-2.42,9.34,9.34,0,0,0,1.08-3.4,26.09,26.09,0,0,0,.2-3.88,8.19,8.19,0,0,1-3.51,3.2,10.53,10.53,0,0,1-4.65,1.08,9.72,9.72,0,0,1-4.52-1,9.28,9.28,0,0,1-3.17-2.65,11.36,11.36,0,0,1-1.87-3.86,16.9,16.9,0,0,1-.62-4.59,18.67,18.67,0,0,1,.57-4.72,10.35,10.35,0,0,1,1.83-3.81,8.78,8.78,0,0,1,3.2-2.54,10.88,10.88,0,0,1,4.72-.93,8.69,8.69,0,0,1,2.25.31,10.73,10.73,0,0,1,2.23.88,8.63,8.63,0,0,1,2,1.46,7.78,7.78,0,0,1,1.48,2h0.09v-4Zm0,11.51a14.08,14.08,0,0,0-.51-3.86,9.42,9.42,0,0,0-1.48-3.09,7,7,0,0,0-2.42-2.05,7.12,7.12,0,0,0-3.31-.75,7.86,7.86,0,0,0-3.09.6,7.07,7.07,0,0,0-2.47,1.74,8.14,8.14,0,0,0-1.65,2.8,11.24,11.24,0,0,0-.59,3.81,14.89,14.89,0,0,0,.35,4,9.62,9.62,0,0,0,1.41,3.29,7,7,0,0,0,2.47,2.23,7.36,7.36,0,0,0,3.57.82,6.72,6.72,0,0,0,3.24-.77,7.47,7.47,0,0,0,2.42-2.07,9.52,9.52,0,0,0,1.52-3A12.58,12.58,0,0,0,177.21,364.52Z"/><path class="cls-1" d="M213.23,348V344.1h2.91V348h-2.91Zm0.13,27.82V353H216v22.84h-2.65Z"/><path class="cls-1" d="M257.24,375.94q-0.49.09-1.28,0.31a6.57,6.57,0,0,1-1.76.22,4.2,4.2,0,0,1-3-1q-1-1-1-3.55V355.22h-3.22V353h3.22v-6.35h2.65V353h4.28v2.2h-4.28v15.65q0,0.84,0,1.45a2.43,2.43,0,0,0,.26,1,1.26,1.26,0,0,0,.68.57,3.77,3.77,0,0,0,1.3.18,6.79,6.79,0,0,0,1.08-.09q0.55-.09,1.08-0.22v2.16Z"/><path class="cls-1" d="M298.42,362.53q0.75-.09,1.79-0.26a6.76,6.76,0,0,0,1.7-.48,1.41,1.41,0,0,0,.82-1,6.52,6.52,0,0,0,.15-1.34,4.51,4.51,0,0,0-1.3-3.33q-1.3-1.3-4.39-1.3a12.18,12.18,0,0,0-2.51.24,5.47,5.47,0,0,0-2,.84,4.61,4.61,0,0,0-1.41,1.59,6.71,6.71,0,0,0-.73,2.49h-2.69a8.17,8.17,0,0,1,.93-3.46,7,7,0,0,1,2.05-2.34,8.51,8.51,0,0,1,2.91-1.32,14.22,14.22,0,0,1,3.51-.42,13.53,13.53,0,0,1,3.24.38,7.5,7.5,0,0,1,2.65,1.19,5.54,5.54,0,0,1,1.76,2.18,7.89,7.89,0,0,1,.64,3.35v12.43a2.47,2.47,0,0,0,.55,2q0.55,0.42,2.23-.2v2.07l-0.9.26a4.12,4.12,0,0,1-1.17.18,5.28,5.28,0,0,1-1.19-.13,2,2,0,0,1-1.06-.42,2.58,2.58,0,0,1-.64-0.79,3.29,3.29,0,0,1-.33-1,7.29,7.29,0,0,1-.09-1.17,11.5,11.5,0,0,1-3.84,2.82,11.29,11.29,0,0,1-4.67,1,10.47,10.47,0,0,1-2.89-.4,7,7,0,0,1-2.45-1.23,6.14,6.14,0,0,1-1.68-2.05,6.29,6.29,0,0,1-.62-2.89q0-5.82,8-6.88Zm4.45,1.32a13,13,0,0,1-3.39.93q-1.72.22-3.44,0.35a9.69,9.69,0,0,0-4.74,1.37,3.92,3.92,0,0,0-1.7,3.48,3.77,3.77,0,0,0,.42,1.83,3.85,3.85,0,0,0,1.1,1.28,4.66,4.66,0,0,0,1.59.75,7,7,0,0,0,1.83.24,12,12,0,0,0,3.09-.4,8.33,8.33,0,0,0,2.67-1.21,6.19,6.19,0,0,0,1.87-2.07,6,6,0,0,0,.71-3v-3.57Z"/><path class="cls-1" d="M339.29,375.85V344.1h2.65v31.75h-2.65Z"/><path class="cls-1" d="M415.39,368.71a6.71,6.71,0,0,0,2.23,4.17,7.54,7.54,0,0,0,4.61,1.21,8,8,0,0,0,2.51-.35,5.06,5.06,0,0,0,1.74-.95,4.1,4.1,0,0,0,1-1.35,3.69,3.69,0,0,0,.35-1.59,2.92,2.92,0,0,0-1.08-2.49,8.16,8.16,0,0,0-2.71-1.28,34.69,34.69,0,0,0-3.53-.79,17.25,17.25,0,0,1-3.53-1,7.06,7.06,0,0,1-2.71-1.9,5.12,5.12,0,0,1-1.08-3.48,6,6,0,0,1,2.09-4.7,8.74,8.74,0,0,1,5.93-1.83,10.12,10.12,0,0,1,6,1.65q2.31,1.65,2.8,5.53h-2.69a5,5,0,0,0-2-3.73,7.47,7.47,0,0,0-4.17-1.08,5.94,5.94,0,0,0-3.84,1.08,3.49,3.49,0,0,0-1.32,2.84,2.77,2.77,0,0,0,1.08,2.36,8.76,8.76,0,0,0,2.71,1.32q1.63,0.51,3.53.9a17.4,17.4,0,0,1,3.53,1.12,7.73,7.73,0,0,1,2.71,2,5.05,5.05,0,0,1,1.08,3.44,5.81,5.81,0,0,1-.71,2.89,6.16,6.16,0,0,1-1.94,2.09,9,9,0,0,1-2.93,1.26,15.53,15.53,0,0,1-3.73.42,10.07,10.07,0,0,1-3.59-.59,7.78,7.78,0,0,1-2.67-1.65,7.61,7.61,0,0,1-1.72-2.47,8.69,8.69,0,0,1-.71-3h2.69Z"/><path class="cls-1" d="M471.43,376.47a11.87,11.87,0,0,1-4.12-.79,9.22,9.22,0,0,1-3.35-2.25,10.77,10.77,0,0,1-2.27-3.75,15,15,0,0,1-.84-5.25,16.12,16.12,0,0,1,.66-4.7,11.09,11.09,0,0,1,2-3.81,9.43,9.43,0,0,1,3.31-2.58,10.63,10.63,0,0,1,4.63-.95,10.74,10.74,0,0,1,4.67.95,9.53,9.53,0,0,1,3.31,2.56,10.56,10.56,0,0,1,2,3.81,16.88,16.88,0,0,1,.64,4.72,15.27,15.27,0,0,1-.75,4.94,11.13,11.13,0,0,1-2.14,3.79,9.42,9.42,0,0,1-3.35,2.45A10.72,10.72,0,0,1,471.43,376.47Zm7.76-12a15.62,15.62,0,0,0-.44-3.79,9,9,0,0,0-1.37-3.06,6.56,6.56,0,0,0-2.38-2.05,7.73,7.73,0,0,0-3.57-.75,7.24,7.24,0,0,0-3.55.82,6.94,6.94,0,0,0-2.4,2.16,9.5,9.5,0,0,0-1.37,3.09,14.61,14.61,0,0,0-.44,3.59,14.27,14.27,0,0,0,.51,3.9,9.13,9.13,0,0,0,1.48,3.06,6.63,6.63,0,0,0,2.42,2,7.58,7.58,0,0,0,3.35.71,7.24,7.24,0,0,0,3.55-.82,6.86,6.86,0,0,0,2.4-2.18,9.77,9.77,0,0,0,1.37-3.09A14.34,14.34,0,0,0,479.19,364.43Z"/><path class="cls-1" d="M513.71,375.85V344.1h2.65v31.75h-2.65Z"/><path class="cls-1" d="M565,353h2.65v22.84H565v-3.17q-0.53.62-1.19,1.28a9,9,0,0,1-1.52,1.21,8.7,8.7,0,0,1-2,.93,8.53,8.53,0,0,1-2.65.37,10.07,10.07,0,0,1-3.84-.64,6.27,6.27,0,0,1-2.49-1.79,7.07,7.07,0,0,1-1.37-2.67,12.46,12.46,0,0,1-.42-3.33V353h2.65v15a6.67,6.67,0,0,0,1.37,4.52q1.37,1.57,4.5,1.57a6.56,6.56,0,0,0,2.93-.64,6.13,6.13,0,0,0,2.18-1.79,8.54,8.54,0,0,0,1.37-2.73,11.88,11.88,0,0,0,.48-3.48V353Z"/><path class="cls-1" d="M608.55,375.94q-0.49.09-1.28,0.31a6.58,6.58,0,0,1-1.76.22,4.21,4.21,0,0,1-3-1q-1-1-1-3.55V355.22h-3.22V353h3.22v-6.35h2.65V353h4.28v2.2H604.1v15.65q0,0.84,0,1.45a2.43,2.43,0,0,0,.26,1,1.26,1.26,0,0,0,.68.57,3.77,3.77,0,0,0,1.3.18,6.81,6.81,0,0,0,1.08-.09q0.55-.09,1.08-0.22v2.16Z"/><path class="cls-1" d="M639.51,348V344.1h2.91V348h-2.91Zm0.13,27.82V353h2.65v22.84h-2.65Z"/><path class="cls-1" d="M684.57,376.47a11.87,11.87,0,0,1-4.12-.79,9.22,9.22,0,0,1-3.35-2.25,10.77,10.77,0,0,1-2.27-3.75,15,15,0,0,1-.84-5.25,16.12,16.12,0,0,1,.66-4.7,11.09,11.09,0,0,1,2-3.81,9.43,9.43,0,0,1,3.31-2.58,10.63,10.63,0,0,1,4.63-.95,10.74,10.74,0,0,1,4.67.95,9.53,9.53,0,0,1,3.31,2.56,10.56,10.56,0,0,1,2,3.81,16.88,16.88,0,0,1,.64,4.72,15.27,15.27,0,0,1-.75,4.94,11.13,11.13,0,0,1-2.14,3.79,9.42,9.42,0,0,1-3.35,2.45A10.72,10.72,0,0,1,684.57,376.47Zm7.76-12a15.62,15.62,0,0,0-.44-3.79,9,9,0,0,0-1.37-3.06,6.56,6.56,0,0,0-2.38-2.05,7.73,7.73,0,0,0-3.57-.75,7.24,7.24,0,0,0-3.55.82,6.94,6.94,0,0,0-2.4,2.16,9.5,9.5,0,0,0-1.37,3.09,14.61,14.61,0,0,0-.44,3.59,14.27,14.27,0,0,0,.51,3.9,9.13,9.13,0,0,0,1.48,3.06,6.63,6.63,0,0,0,2.42,2,7.58,7.58,0,0,0,3.35.71,7.24,7.24,0,0,0,3.55-.82,6.86,6.86,0,0,0,2.4-2.18,9.77,9.77,0,0,0,1.37-3.09A14.34,14.34,0,0,0,692.33,364.43Z"/><path class="cls-1" d="M729.1,375.85h-2.65V353h2.65v3.17a16.77,16.77,0,0,1,3.28-2.73,7.56,7.56,0,0,1,4.08-1.06,10.4,10.4,0,0,1,3.92.73,6.7,6.7,0,0,1,3,2.54,5.71,5.71,0,0,1,1,2.54,23.17,23.17,0,0,1,.15,2.71v14.95h-2.65v-14.9a6.81,6.81,0,0,0-1.37-4.63q-1.37-1.54-4.54-1.54a6.45,6.45,0,0,0-2.25.38,7,7,0,0,0-1.83,1,6.63,6.63,0,0,0-2.27,3.09,8.4,8.4,0,0,0-.48,2.12q-0.09,1-.09,2.2v12.3Z"/><path class="cls-1" d="M779,368.71a6.72,6.72,0,0,0,2.23,4.17,7.54,7.54,0,0,0,4.61,1.21,8,8,0,0,0,2.51-.35,5,5,0,0,0,1.74-.95,4.11,4.11,0,0,0,1-1.35,3.69,3.69,0,0,0,.35-1.59,2.92,2.92,0,0,0-1.08-2.49,8.15,8.15,0,0,0-2.71-1.28,34.67,34.67,0,0,0-3.53-.79,17.24,17.24,0,0,1-3.53-1,7,7,0,0,1-2.71-1.9,5.12,5.12,0,0,1-1.08-3.48,6,6,0,0,1,2.09-4.7,8.74,8.74,0,0,1,5.93-1.83,10.13,10.13,0,0,1,6,1.65q2.31,1.65,2.8,5.53H791a5,5,0,0,0-2-3.73,7.47,7.47,0,0,0-4.17-1.08,5.93,5.93,0,0,0-3.84,1.08,3.49,3.49,0,0,0-1.32,2.84,2.77,2.77,0,0,0,1.08,2.36,8.76,8.76,0,0,0,2.71,1.32q1.63,0.51,3.53.9a17.4,17.4,0,0,1,3.53,1.12,7.72,7.72,0,0,1,2.71,2,5.05,5.05,0,0,1,1.08,3.44,5.81,5.81,0,0,1-.71,2.89,6.16,6.16,0,0,1-1.94,2.09,9,9,0,0,1-2.93,1.26,15.55,15.55,0,0,1-3.73.42,10.07,10.07,0,0,1-3.59-.59,7.78,7.78,0,0,1-2.67-1.65,7.61,7.61,0,0,1-1.72-2.47,8.67,8.67,0,0,1-.71-3H779Z"/></svg>