<svg id="Layer_1" data-name="Layer 1" xmlns="http://www.w3.org/2000/svg" viewBox="0 0 208.49 105.12"><defs><style>.cls-1{opacity:0.24;}.cls-2{fill:#fff;}.cls-3{fill:none;}</style></defs><title>DEDE UNDER CNSTRC</title><g class="cls-1"><path class="cls-2" d="M108.34,49.25c-1.87,3.8-3.35,7-5.67,11.08l-1.35,2.19c6.31,1.55,15.14,5,21.13,9.6s7.47,12.37,5.86,15.07a3.88,3.88,0,0,1-1.61,1.74c-2.77,1.48-1.35-.84-0.84-1.93,1-2.25,1.22-8.76-3.16-12.56-6.25-5.54-15.14-7.41-23.32-9-3.35,4.7-7.21,8.5-11.4,10.5-13.46,6.51-22.61-8.05-5.28-13.27a40.2,40.2,0,0,1,16.17-.71,116.06,116.06,0,0,0,6.76-12.43c-18.55.58-24.35-19.45-2.32-24.48,2.71-.64,3,0.71.13,1.09-13.27,1.61-17.58,24.22,3.09,21.77,0.77-1.74,5.47-13.78,5.47-13.78,9.53-24.54,22.74-19.71,23.19-14.43C136.29,32.7,122.06,46.93,108.34,49.25Zm-24.86,16c-15.59,4-8.31,14.49,3.48,8.82,3.48-1.67,6.83-4.7,9.92-9.08A30.34,30.34,0,0,0,83.48,65.29Zm31.43-29s-3,5.73-5.67,11.21C120.83,44.93,132.62,33,132.56,21.1,132.49,16.79,124.89,16.79,114.91,36.3Z"/></g><path class="cls-2" d="M78.9,67.33c0-.71,0-0.84,0-1a0.22,0.22,0,0,0-.2-0.26H78.54a0,0,0,0,1,0,0s0,0,.07,0h1.13a2.42,2.42,0,0,1,1.83.52A1.63,1.63,0,0,1,82,67.69,1.87,1.87,0,0,1,81.5,69a1.82,1.82,0,0,1-1.39.53l-0.64,0-0.38,0H78.65c-0.05,0-.07,0-0.07,0a0,0,0,0,1,0,0l0.14,0a0.24,0.24,0,0,0,.13-0.25c0-.19,0-0.55,0-1v-0.8Zm0.38,0.49c0,0.48,0,.91,0,1a1,1,0,0,0,.05.35,1,1,0,0,0,.78.18,1.54,1.54,0,0,0,1.09-.43,1.6,1.6,0,0,0,.37-1.09,1.64,1.64,0,0,0-.44-1.15,1.88,1.88,0,0,0-1.5-.52,1.22,1.22,0,0,0-.3,0,0.08,0.08,0,0,0-.05.09c0,0.16,0,.62,0,1v0.57Z"/><path class="cls-2" d="M82.94,67.64c0-.6,0-0.71,0-0.84a0.18,0.18,0,0,0-.16-0.21H82.63a0,0,0,0,1,0,0s0,0,.06,0h1.43l0.18,0,0.05,0s0,0,0,0,0,0.07,0,.18,0,0.21,0,.26a0,0,0,0,1,0,0s0,0,0-.05a0.42,0.42,0,0,0,0-.14c0-.06-0.07-0.09-0.29-0.12H83.33s0,0,0,0v1.06s0,0,0,0H84a0.31,0.31,0,0,0,.2-0.05,0.16,0.16,0,0,1,.06-0.05s0,0,0,0a2.1,2.1,0,0,0,0,.22c0,0.08,0,.22,0,0.25s0,0.07,0,.07a0,0,0,0,1,0,0,0.35,0.35,0,0,0,0-.13c0-.05-0.05-0.1-0.21-0.12s-0.54,0-.61,0a0,0,0,0,0,0,0v0.32c0,0.13,0,.59,0,0.66,0,0.26.08,0.31,0.48,0.31a1.34,1.34,0,0,0,.4,0A0.3,0.3,0,0,0,84.37,69s0-.06,0-0.06,0,0,0,.06a3.22,3.22,0,0,1-.05.38c0,0.1-.07.1-0.22,0.1H82.72s-0.06,0-.06,0a0,0,0,0,1,0,0l0.12,0c0.08,0,.09-0.09.11-0.21a7.92,7.92,0,0,0,0-.84V67.64Z"/><path class="cls-2" d="M85.12,69.41c-0.05,0-.06,0-0.06-0.15s0-.35,0-0.41,0-.06,0-0.06a0,0,0,0,1,0,0,0.59,0.59,0,0,0,0,.14,0.59,0.59,0,0,0,.64.38,0.52,0.52,0,0,0,.6-0.52,0.84,0.84,0,0,0-.51-0.68L85.72,68a1.07,1.07,0,0,1-.58-0.83A0.77,0.77,0,0,1,86,66.46a1.94,1.94,0,0,1,.42,0l0.14,0s0,0,0,0,0,0.15,0,.41c0,0.06,0,.09,0,0.09s0,0,0-.05a0.72,0.72,0,0,0-.06-0.19A0.59,0.59,0,0,0,86,66.61a0.46,0.46,0,0,0-.54.42,0.81,0.81,0,0,0,.52.66l0.11,0.08a1.14,1.14,0,0,1,.66.94,0.76,0.76,0,0,1-.38.66,1.23,1.23,0,0,1-.64.14A1.48,1.48,0,0,1,85.12,69.41Z"/><path class="cls-2" d="M88.13,68.33c0,0.38,0,.68,0,0.84a0.18,0.18,0,0,0,.15.21l0.18,0a0,0,0,0,1,0,0s0,0-.06,0h-0.9s-0.06,0-.06,0a0,0,0,0,1,0,0l0.12,0a0.19,0.19,0,0,0,.11-0.21c0-.16,0-0.47,0-0.84V67.64c0-.6,0-0.71,0-0.84a0.18,0.18,0,0,0-.13-0.21H87.51a0,0,0,0,1,0,0s0,0,.06,0h0.81s0.06,0,.06,0a0,0,0,0,1,0,0h-0.1c-0.11,0-.13.08-0.14,0.21s0,0.23,0,.84v0.69Z"/><path class="cls-2" d="M91.37,68.47c0-.32,0-0.36-0.17-0.39H91.06a0,0,0,0,1,0,0s0,0,.06,0H92S92,68,92,68a0,0,0,0,1,0,0H91.9a0.18,0.18,0,0,0-.15.21c0,0.12,0,.24,0,0.4v0.43c0,0.18,0,.18-0.05.21a2.27,2.27,0,0,1-2.18-.24A1.49,1.49,0,0,1,89,68a1.45,1.45,0,0,1,.67-1.28,2,2,0,0,1,1.07-.25,3.37,3.37,0,0,1,.62.06,1.75,1.75,0,0,0,.32,0s0.05,0,.05,0,0,0.16,0,.55c0,0.06,0,.08,0,0.08s0,0,0-.06a0.58,0.58,0,0,0-.09-0.26,1.15,1.15,0,0,0-.93-0.3,1.28,1.28,0,0,0-.84.25,1.21,1.21,0,0,0-.4,1,1.55,1.55,0,0,0,.43,1.07,1.44,1.44,0,0,0,1,.41,1,1,0,0,0,.43-0.07,0.12,0.12,0,0,0,.08-0.12V68.47Z"/><path class="cls-2" d="M93.12,68.93c0,0.32,0,.42.16,0.44l0.2,0a0,0,0,0,1,0,0s0,0-.07,0H92.62s-0.06,0-.06,0a0,0,0,0,1,0,0,0.63,0.63,0,0,0,.16,0c0.1,0,.11-0.13.11-0.48V66.66c0-.16,0-0.2.05-0.2a0.36,0.36,0,0,1,.16.12l1.27,1.33,1,1,0-1.95c0-.25,0-0.34-0.15-0.36l-0.2,0a0,0,0,0,1,0,0s0,0,.08,0h0.76s0.07,0,.07,0a0,0,0,0,1,0,0h-0.1c-0.13,0-.14.11-0.14,0.34v2.28c0,0.26,0,.28,0,0.28a0.74,0.74,0,0,1-.31-0.24s-0.62-.61-1-1.05l-1-1.1Z"/><path class="cls-2" d="M97.77,68.51a1.28,1.28,0,0,1,.7-1.1,1,1,0,0,1-.22-0.63,1,1,0,0,1,1-.84,1.19,1.19,0,0,1,.55.11,0.1,0.1,0,0,1,.06.11,5.15,5.15,0,0,1,0,.53c0,0.07,0,.08,0,0.08s0,0,0-.09a0.55,0.55,0,0,0-.14-0.39,0.63,0.63,0,0,0-.46-0.2,0.56,0.56,0,0,0-.58.6,2,2,0,0,0,.72,1.17c0.16,0.17.72,0.7,0.86,0.82a1.4,1.4,0,0,0,.23-0.76,0.31,0.31,0,0,0-.09-0.22,0.32,0.32,0,0,0-.22-0.07,0,0,0,0,1-.05,0,0.06,0.06,0,0,1,.07,0,5.11,5.11,0,0,1,.55,0,0.08,0.08,0,0,1,.08.09,2,2,0,0,1-.45,1.08,4,4,0,0,0,.63.45,1.26,1.26,0,0,0,.54.18s0.06,0,.06,0a0.07,0.07,0,0,1-.08,0H101a1.23,1.23,0,0,1-1-.43,1.54,1.54,0,0,1-1.14.49A1,1,0,0,1,97.77,68.51Zm2.14,0.43c-0.26-.21-0.71-0.64-0.83-0.77a7.46,7.46,0,0,1-.54-0.64,0.88,0.88,0,0,0-.41.77,0.93,0.93,0,0,0,.91,1A1.18,1.18,0,0,0,99.9,68.94Z"/><path class="cls-2" d="M104,66.12c0.05-.15.07-0.18,0.1-0.18s0,0,.1.16,0.79,2.06,1.07,2.76a0.69,0.69,0,0,0,.39.51,0.59,0.59,0,0,0,.18,0s0,0,0,0,0,0-.09,0h-0.72c-0.09,0-.14,0-0.14,0a0,0,0,0,1,0,0,0.09,0.09,0,0,0,0-.12l-0.43-1.13a0,0,0,0,0,0,0h-1a0,0,0,0,0,0,0l-0.27.81a1,1,0,0,0-.06.31,0.16,0.16,0,0,0,.17.13h0s0,0,0,0,0,0-.07,0h-0.87c-0.06,0-.09,0-0.09,0a0,0,0,0,1,0,0h0.13A0.52,0.52,0,0,0,103,69Zm0.48,1.83s0,0,0,0l-0.43-1.23q0-.1-0.07,0l-0.4,1.23s0,0,0,0h0.87Z"/><path class="cls-2" d="M106.51,69.09a1.46,1.46,0,0,1-.49-1.15,1.54,1.54,0,0,1,.45-1.06,1.66,1.66,0,0,1,1.23-.42,3.93,3.93,0,0,1,.59,0,2.89,2.89,0,0,0,.41.06s0.05,0,.05,0,0,0.08,0,.22,0,0.34,0,.4,0,0.08,0,.08,0,0,0-.08a0.51,0.51,0,0,0-.17-0.39,1.31,1.31,0,0,0-.79-0.21,1.24,1.24,0,0,0-.91.27,1.27,1.27,0,0,0-.36,1,1.41,1.41,0,0,0,1.45,1.41,0.85,0.85,0,0,0,.66-0.18,0.72,0.72,0,0,0,.16-0.32s0-.05,0-0.05a0.05,0.05,0,0,1,0,.05,4.1,4.1,0,0,1-.1.5,0.13,0.13,0,0,1-.1.11,2.38,2.38,0,0,1-.73.09A1.9,1.9,0,0,1,106.51,69.09Z"/><path class="cls-2" d="M109.71,69.09a1.46,1.46,0,0,1-.49-1.15,1.54,1.54,0,0,1,.45-1.06,1.66,1.66,0,0,1,1.23-.42,3.93,3.93,0,0,1,.59,0,2.89,2.89,0,0,0,.41.06s0.05,0,.05,0,0,0.08,0,.22,0,0.34,0,.4,0,0.08,0,.08,0,0,0-.08a0.51,0.51,0,0,0-.17-0.39,1.31,1.31,0,0,0-.79-0.21,1.24,1.24,0,0,0-.91.27,1.27,1.27,0,0,0-.36,1,1.41,1.41,0,0,0,1.45,1.41,0.85,0.85,0,0,0,.66-0.18,0.72,0.72,0,0,0,.16-0.32s0-.05,0-0.05a0.05,0.05,0,0,1,0,.05,4.1,4.1,0,0,1-.1.5,0.13,0.13,0,0,1-.1.11,2.38,2.38,0,0,1-.73.09A1.9,1.9,0,0,1,109.71,69.09Z"/><path class="cls-2" d="M112.92,67.64c0-.6,0-0.71,0-0.84a0.18,0.18,0,0,0-.16-0.21h-0.14a0,0,0,0,1,0,0s0,0,.06,0h1.43l0.18,0,0.05,0s0,0,0,0,0,0.07,0,.18,0,0.21,0,.26a0,0,0,0,1,0,0s0,0,0-.05a0.42,0.42,0,0,0,0-.14c0-.06-0.07-0.09-0.29-0.12h-0.58s0,0,0,0v1.06s0,0,0,0H114a0.31,0.31,0,0,0,.2-0.05,0.16,0.16,0,0,1,.06-0.05s0,0,0,0a2.1,2.1,0,0,0,0,.22c0,0.08,0,.22,0,0.25s0,0.07,0,.07a0,0,0,0,1,0,0,0.35,0.35,0,0,0,0-.13c0-.05-0.05-0.1-0.21-0.12s-0.54,0-.61,0a0,0,0,0,0,0,0v0.32c0,0.13,0,.59,0,0.66,0,0.26.08,0.31,0.48,0.31a1.34,1.34,0,0,0,.4,0,0.3,0.3,0,0,0,.18-0.27s0-.06,0-0.06,0,0,0,.06a3.22,3.22,0,0,1-.05.38c0,0.1-.07.1-0.22,0.1H112.7s-0.06,0-.06,0a0,0,0,0,1,0,0l0.12,0c0.08,0,.09-0.09.11-0.21a7.92,7.92,0,0,0,0-.84V67.64Z"/><path class="cls-2" d="M115.1,69.41c-0.05,0-.06,0-0.06-0.15s0-.35,0-0.41,0-.06,0-0.06a0,0,0,0,1,0,0,0.59,0.59,0,0,0,0,.14,0.59,0.59,0,0,0,.64.38,0.52,0.52,0,0,0,.6-0.52,0.84,0.84,0,0,0-.51-0.68L115.69,68a1.07,1.07,0,0,1-.58-0.83,0.77,0.77,0,0,1,.89-0.73,1.94,1.94,0,0,1,.42,0l0.14,0s0,0,0,0,0,0.15,0,.41c0,0.06,0,.09,0,0.09s0,0,0-.05a0.72,0.72,0,0,0-.06-0.19,0.59,0.59,0,0,0-.52-0.19,0.46,0.46,0,0,0-.54.42,0.81,0.81,0,0,0,.52.66L116,67.77a1.14,1.14,0,0,1,.66.94,0.76,0.76,0,0,1-.38.66,1.23,1.23,0,0,1-.64.14A1.48,1.48,0,0,1,115.1,69.41Z"/><path class="cls-2" d="M119,66.46a1.45,1.45,0,0,1,1.59,1.46,1.56,1.56,0,0,1-1.61,1.59A1.49,1.49,0,0,1,117.38,68,1.54,1.54,0,0,1,119,66.46Zm0.09,2.89A1.11,1.11,0,0,0,120.15,68a1.26,1.26,0,0,0-1.2-1.42,1.12,1.12,0,0,0-1.16,1.27A1.31,1.31,0,0,0,119.06,69.35Z"/><path class="cls-2" d="M121.41,67.64c0-.6,0-0.71,0-0.84a0.18,0.18,0,0,0-.16-0.21h-0.14a0,0,0,0,1,0,0s0,0,.06,0h1a1.32,1.32,0,0,1,.75.17,0.68,0.68,0,0,1,.28.53,1.14,1.14,0,0,1-.49.89c0.33,0.41.61,0.76,0.84,1a0.74,0.74,0,0,0,.45.27h0.14a0,0,0,0,1,0,0s0,0-.1,0h-0.25a0.81,0.81,0,0,1-.43-0.08,2.06,2.06,0,0,1-.55-0.57c-0.17-.21-0.35-0.46-0.43-0.57a0.06,0.06,0,0,0-.05,0h-0.51a0,0,0,0,0,0,0v0.09c0,0.38,0,.68,0,0.84a0.18,0.18,0,0,0,.16.21l0.18,0a0,0,0,0,1,0,0s0,0-.06,0h-0.89s-0.06,0-.06,0a0,0,0,0,1,0,0l0.12,0c0.08,0,.09-0.09.11-0.21a7.92,7.92,0,0,0,0-.84V67.64ZM121.75,68a0.06,0.06,0,0,0,0,.05,1.37,1.37,0,0,0,.44.06,0.52,0.52,0,0,0,.3-0.07,0.69,0.69,0,0,0,.24-0.59,0.67,0.67,0,0,0-.7-0.76l-0.29,0a0,0,0,0,0,0,0V68Z"/><path class="cls-2" d="M124.85,68.33c0,0.38,0,.68,0,0.84a0.18,0.18,0,0,0,.15.21l0.18,0a0,0,0,0,1,0,0s0,0-.06,0h-0.9s-0.06,0-.06,0a0,0,0,0,1,0,0l0.12,0a0.19,0.19,0,0,0,.11-0.21c0-.16,0-0.47,0-0.84V67.64c0-.6,0-0.71,0-0.84a0.18,0.18,0,0,0-.13-0.21h-0.12a0,0,0,0,1,0,0s0,0,.06,0h0.81s0.06,0,.06,0a0,0,0,0,1,0,0H125c-0.11,0-.13.08-0.14,0.21s0,0.23,0,.84v0.69Z"/><path class="cls-2" d="M126.17,67.64c0-.6,0-0.71,0-0.84a0.18,0.18,0,0,0-.16-0.21h-0.14a0,0,0,0,1,0,0s0,0,.06,0h1.43l0.18,0,0.05,0s0,0,0,0,0,0.07,0,.18,0,0.21,0,.26a0,0,0,0,1,0,0s0,0,0-.05a0.42,0.42,0,0,0,0-.14c0-.06-0.07-0.09-0.29-0.12h-0.58s0,0,0,0v1.06s0,0,0,0h0.67a0.31,0.31,0,0,0,.2-0.05,0.16,0.16,0,0,1,.06-0.05s0,0,0,0a2.1,2.1,0,0,0,0,.22c0,0.08,0,.22,0,0.25s0,0.07,0,.07a0,0,0,0,1,0,0,0.35,0.35,0,0,0,0-.13c0-.05-0.05-0.1-0.21-0.12s-0.54,0-.61,0a0,0,0,0,0,0,0v0.32c0,0.13,0,.59,0,0.66,0,0.26.08,0.31,0.48,0.31a1.34,1.34,0,0,0,.4,0A0.3,0.3,0,0,0,127.6,69s0-.06,0-0.06,0,0,0,.06a3.22,3.22,0,0,1-.05.38c0,0.1-.07.1-0.22,0.1h-1.44s-0.06,0-.06,0a0,0,0,0,1,0,0l0.12,0c0.08,0,.09-0.09.11-0.21a7.92,7.92,0,0,0,0-.84V67.64Z"/><path class="cls-2" d="M128.35,69.41c-0.05,0-.06,0-0.06-0.15s0-.35,0-0.41,0-.06,0-0.06a0,0,0,0,1,0,0,0.59,0.59,0,0,0,0,.14,0.59,0.59,0,0,0,.64.38,0.52,0.52,0,0,0,.6-0.52,0.84,0.84,0,0,0-.51-0.68L128.94,68a1.07,1.07,0,0,1-.58-0.83,0.77,0.77,0,0,1,.89-0.73,1.94,1.94,0,0,1,.42,0l0.14,0s0,0,0,0,0,0.15,0,.41c0,0.06,0,.09,0,0.09s0,0,0-.05a0.72,0.72,0,0,0-.06-0.19,0.59,0.59,0,0,0-.52-0.19,0.46,0.46,0,0,0-.54.42,0.81,0.81,0,0,0,.52.66l0.11,0.08a1.14,1.14,0,0,1,.66.94,0.76,0.76,0,0,1-.38.66,1.23,1.23,0,0,1-.64.14A1.48,1.48,0,0,1,128.35,69.41Z"/><path class="cls-2" d="M110.73,37.76c-0.83-.58-0.92.32-0.92,0.32a0.55,0.55,0,0,0-.15.73c0.07-.41.65-0.22,0.65-0.22A1.51,1.51,0,0,1,108.58,40c-0.57,0-.11-1.07-0.11-1.07-0.25.14-.55,0.87-1.15,0.69s-0.47-2-.41-2.3a0.61,0.61,0,0,1,.62-0.63c0.46,0,.12.68,0.12,0.68,0.87,0.18.53-.8,0.53-0.8-0.46-1.11-1.26-.13-1.39.15s-0.22,0-.22,0a1.4,1.4,0,0,1,.78-1.22c-0.15-.4-1,0-1,0V35.15c0.48-.12.26-0.41,0.26-0.41a4.9,4.9,0,0,1-.46-1.49,4.89,4.89,0,0,1-.46,1.49s-0.22.29,0.26,0.41v0.39s-0.81-.42-1,0a1.4,1.4,0,0,1,.78,1.22s-0.1.27-.22,0-0.93-1.26-1.39-.15c0,0-.34,1,0.53.8,0,0-.34-0.67.12-0.68a0.61,0.61,0,0,1,.62.63c0.06,0.31.2,2.13-.41,2.3s-0.91-.55-1.15-0.69c0,0,.46,1-0.11,1.07a1.51,1.51,0,0,1-1.72-1.43s0.58-.19.65,0.22a0.55,0.55,0,0,0-.15-0.73s-0.1-.9-0.92-0.32a1.91,1.91,0,0,0-1.85-.62,10.48,10.48,0,0,1,2.91,3.34,9.44,9.44,0,0,0,3.49.63,9.14,9.14,0,0,0,3.49-.63,10.48,10.48,0,0,1,2.91-3.34A1.91,1.91,0,0,0,110.73,37.76Z"/><path class="cls-2" d="M101.6,46.12v0.24h-0.35a1.09,1.09,0,0,0-1.14,1v8c0,3.32-2.26,5.36-5.93,5.36s-6-2-6-5.32v-8a1.09,1.09,0,0,0-1.14-1H86.73V46.12h4.52v0.24H90.89a1.09,1.09,0,0,0-1.15,1v7.71c0,3.09,1.68,5,4.41,5,3,0,4.84-1.79,4.85-4.71v-8a1.09,1.09,0,0,0-1.14-1H97.51V46.12h4.1Z"/><path class="cls-2" d="M94.18,60.81c-3.72,0-6-2.07-6-5.41v-8a1,1,0,0,0-1.06-.95H86.65V46h4.68v0.4H90.89a1,1,0,0,0-1.07,1v7.71c0,3,1.66,4.9,4.33,4.9,2.93,0,4.76-1.78,4.77-4.63v-8a1,1,0,0,0-1.06-.93H97.43V46h4.26v0.4h-0.43a1,1,0,0,0-1.06.92v8C100.19,58.73,97.88,60.81,94.18,60.81ZM86.81,46.28h0.27a1.18,1.18,0,0,1,1.23,1.11v8c0,3.23,2.25,5.24,5.87,5.24s5.85-2,5.85-5.28v-8a1.17,1.17,0,0,1,1.23-1.08h0.27V46.21H97.59v0.07h0.27a1.16,1.16,0,0,1,1.22,1.09v8c0,3-1.9,4.8-4.93,4.8-2.77,0-4.49-1.94-4.49-5.06V47.39a1.18,1.18,0,0,1,1.23-1.11h0.27V46.21H86.81v0.07Z"/><path class="cls-2" d="M103.74,60.4V60.16h0.32a1.5,1.5,0,0,0,1.62-1.29V47.65a1.5,1.5,0,0,0-1.62-1.29h-0.32V46.12h5.39v0.24h-0.32a1.51,1.51,0,0,0-1.61,1.25V58.89a1.5,1.5,0,0,0,1.61,1.27h0.32V60.4h-5.39Z"/><path class="cls-2" d="M109.21,60.48h-5.56v-0.4h0.4a1.43,1.43,0,0,0,1.54-1.21V47.65a1.43,1.43,0,0,0-1.54-1.21h-0.4V46h5.55v0.4h-0.4a1.43,1.43,0,0,0-1.53,1.17V58.89a1.41,1.41,0,0,0,1.53,1.19h0.4v0.4Zm-5.39-.16H109V60.24h-0.24a1.57,1.57,0,0,1-1.7-1.35V47.61a1.59,1.59,0,0,1,1.69-1.33H109V46.21h-5.22v0.07h0.24a1.57,1.57,0,0,1,1.7,1.37V58.87a1.57,1.57,0,0,1-1.7,1.37h-0.24v0.07Z"/><path class="cls-2" d="M124.3,57L123,60.4h-11.4V60.18l8.87-13.36H113.4A1.18,1.18,0,0,0,112.23,48v0.37H112V45.73a10.86,10.86,0,0,0,2.65.37h5.47a10.37,10.37,0,0,0,2.69-.31V46l-9,13.69h6.54c2.28,0,3.1-1.13,3.77-2.69h0.25Z"/><path class="cls-2" d="M123.07,60.48H111.53V60.13l8.78-13.23H113.4A1.09,1.09,0,0,0,112.31,48v0.45H111.9V45.61l0.11,0a10.86,10.86,0,0,0,2.62.36h5.47a10.46,10.46,0,0,0,2.65-.3l0.12-.06V46l-9,13.56h6.38c2.15,0,3-1,3.69-2.64l0,0h0.43Zm-11.38-.16H123l1.22-3.24H124.1a3.75,3.75,0,0,1-3.82,2.69h-6.69L122.7,46V45.91a12,12,0,0,1-2.61.27h-5.47a11.87,11.87,0,0,1-2.57-.33v2.48h0.09V48a1.26,1.26,0,0,1,1.24-1.3h7.24L111.7,60.2v0.11Z"/><path class="cls-2" d="M135.86,60.4H126.2V60.16h0.33a1.33,1.33,0,0,0,1.37-1.26V47.61a1.29,1.29,0,0,0-1.37-1.25H126.2V46.13h6.95a10.35,10.35,0,0,0,2.66-.37v2.69h-0.26V48.08a1.18,1.18,0,0,0-1.19-1.22h-4.93v6.05h4.06a0.93,0.93,0,0,0,1-1v-0.3h0.26v3.34h-0.26v-0.3a0.92,0.92,0,0,0-.91-1h-4.12v6.05h3.72c2.29,0,3.1-1.15,3.78-2.69h0.26Z"/><path class="cls-2" d="M135.92,60.48h-9.8v-0.4h0.41a1.25,1.25,0,0,0,1.29-1.18V47.61a1.21,1.21,0,0,0-1.29-1.16h-0.41V46h7a10.38,10.38,0,0,0,2.63-.37l0.11,0v2.89h-0.42V48.08a1.11,1.11,0,0,0-1.11-1.14H129.5v5.89h4a0.84,0.84,0,0,0,.88-0.93V51.51h0.42V55h-0.42V54.63a0.84,0.84,0,0,0-.83-0.93h-4v5.89h3.64c2.14,0,3-1,3.7-2.64l0,0h0.43Zm-9.64-.16h9.53l1.25-3.25H137A5,5,0,0,1,135.68,59a3.92,3.92,0,0,1-2.54.8h-3.8V53.54h4.2a1,1,0,0,1,1,1.09v0.22h0.1V51.67h-0.1V51.9a1,1,0,0,1-1,1.09h-4.15V46.77h5a1.26,1.26,0,0,1,1.27,1.3v0.29h0.1v-2.5a11.14,11.14,0,0,1-2.58.34h-6.87v0.07h0.25A1.38,1.38,0,0,1,128,47.61V58.9a1.41,1.41,0,0,1-1.45,1.34h-0.25v0.07Z"/><path class="cls-2" d="M74.66,59.67V45.48A1.52,1.52,0,0,1,76.18,44h0.3V43.75h-5.2V44h0.3a1.52,1.52,0,0,1,1.52,1.5V58.67a1.52,1.52,0,0,1-1.52,1.5h-0.3V60.4h3.78c0-.24,0-0.48-0.05-0.73H74.66Z"/><path class="cls-2" d="M75.15,60.48H71.2v-0.4h0.38A1.45,1.45,0,0,0,73,58.66V45.48a1.45,1.45,0,0,0-1.44-1.41H71.2v-0.4h5.37v0.4H76.18a1.45,1.45,0,0,0-1.44,1.42V59.59h0.35v0.08c0,0.25,0,.49.05,0.73v0.09Zm-3.78-.16H75c0-.19,0-0.38,0-0.57H74.58V45.48a1.61,1.61,0,0,1,1.61-1.58H76.4V43.83h-5V43.9h0.22a1.61,1.61,0,0,1,1.61,1.58V58.67a1.61,1.61,0,0,1-1.61,1.58H71.37v0.07Z"/><path class="cls-2" d="M85.08,56.56H84.85c-0.73,1.81-1.7,3.12-4.22,3.12H77.56c0,0.25,0,.49.05,0.73H83.7Z"/><path class="cls-2" d="M83.75,60.48H77.54V60.41c0-.24,0-0.48-0.05-0.73V59.59h3.15c2.42,0,3.38-1.17,4.15-3.06l0-.05H85.2Zm-6.07-.16h6L85,56.64H84.9c-0.77,1.87-1.8,3.12-4.28,3.12h-3C77.66,59.94,77.67,60.13,77.69,60.32Z"/><rect class="cls-2" x="74.49" y="59.67" width="5.87" height="0.73"/><path class="cls-2" d="M80.44,60.48h-6V59.59h6v0.89Zm-5.87-.16h5.71V59.75H74.58v0.57Z"/><g class="cls-1"><path class="cls-2" d="M108.34,49.25c-1.87,3.8-3.35,7-5.67,11.08l-1.35,2.19c6.31,1.55,15.14,5,21.13,9.6s7.47,12.37,5.86,15.07a3.88,3.88,0,0,1-1.61,1.74c-2.77,1.48-1.35-.84-0.84-1.93,1-2.25,1.22-8.76-3.16-12.56-6.25-5.54-15.14-7.41-23.32-9-3.35,4.7-7.21,8.5-11.4,10.5-13.46,6.51-22.61-8.05-5.28-13.27a40.2,40.2,0,0,1,16.17-.71,116.06,116.06,0,0,0,6.76-12.43c-18.55.58-24.35-19.45-2.32-24.48,2.71-.64,3,0.71.13,1.09-13.27,1.61-17.58,24.22,3.09,21.77,0.77-1.74,5.47-13.78,5.47-13.78,9.53-24.54,22.74-19.71,23.19-14.43C136.29,32.7,122.06,46.93,108.34,49.25Zm-24.86,16c-15.59,4-8.31,14.49,3.48,8.82,3.48-1.67,6.83-4.7,9.92-9.08A30.34,30.34,0,0,0,83.48,65.29Zm31.43-29s-3,5.73-5.67,11.21C120.83,44.93,132.62,33,132.56,21.1,132.49,16.79,124.89,16.79,114.91,36.3Z"/></g><path class="cls-2" d="M78.9,67.33c0-.71,0-0.84,0-1a0.22,0.22,0,0,0-.2-0.26H78.54a0,0,0,0,1,0,0s0,0,.07,0h1.13a2.42,2.42,0,0,1,1.83.52A1.63,1.63,0,0,1,82,67.69,1.87,1.87,0,0,1,81.5,69a1.82,1.82,0,0,1-1.39.53l-0.64,0-0.38,0H78.65c-0.05,0-.07,0-0.07,0a0,0,0,0,1,0,0l0.14,0a0.24,0.24,0,0,0,.13-0.25c0-.19,0-0.55,0-1v-0.8Zm0.38,0.49c0,0.48,0,.91,0,1a1,1,0,0,0,.05.35,1,1,0,0,0,.78.18,1.54,1.54,0,0,0,1.09-.43,1.6,1.6,0,0,0,.37-1.09,1.64,1.64,0,0,0-.44-1.15,1.88,1.88,0,0,0-1.5-.52,1.22,1.22,0,0,0-.3,0,0.08,0.08,0,0,0-.05.09c0,0.16,0,.62,0,1v0.57Z"/><path class="cls-2" d="M82.94,67.64c0-.6,0-0.71,0-0.84a0.18,0.18,0,0,0-.16-0.21H82.63a0,0,0,0,1,0,0s0,0,.06,0h1.43l0.18,0,0.05,0s0,0,0,0,0,0.07,0,.18,0,0.21,0,.26a0,0,0,0,1,0,0s0,0,0-.05a0.42,0.42,0,0,0,0-.14c0-.06-0.07-0.09-0.29-0.12H83.33s0,0,0,0v1.06s0,0,0,0H84a0.31,0.31,0,0,0,.2-0.05,0.16,0.16,0,0,1,.06-0.05s0,0,0,0a2.1,2.1,0,0,0,0,.22c0,0.08,0,.22,0,0.25s0,0.07,0,.07a0,0,0,0,1,0,0,0.35,0.35,0,0,0,0-.13c0-.05-0.05-0.1-0.21-0.12s-0.54,0-.61,0a0,0,0,0,0,0,0v0.32c0,0.13,0,.59,0,0.66,0,0.26.08,0.31,0.48,0.31a1.34,1.34,0,0,0,.4,0A0.3,0.3,0,0,0,84.37,69s0-.06,0-0.06,0,0,0,.06a3.22,3.22,0,0,1-.05.38c0,0.1-.07.1-0.22,0.1H82.72s-0.06,0-.06,0a0,0,0,0,1,0,0l0.12,0c0.08,0,.09-0.09.11-0.21a7.92,7.92,0,0,0,0-.84V67.64Z"/><path class="cls-2" d="M85.12,69.41c-0.05,0-.06,0-0.06-0.15s0-.35,0-0.41,0-.06,0-0.06a0,0,0,0,1,0,0,0.59,0.59,0,0,0,0,.14,0.59,0.59,0,0,0,.64.38,0.52,0.52,0,0,0,.6-0.52,0.84,0.84,0,0,0-.51-0.68L85.72,68a1.07,1.07,0,0,1-.58-0.83A0.77,0.77,0,0,1,86,66.46a1.94,1.94,0,0,1,.42,0l0.14,0s0,0,0,0,0,0.15,0,.41c0,0.06,0,.09,0,0.09s0,0,0-.05a0.72,0.72,0,0,0-.06-0.19A0.59,0.59,0,0,0,86,66.61a0.46,0.46,0,0,0-.54.42,0.81,0.81,0,0,0,.52.66l0.11,0.08a1.14,1.14,0,0,1,.66.94,0.76,0.76,0,0,1-.38.66,1.23,1.23,0,0,1-.64.14A1.48,1.48,0,0,1,85.12,69.41Z"/><path class="cls-2" d="M88.13,68.33c0,0.38,0,.68,0,0.84a0.18,0.18,0,0,0,.15.21l0.18,0a0,0,0,0,1,0,0s0,0-.06,0h-0.9s-0.06,0-.06,0a0,0,0,0,1,0,0l0.12,0a0.19,0.19,0,0,0,.11-0.21c0-.16,0-0.47,0-0.84V67.64c0-.6,0-0.71,0-0.84a0.18,0.18,0,0,0-.13-0.21H87.51a0,0,0,0,1,0,0s0,0,.06,0h0.81s0.06,0,.06,0a0,0,0,0,1,0,0h-0.1c-0.11,0-.13.08-0.14,0.21s0,0.23,0,.84v0.69Z"/><path class="cls-2" d="M91.37,68.47c0-.32,0-0.36-0.17-0.39H91.06a0,0,0,0,1,0,0s0,0,.06,0H92S92,68,92,68a0,0,0,0,1,0,0H91.9a0.18,0.18,0,0,0-.15.21c0,0.12,0,.24,0,0.4v0.43c0,0.18,0,.18-0.05.21a2.27,2.27,0,0,1-2.18-.24A1.49,1.49,0,0,1,89,68a1.45,1.45,0,0,1,.67-1.28,2,2,0,0,1,1.07-.25,3.37,3.37,0,0,1,.62.06,1.75,1.75,0,0,0,.32,0s0.05,0,.05,0,0,0.16,0,.55c0,0.06,0,.08,0,0.08s0,0,0-.06a0.58,0.58,0,0,0-.09-0.26,1.15,1.15,0,0,0-.93-0.3,1.28,1.28,0,0,0-.84.25,1.21,1.21,0,0,0-.4,1,1.55,1.55,0,0,0,.43,1.07,1.44,1.44,0,0,0,1,.41,1,1,0,0,0,.43-0.07,0.12,0.12,0,0,0,.08-0.12V68.47Z"/><path class="cls-2" d="M93.12,68.93c0,0.32,0,.42.16,0.44l0.2,0a0,0,0,0,1,0,0s0,0-.07,0H92.62s-0.06,0-.06,0a0,0,0,0,1,0,0,0.63,0.63,0,0,0,.16,0c0.1,0,.11-0.13.11-0.48V66.66c0-.16,0-0.2.05-0.2a0.36,0.36,0,0,1,.16.12l1.27,1.33,1,1,0-1.95c0-.25,0-0.34-0.15-0.36l-0.2,0a0,0,0,0,1,0,0s0,0,.08,0h0.76s0.07,0,.07,0a0,0,0,0,1,0,0h-0.1c-0.13,0-.14.11-0.14,0.34v2.28c0,0.26,0,.28,0,0.28a0.74,0.74,0,0,1-.31-0.24s-0.62-.61-1-1.05l-1-1.1Z"/><path class="cls-2" d="M97.77,68.51a1.28,1.28,0,0,1,.7-1.1,1,1,0,0,1-.22-0.63,1,1,0,0,1,1-.84,1.19,1.19,0,0,1,.55.11,0.1,0.1,0,0,1,.06.11,5.15,5.15,0,0,1,0,.53c0,0.07,0,.08,0,0.08s0,0,0-.09a0.55,0.55,0,0,0-.14-0.39,0.63,0.63,0,0,0-.46-0.2,0.56,0.56,0,0,0-.58.6,2,2,0,0,0,.72,1.17c0.16,0.17.72,0.7,0.86,0.82a1.4,1.4,0,0,0,.23-0.76,0.31,0.31,0,0,0-.09-0.22,0.32,0.32,0,0,0-.22-0.07,0,0,0,0,1-.05,0,0.06,0.06,0,0,1,.07,0,5.11,5.11,0,0,1,.55,0,0.08,0.08,0,0,1,.08.09,2,2,0,0,1-.45,1.08,4,4,0,0,0,.63.45,1.26,1.26,0,0,0,.54.18s0.06,0,.06,0a0.07,0.07,0,0,1-.08,0H101a1.23,1.23,0,0,1-1-.43,1.54,1.54,0,0,1-1.14.49A1,1,0,0,1,97.77,68.51Zm2.14,0.43c-0.26-.21-0.71-0.64-0.83-0.77a7.46,7.46,0,0,1-.54-0.64,0.88,0.88,0,0,0-.41.77,0.93,0.93,0,0,0,.91,1A1.18,1.18,0,0,0,99.9,68.94Z"/><path class="cls-2" d="M104,66.12c0.05-.15.07-0.18,0.1-0.18s0,0,.1.16,0.79,2.06,1.07,2.76a0.69,0.69,0,0,0,.39.51,0.59,0.59,0,0,0,.18,0s0,0,0,0,0,0-.09,0h-0.72c-0.09,0-.14,0-0.14,0a0,0,0,0,1,0,0,0.09,0.09,0,0,0,0-.12l-0.43-1.13a0,0,0,0,0,0,0h-1a0,0,0,0,0,0,0l-0.27.81a1,1,0,0,0-.06.31,0.16,0.16,0,0,0,.17.13h0s0,0,0,0,0,0-.07,0h-0.87c-0.06,0-.09,0-0.09,0a0,0,0,0,1,0,0h0.13A0.52,0.52,0,0,0,103,69Zm0.48,1.83s0,0,0,0l-0.43-1.23q0-.1-0.07,0l-0.4,1.23s0,0,0,0h0.87Z"/><path class="cls-2" d="M106.51,69.09a1.46,1.46,0,0,1-.49-1.15,1.54,1.54,0,0,1,.45-1.06,1.66,1.66,0,0,1,1.23-.42,3.93,3.93,0,0,1,.59,0,2.89,2.89,0,0,0,.41.06s0.05,0,.05,0,0,0.08,0,.22,0,0.34,0,.4,0,0.08,0,.08,0,0,0-.08a0.51,0.51,0,0,0-.17-0.39,1.31,1.31,0,0,0-.79-0.21,1.24,1.24,0,0,0-.91.27,1.27,1.27,0,0,0-.36,1,1.41,1.41,0,0,0,1.45,1.41,0.85,0.85,0,0,0,.66-0.18,0.72,0.72,0,0,0,.16-0.32s0-.05,0-0.05a0.05,0.05,0,0,1,0,.05,4.1,4.1,0,0,1-.1.5,0.13,0.13,0,0,1-.1.11,2.38,2.38,0,0,1-.73.09A1.9,1.9,0,0,1,106.51,69.09Z"/><path class="cls-2" d="M109.71,69.09a1.46,1.46,0,0,1-.49-1.15,1.54,1.54,0,0,1,.45-1.06,1.66,1.66,0,0,1,1.23-.42,3.93,3.93,0,0,1,.59,0,2.89,2.89,0,0,0,.41.06s0.05,0,.05,0,0,0.08,0,.22,0,0.34,0,.4,0,0.08,0,.08,0,0,0-.08a0.51,0.51,0,0,0-.17-0.39,1.31,1.31,0,0,0-.79-0.21,1.24,1.24,0,0,0-.91.27,1.27,1.27,0,0,0-.36,1,1.41,1.41,0,0,0,1.45,1.41,0.85,0.85,0,0,0,.66-0.18,0.72,0.72,0,0,0,.16-0.32s0-.05,0-0.05a0.05,0.05,0,0,1,0,.05,4.1,4.1,0,0,1-.1.5,0.13,0.13,0,0,1-.1.11,2.38,2.38,0,0,1-.73.09A1.9,1.9,0,0,1,109.71,69.09Z"/><path class="cls-2" d="M112.92,67.64c0-.6,0-0.71,0-0.84a0.18,0.18,0,0,0-.16-0.21h-0.14a0,0,0,0,1,0,0s0,0,.06,0h1.43l0.18,0,0.05,0s0,0,0,0,0,0.07,0,.18,0,0.21,0,.26a0,0,0,0,1,0,0s0,0,0-.05a0.42,0.42,0,0,0,0-.14c0-.06-0.07-0.09-0.29-0.12h-0.58s0,0,0,0v1.06s0,0,0,0H114a0.31,0.31,0,0,0,.2-0.05,0.16,0.16,0,0,1,.06-0.05s0,0,0,0a2.1,2.1,0,0,0,0,.22c0,0.08,0,.22,0,0.25s0,0.07,0,.07a0,0,0,0,1,0,0,0.35,0.35,0,0,0,0-.13c0-.05-0.05-0.1-0.21-0.12s-0.54,0-.61,0a0,0,0,0,0,0,0v0.32c0,0.13,0,.59,0,0.66,0,0.26.08,0.31,0.48,0.31a1.34,1.34,0,0,0,.4,0,0.3,0.3,0,0,0,.18-0.27s0-.06,0-0.06,0,0,0,.06a3.22,3.22,0,0,1-.05.38c0,0.1-.07.1-0.22,0.1H112.7s-0.06,0-.06,0a0,0,0,0,1,0,0l0.12,0c0.08,0,.09-0.09.11-0.21a7.92,7.92,0,0,0,0-.84V67.64Z"/><path class="cls-2" d="M115.1,69.41c-0.05,0-.06,0-0.06-0.15s0-.35,0-0.41,0-.06,0-0.06a0,0,0,0,1,0,0,0.59,0.59,0,0,0,0,.14,0.59,0.59,0,0,0,.64.38,0.52,0.52,0,0,0,.6-0.52,0.84,0.84,0,0,0-.51-0.68L115.69,68a1.07,1.07,0,0,1-.58-0.83,0.77,0.77,0,0,1,.89-0.73,1.94,1.94,0,0,1,.42,0l0.14,0s0,0,0,0,0,0.15,0,.41c0,0.06,0,.09,0,0.09s0,0,0-.05a0.72,0.72,0,0,0-.06-0.19,0.59,0.59,0,0,0-.52-0.19,0.46,0.46,0,0,0-.54.42,0.81,0.81,0,0,0,.52.66L116,67.77a1.14,1.14,0,0,1,.66.94,0.76,0.76,0,0,1-.38.66,1.23,1.23,0,0,1-.64.14A1.48,1.48,0,0,1,115.1,69.41Z"/><path class="cls-2" d="M119,66.46a1.45,1.45,0,0,1,1.59,1.46,1.56,1.56,0,0,1-1.61,1.59A1.49,1.49,0,0,1,117.38,68,1.54,1.54,0,0,1,119,66.46Zm0.09,2.89A1.11,1.11,0,0,0,120.15,68a1.26,1.26,0,0,0-1.2-1.42,1.12,1.12,0,0,0-1.16,1.27A1.31,1.31,0,0,0,119.06,69.35Z"/><path class="cls-2" d="M121.41,67.64c0-.6,0-0.71,0-0.84a0.18,0.18,0,0,0-.16-0.21h-0.14a0,0,0,0,1,0,0s0,0,.06,0h1a1.32,1.32,0,0,1,.75.17,0.68,0.68,0,0,1,.28.53,1.14,1.14,0,0,1-.49.89c0.33,0.41.61,0.76,0.84,1a0.74,0.74,0,0,0,.45.27h0.14a0,0,0,0,1,0,0s0,0-.1,0h-0.25a0.81,0.81,0,0,1-.43-0.08,2.06,2.06,0,0,1-.55-0.57c-0.17-.21-0.35-0.46-0.43-0.57a0.06,0.06,0,0,0-.05,0h-0.51a0,0,0,0,0,0,0v0.09c0,0.38,0,.68,0,0.84a0.18,0.18,0,0,0,.16.21l0.18,0a0,0,0,0,1,0,0s0,0-.06,0h-0.89s-0.06,0-.06,0a0,0,0,0,1,0,0l0.12,0c0.08,0,.09-0.09.11-0.21a7.92,7.92,0,0,0,0-.84V67.64ZM121.75,68a0.06,0.06,0,0,0,0,.05,1.37,1.37,0,0,0,.44.06,0.52,0.52,0,0,0,.3-0.07,0.69,0.69,0,0,0,.24-0.59,0.67,0.67,0,0,0-.7-0.76l-0.29,0a0,0,0,0,0,0,0V68Z"/><path class="cls-2" d="M124.85,68.33c0,0.38,0,.68,0,0.84a0.18,0.18,0,0,0,.15.21l0.18,0a0,0,0,0,1,0,0s0,0-.06,0h-0.9s-0.06,0-.06,0a0,0,0,0,1,0,0l0.12,0a0.19,0.19,0,0,0,.11-0.21c0-.16,0-0.47,0-0.84V67.64c0-.6,0-0.71,0-0.84a0.18,0.18,0,0,0-.13-0.21h-0.12a0,0,0,0,1,0,0s0,0,.06,0h0.81s0.06,0,.06,0a0,0,0,0,1,0,0H125c-0.11,0-.13.08-0.14,0.21s0,0.23,0,.84v0.69Z"/><path class="cls-2" d="M126.17,67.64c0-.6,0-0.71,0-0.84a0.18,0.18,0,0,0-.16-0.21h-0.14a0,0,0,0,1,0,0s0,0,.06,0h1.43l0.18,0,0.05,0s0,0,0,0,0,0.07,0,.18,0,0.21,0,.26a0,0,0,0,1,0,0s0,0,0-.05a0.42,0.42,0,0,0,0-.14c0-.06-0.07-0.09-0.29-0.12h-0.58s0,0,0,0v1.06s0,0,0,0h0.67a0.31,0.31,0,0,0,.2-0.05,0.16,0.16,0,0,1,.06-0.05s0,0,0,0a2.1,2.1,0,0,0,0,.22c0,0.08,0,.22,0,0.25s0,0.07,0,.07a0,0,0,0,1,0,0,0.35,0.35,0,0,0,0-.13c0-.05-0.05-0.1-0.21-0.12s-0.54,0-.61,0a0,0,0,0,0,0,0v0.32c0,0.13,0,.59,0,0.66,0,0.26.08,0.31,0.48,0.31a1.34,1.34,0,0,0,.4,0A0.3,0.3,0,0,0,127.6,69s0-.06,0-0.06,0,0,0,.06a3.22,3.22,0,0,1-.05.38c0,0.1-.07.1-0.22,0.1h-1.44s-0.06,0-.06,0a0,0,0,0,1,0,0l0.12,0c0.08,0,.09-0.09.11-0.21a7.92,7.92,0,0,0,0-.84V67.64Z"/><path class="cls-2" d="M128.35,69.41c-0.05,0-.06,0-0.06-0.15s0-.35,0-0.41,0-.06,0-0.06a0,0,0,0,1,0,0,0.59,0.59,0,0,0,0,.14,0.59,0.59,0,0,0,.64.38,0.52,0.52,0,0,0,.6-0.52,0.84,0.84,0,0,0-.51-0.68L128.94,68a1.07,1.07,0,0,1-.58-0.83,0.77,0.77,0,0,1,.89-0.73,1.94,1.94,0,0,1,.42,0l0.14,0s0,0,0,0,0,0.15,0,.41c0,0.06,0,.09,0,0.09s0,0,0-.05a0.72,0.72,0,0,0-.06-0.19,0.59,0.59,0,0,0-.52-0.19,0.46,0.46,0,0,0-.54.42,0.81,0.81,0,0,0,.52.66l0.11,0.08a1.14,1.14,0,0,1,.66.94,0.76,0.76,0,0,1-.38.66,1.23,1.23,0,0,1-.64.14A1.48,1.48,0,0,1,128.35,69.41Z"/><path class="cls-2" d="M110.73,37.76c-0.83-.58-0.92.32-0.92,0.32a0.55,0.55,0,0,0-.15.73c0.07-.41.65-0.22,0.65-0.22A1.51,1.51,0,0,1,108.58,40c-0.57,0-.11-1.07-0.11-1.07-0.25.14-.55,0.87-1.15,0.69s-0.47-2-.41-2.3a0.61,0.61,0,0,1,.62-0.63c0.46,0,.12.68,0.12,0.68,0.87,0.18.53-.8,0.53-0.8-0.46-1.11-1.26-.13-1.39.15s-0.22,0-.22,0a1.4,1.4,0,0,1,.78-1.22c-0.15-.4-1,0-1,0V35.15c0.48-.12.26-0.41,0.26-0.41a4.9,4.9,0,0,1-.46-1.49,4.89,4.89,0,0,1-.46,1.49s-0.22.29,0.26,0.41v0.39s-0.81-.42-1,0a1.4,1.4,0,0,1,.78,1.22s-0.1.27-.22,0-0.93-1.26-1.39-.15c0,0-.34,1,0.53.8,0,0-.34-0.67.12-0.68a0.61,0.61,0,0,1,.62.63c0.06,0.31.2,2.13-.41,2.3s-0.91-.55-1.15-0.69c0,0,.46,1-0.11,1.07a1.51,1.51,0,0,1-1.72-1.43s0.58-.19.65,0.22a0.55,0.55,0,0,0-.15-0.73s-0.1-.9-0.92-0.32a1.91,1.91,0,0,0-1.85-.62,10.48,10.48,0,0,1,2.91,3.34,9.44,9.44,0,0,0,3.49.63,9.14,9.14,0,0,0,3.49-.63,10.48,10.48,0,0,1,2.91-3.34A1.91,1.91,0,0,0,110.73,37.76Z"/><path class="cls-2" d="M101.6,46.12v0.24h-0.35a1.09,1.09,0,0,0-1.14,1v8c0,3.32-2.26,5.36-5.93,5.36s-6-2-6-5.32v-8a1.09,1.09,0,0,0-1.14-1H86.73V46.12h4.52v0.24H90.89a1.09,1.09,0,0,0-1.15,1v7.71c0,3.09,1.68,5,4.41,5,3,0,4.84-1.79,4.85-4.71v-8a1.09,1.09,0,0,0-1.14-1H97.51V46.12h4.1Z"/><path class="cls-2" d="M94.18,60.81c-3.72,0-6-2.07-6-5.41v-8a1,1,0,0,0-1.06-.95H86.65V46h4.68v0.4H90.89a1,1,0,0,0-1.07,1v7.71c0,3,1.66,4.9,4.33,4.9,2.93,0,4.76-1.78,4.77-4.63v-8a1,1,0,0,0-1.06-.93H97.43V46h4.26v0.4h-0.43a1,1,0,0,0-1.06.92v8C100.19,58.73,97.88,60.81,94.18,60.81ZM86.81,46.28h0.27a1.18,1.18,0,0,1,1.23,1.11v8c0,3.23,2.25,5.24,5.87,5.24s5.85-2,5.85-5.28v-8a1.17,1.17,0,0,1,1.23-1.08h0.27V46.21H97.59v0.07h0.27a1.16,1.16,0,0,1,1.22,1.09v8c0,3-1.9,4.8-4.93,4.8-2.77,0-4.49-1.94-4.49-5.06V47.39a1.18,1.18,0,0,1,1.23-1.11h0.27V46.21H86.81v0.07Z"/><path class="cls-2" d="M103.74,60.4V60.16h0.32a1.5,1.5,0,0,0,1.62-1.29V47.65a1.5,1.5,0,0,0-1.62-1.29h-0.32V46.12h5.39v0.24h-0.32a1.51,1.51,0,0,0-1.61,1.25V58.89a1.5,1.5,0,0,0,1.61,1.27h0.32V60.4h-5.39Z"/><path class="cls-2" d="M109.21,60.48h-5.56v-0.4h0.4a1.43,1.43,0,0,0,1.54-1.21V47.65a1.43,1.43,0,0,0-1.54-1.21h-0.4V46h5.55v0.4h-0.4a1.43,1.43,0,0,0-1.53,1.17V58.89a1.41,1.41,0,0,0,1.53,1.19h0.4v0.4Zm-5.39-.16H109V60.24h-0.24a1.57,1.57,0,0,1-1.7-1.35V47.61a1.59,1.59,0,0,1,1.69-1.33H109V46.21h-5.22v0.07h0.24a1.57,1.57,0,0,1,1.7,1.37V58.87a1.57,1.57,0,0,1-1.7,1.37h-0.24v0.07Z"/><path class="cls-2" d="M124.3,57L123,60.4h-11.4V60.18l8.87-13.36H113.4A1.18,1.18,0,0,0,112.23,48v0.37H112V45.73a10.86,10.86,0,0,0,2.65.37h5.47a10.37,10.37,0,0,0,2.69-.31V46l-9,13.69h6.54c2.28,0,3.1-1.13,3.77-2.69h0.25Z"/><path class="cls-2" d="M123.07,60.48H111.53V60.13l8.78-13.23H113.4A1.09,1.09,0,0,0,112.31,48v0.45H111.9V45.61l0.11,0a10.86,10.86,0,0,0,2.62.36h5.47a10.46,10.46,0,0,0,2.65-.3l0.12-.06V46l-9,13.56h6.38c2.15,0,3-1,3.69-2.64l0,0h0.43Zm-11.38-.16H123l1.22-3.24H124.1a3.75,3.75,0,0,1-3.82,2.69h-6.69L122.7,46V45.91a12,12,0,0,1-2.61.27h-5.47a11.87,11.87,0,0,1-2.57-.33v2.48h0.09V48a1.26,1.26,0,0,1,1.24-1.3h7.24L111.7,60.2v0.11Z"/><path class="cls-2" d="M135.86,60.4H126.2V60.16h0.33a1.33,1.33,0,0,0,1.37-1.26V47.61a1.29,1.29,0,0,0-1.37-1.25H126.2V46.13h6.95a10.35,10.35,0,0,0,2.66-.37v2.69h-0.26V48.08a1.18,1.18,0,0,0-1.19-1.22h-4.93v6.05h4.06a0.93,0.93,0,0,0,1-1v-0.3h0.26v3.34h-0.26v-0.3a0.92,0.92,0,0,0-.91-1h-4.12v6.05h3.72c2.29,0,3.1-1.15,3.78-2.69h0.26Z"/><path class="cls-2" d="M135.92,60.48h-9.8v-0.4h0.41a1.25,1.25,0,0,0,1.29-1.18V47.61a1.21,1.21,0,0,0-1.29-1.16h-0.41V46h7a10.38,10.38,0,0,0,2.63-.37l0.11,0v2.89h-0.42V48.08a1.11,1.11,0,0,0-1.11-1.14H129.5v5.89h4a0.84,0.84,0,0,0,.88-0.93V51.51h0.42V55h-0.42V54.63a0.84,0.84,0,0,0-.83-0.93h-4v5.89h3.64c2.14,0,3-1,3.7-2.64l0,0h0.43Zm-9.64-.16h9.53l1.25-3.25H137A5,5,0,0,1,135.68,59a3.92,3.92,0,0,1-2.54.8h-3.8V53.54h4.2a1,1,0,0,1,1,1.09v0.22h0.1V51.67h-0.1V51.9a1,1,0,0,1-1,1.09h-4.15V46.77h5a1.26,1.26,0,0,1,1.27,1.3v0.29h0.1v-2.5a11.14,11.14,0,0,1-2.58.34h-6.87v0.07h0.25A1.38,1.38,0,0,1,128,47.61V58.9a1.41,1.41,0,0,1-1.45,1.34h-0.25v0.07Z"/><path class="cls-2" d="M74.66,59.67V45.48A1.52,1.52,0,0,1,76.18,44h0.3V43.75h-5.2V44h0.3a1.52,1.52,0,0,1,1.52,1.5V58.67a1.52,1.52,0,0,1-1.52,1.5h-0.3V60.4h3.78c0-.24,0-0.48-0.05-0.73H74.66Z"/><path class="cls-2" d="M75.15,60.48H71.2v-0.4h0.38A1.45,1.45,0,0,0,73,58.66V45.48a1.45,1.45,0,0,0-1.44-1.41H71.2v-0.4h5.37v0.4H76.18a1.45,1.45,0,0,0-1.44,1.42V59.59h0.35v0.08c0,0.25,0,.49.05,0.73v0.09Zm-3.78-.16H75c0-.19,0-0.38,0-0.57H74.58V45.48a1.61,1.61,0,0,1,1.61-1.58H76.4V43.83h-5V43.9h0.22a1.61,1.61,0,0,1,1.61,1.58V58.67a1.61,1.61,0,0,1-1.61,1.58H71.37v0.07Z"/><path class="cls-2" d="M85.08,56.56H84.85c-0.73,1.81-1.7,3.12-4.22,3.12H77.56c0,0.25,0,.49.05,0.73H83.7Z"/><path class="cls-2" d="M83.75,60.48H77.54V60.41c0-.24,0-0.48-0.05-0.73V59.59h3.15c2.42,0,3.38-1.17,4.15-3.06l0-.05H85.2Zm-6.07-.16h6L85,56.64H84.9c-0.77,1.87-1.8,3.12-4.28,3.12h-3C77.66,59.94,77.67,60.13,77.69,60.32Z"/><rect class="cls-2" x="74.49" y="59.67" width="5.87" height="0.73"/><path class="cls-2" d="M80.44,60.48h-6V59.59h6v0.89Zm-5.87-.16h5.71V59.75H74.58v0.57Z"/><rect class="cls-3" width="208.49" height="105.12"/></svg>