<svg id="Layer_1" data-name="Layer 1" xmlns="http://www.w3.org/2000/svg" viewBox="0 0 208.49 105.12"><defs><style>.cls-1{fill:#fff;}.cls-2{fill:none;}</style></defs><title>DEDE UNDER CNSTRC</title><path class="cls-1" d="M68.37,43.7H65.2l-1.05,1.59c-0.84,1.24-1.89,2.78-3.18,4.64l-2.42-3.36h0L56.64,43.7H53.26v0a1.14,1.14,0,0,0-1,1.37V61.73a0.14,0.14,0,0,0,.17.14h2.62a1.12,1.12,0,0,0,1.18-1.35V50.32l3.38,4.87a0.51,0.51,0,0,0,.38.14h1.82a0.66,0.66,0,0,0,.45-0.14l3.29-4.8h0V61.73c0,0.09.06,0.14,0.19,0.14h2.6a1.12,1.12,0,0,0,1.18-1.35V44.78a1,1,0,0,0-1.18-1.09"/><path class="cls-1" d="M79.49,61.91a8.25,8.25,0,0,1-2.6.37c-2,0-3.12-.74-3.12-3.44V44.19c0-.47.17-0.47,0.54-0.47h2.53c0.37,0,.55.07,0.55,0.45V58.09c0,0.82.15,1.14,0.92,1.14,0.27,0,.69,0,0.92-0.07s0.4,0,.42.3l0.22,1.88c0.07,0.37,0,.4-0.37.57"/><path class="cls-1" d="M87.45,62.28c-4.28,0-6.19-2.5-6.19-6.78s2.38-6.81,6.24-6.81c4.16,0,6.26,2.53,6.26,6.76s-2.05,6.83-6.31,6.83m0.1-10.55c-1.76,0-2.57,1.44-2.57,3.71,0,2.48.72,3.79,2.5,3.79S90,57.6,90,55.52s-0.62-3.79-2.48-3.79"/><path class="cls-1" d="M100.58,67.67c-0.37.07-.45,0-0.52-0.32L99.73,65c-0.07-.37,0-0.37.32-0.45,1.86-.32,3.79-0.84,3.79-2.77V61.61a10,10,0,0,1-2.9.37c-4,0-5.7-2.62-5.7-6.49s2-6.76,6.51-6.76a13,13,0,0,1,5.22.94,0.72,0.72,0,0,1,.5.77V60.67c0,4.65-2.48,6.41-6.91,7m1.16-8.76a7.23,7.23,0,0,0,2.13-.32V52.05a7.33,7.33,0,0,0-1.91-.27c-1.81,0-3,1-3,3.64s1,3.49,2.75,3.49"/><path class="cls-1" d="M112.26,47.64a2,2,0,0,1-2.05-2,2.07,2.07,0,0,1,4.13,0,2,2,0,0,1-2.08,2M113.47,62h-2.53c-0.37,0-.52-0.07-0.52-0.45V49.45c0-.37.15-0.45,0.52-0.45h2.53c0.47,0,.55.07,0.55,0.45V61.56c0,0.37-.07.45-0.55,0.45"/><path class="cls-1" d="M121.59,62.28a10.82,10.82,0,0,1-5.22-1.21,0.4,0.4,0,0,1-.15-0.64l0.72-1.71c0.17-.37.3-0.45,0.67-0.27a12,12,0,0,0,3.84.89c1.19,0,1.61-.47,1.61-1.09s-0.59-1-2.25-1.66c-2.62-1-4.09-2-4.09-4s1.56-3.89,4.83-3.89a11,11,0,0,1,4.36.84c0.37,0.17.35,0.3,0.22,0.69l-0.62,1.58c-0.12.37-.25,0.37-0.62,0.25a10.69,10.69,0,0,0-3.27-.57,1.08,1.08,0,0,0-1.26.94c0,0.67.55,1,2.05,1.56,2.38,0.92,4.33,1.78,4.33,4.31s-2.08,4-5.15,4"/><path class="cls-1" d="M137.14,61.86a11.93,11.93,0,0,1-3.39.42c-2.85,0-4-1.21-4-3.57V51.66h-1.73a0.38,0.38,0,0,1-.42-0.47V49.85c0-.32,0-0.4.4-0.5l1.83-.42L130,46.6A0.6,0.6,0,0,1,130.6,46l2.28-.74c0.3-.07.5,0,0.5,0.45V49h2.72c0.37,0,.4.15,0.4,0.42v1.76c0,0.32,0,.47-0.4.47h-2.72v6.29c0,1,.47,1.26,1.44,1.26a15.22,15.22,0,0,0,1.86-.17c0.27,0,.4,0,0.42.25l0.3,2.08c0,0.22.12,0.37-.25,0.5"/><path class="cls-1" d="M141.22,47.64a2,2,0,0,1-2.05-2,2.07,2.07,0,0,1,4.13,0,2,2,0,0,1-2.08,2M142.44,62h-2.53c-0.37,0-.52-0.07-0.52-0.45V49.45c0-.37.15-0.45,0.52-0.45h2.53c0.47,0,.55.07,0.55,0.45V61.56c0,0.37-.07.45-0.55,0.45"/><path class="cls-1" d="M154.77,58.49c0.42-.17.52-0.15,0.64,0.22l0.69,1.86c0.17,0.32.2,0.5-.17,0.69a9.88,9.88,0,0,1-4.58,1c-3.89,0-5.94-2.25-5.94-6.73,0-4.26,2.38-6.86,6.16-6.86a8.8,8.8,0,0,1,3.91.84c0.42,0.2.45,0.3,0.27,0.69l-0.69,1.91c-0.17.37-.3,0.35-0.77,0.22a8.28,8.28,0,0,0-2.45-.45c-2,0-2.7,1.68-2.7,3.64s0.59,3.52,2.77,3.52a8.41,8.41,0,0,0,2.85-.57"/><rect class="cls-2" width="208.49" height="105.12"/></svg>