<svg id="Layer_1" data-name="Layer 1" xmlns="http://www.w3.org/2000/svg" viewBox="0 0 208.49 105.12"><defs><style>.cls-1{fill:#fff;}.cls-2{fill:none;}</style></defs><title>DEDE UNDER CNSTRC</title><path class="cls-1" d="M66.32,43.66H63.19l-1,1.57C61.32,46.46,60.28,48,59,49.83L56.6,46.5h0l-1.92-2.83H51.36v0a1.13,1.13,0,0,0-1,1.36V61.52a0.14,0.14,0,0,0,.16.14h2.6a1.11,1.11,0,0,0,1.17-1.33V50.22L57.66,55a0.5,0.5,0,0,0,.37.14h1.8A0.66,0.66,0,0,0,60.28,55l3.25-4.75h0V61.52c0,0.09.06,0.14,0.19,0.14h2.58a1.11,1.11,0,0,0,1.17-1.33V44.74A1,1,0,0,0,66.32,43.66Z"/><path class="cls-1" d="M88.59,50.68l0,0.42a0.68,0.68,0,0,1-.77.74H85.24q-1.5,0-1.5,1.19v7.89a0.66,0.66,0,0,1-.75.75H81a0.66,0.66,0,0,1-.75-0.75V53.42q0-4.78,5.13-4.78a14.52,14.52,0,0,1,2.18.12,1.28,1.28,0,0,1,1.08,1.48v0.44Z"/><path class="cls-1" d="M158.11,50.68l0,0.42a0.68,0.68,0,0,1-.77.74h-2.55q-1.5,0-1.5,1.19v7.89a0.66,0.66,0,0,1-.75.75h-2a0.66,0.66,0,0,1-.75-0.75V53.42q0-4.78,5.13-4.78a14.52,14.52,0,0,1,2.18.12,1.28,1.28,0,0,1,1.08,1.48v0.44Z"/><path class="cls-1" d="M148.42,52.49a3.41,3.41,0,0,1-1,2.69,4.81,4.81,0,0,1-1.45.89,12.43,12.43,0,0,1-1.83.42l-4.1.73a1.71,1.71,0,0,0,1.22,1.08,7.41,7.41,0,0,0,1.73.14q1.12,0,2.36-.12l1.54-.09a0.7,0.7,0,0,1,.75.73l0,1.12a1.3,1.3,0,0,1-1.29,1.43,29,29,0,0,1-3.79.16q-3.35,0-4.9-1.66a7.13,7.13,0,0,1-1.56-5q0-3.35,1.51-4.9t4.83-1.56Q148.42,48.51,148.42,52.49Zm-3.58,0q0-1-2.15-1a3.41,3.41,0,0,0-2.27.56,3.13,3.13,0,0,0-.66,2.2l3.18-.59a7,7,0,0,0,1.43-.35A0.86,0.86,0,0,0,144.84,52.53Z"/><path class="cls-1" d="M100.61,59.84a1.37,1.37,0,0,1-1.26,1.47,25.36,25.36,0,0,1-4.59.35q-5.95,0-5.95-4.12,0-2.81,3.63-3.72l2.83-.54a9.09,9.09,0,0,0,1.8-.44l0,0a1,1,0,0,0-.79-1,5.44,5.44,0,0,0-1.47-.14q-1.65,0-2.93.13l-1.28.13s-0.07,0-.12,0a0.68,0.68,0,0,1-.7-0.68s0-.41,0-1.1q0-1.31,2.11-1.59,0.35,0,3.11,0,5.66,0,5.66,4.85v6.48Zm-3.53-1.38V55.94l-3.79.72a0.89,0.89,0,0,0-.89.89q0,1,2.54,1A13.12,13.12,0,0,0,97.08,58.46Z"/><path class="cls-1" d="M126.79,57.47q0,4.19-5.64,4.19A26.09,26.09,0,0,1,117,61.4a1.47,1.47,0,0,1-1.24-1.69V59.3a2.1,2.1,0,0,0,0-.45,0.63,0.63,0,0,1,.7-0.7l0.37,0,1,0.14a22.32,22.32,0,0,0,3,.19q2.32,0,2.32-.84,0-.44-1.92-1L118.76,56a6.23,6.23,0,0,1-2.27-1.1,3,3,0,0,1-1-2.39q0-4,5.59-4,2.65,0,3,.07Q126,48.91,126,50.4q0,0.14,0,.82a0.62,0.62,0,0,1-.7.68h-0.09l-0.23,0L124,51.74a21.82,21.82,0,0,0-2.74-.14q-2.25,0-2.25.72,0,0.52,2,1a17.26,17.26,0,0,1,3.72,1.15A3.33,3.33,0,0,1,126.79,57.47Z"/><path class="cls-1" d="M78.49,61.25a11.54,11.54,0,0,1-3.28.41c-2.76,0-3.83-1.17-3.83-3.45V51.38H69.7a0.36,0.36,0,0,1-.41-0.46V49.63c0-.31,0-0.38.38-0.48l1.77-.41,0.17-2.25a0.58,0.58,0,0,1,.55-0.6l2.2-.72c0.29-.07.48,0,0.48,0.43v3.21h2.64c0.36,0,.38.14,0.38,0.41v1.7c0,0.31,0,.46-0.38.46H74.85v6.09c0,0.93.46,1.22,1.39,1.22a14.74,14.74,0,0,0,1.8-.17c0.26,0,.38,0,0.41.24l0.29,2C78.76,61,78.85,61.13,78.49,61.25Z"/><path class="cls-1" d="M106,51.77v9.47c0,0.36,0,.43-0.5.43H103c-0.36,0-.5-0.07-0.5-0.43V51A1.63,1.63,0,0,1,104,49a28.94,28.94,0,0,1,3.47-.24c4.46,0,6.52,1.68,6.52,6.21v6.25c0,0.36,0,.43-0.5.43H111c-0.36,0-.5-0.07-0.5-0.43V54.76c0-2.08-.62-3.12-2.88-3.12A9.31,9.31,0,0,0,106,51.77Z"/><path class="cls-1" d="M135.54,47a11.36,11.36,0,0,0-1.63-.17c-1.08,0-1.32.48-1.32,1.13v1.08h2.88c0.29,0,.36.07,0.36,0.38v1.85c0,0.26,0,.38-0.41.38h-2.83v9.54c0,0.38-.12.43-0.48,0.43h-2.49c-0.31,0-.5,0-0.5-0.46V51.69h-1.75c-0.36,0-.36-0.14-0.36-0.41V49.92a0.44,0.44,0,0,1,.43-0.5l1.68-.38V47.67c0-2.2,1.15-3.76,3.91-3.76a13.94,13.94,0,0,1,3.12.38c0.36,0.12.34,0.24,0.26,0.5l-0.41,2A0.3,0.3,0,0,1,135.54,47Z"/><rect class="cls-2" width="208.49" height="105.12"/></svg>