<svg id="Layer_1" data-name="Layer 1" xmlns="http://www.w3.org/2000/svg" viewBox="0 0 208.49 105.12"><defs><style>.cls-1{fill:#fff;}.cls-2{fill:none;}</style></defs><title>DEDE UNDER CNSTRC</title><path class="cls-1" d="M94.5,70.8c0.52-.08,1-0.15,1.55-0.21l1.56-.18,1.57-.14,1.57-.11C102.84,70,104.94,70,107,70s4.19,0.1,6.28.26l1.57,0.13,1.56,0.16c1,0.11,2.08.25,3.11,0.39-1-.09-2.08-0.21-3.13-0.28l-0.78-.07-0.78-.06-1.57-.1-1.57-.08-1.57-.06c-1,0-2.09-.06-3.14-0.06q-3.14,0-6.27.12l-1.57.08-1.57.11c-1,.07-2.09.17-3.13,0.28"/><path class="cls-1" d="M108.87,71.16c0,0.24-2.31.34-2.56,0.34s-2.95-.18-2.95-0.42,2.71,0,2.95,0,2.56-.21,2.56,0"/><path class="cls-1" d="M108.87,71.16h0s0,0,0,0v0l0,0,0,0-0.09,0-0.17.05-0.35.07-0.7.09-0.7.05-0.35,0h-0.36c-0.47,0-.94-0.07-1.4-0.13l-0.7-.1-0.35-.07-0.17-.05a0.24,0.24,0,0,1-.15-0.1h0a0.06,0.06,0,0,1,.05-0.06l0.08,0,0.17,0H104l0.7,0,1.39,0.1a4.3,4.3,0,0,0,.69,0l0.7,0h0.7l0.35,0,0.17,0,0.08,0a0.08,0.08,0,0,1,.06.06m0,0a0.08,0.08,0,0,0-.06-0.06l-0.08,0-0.17,0h-0.35l-0.7,0-0.7,0-0.35,0a1.92,1.92,0,0,1-.35,0L104.72,71,104,71h-0.35l-0.17,0-0.08,0a0.06,0.06,0,0,0-.05.06h0a0.24,0.24,0,0,0,.14.08l0.17,0L104,71.26l0.7,0.08,1.4,0.1a6.77,6.77,0,0,0,.7,0l0.7,0,0.7-.06,0.34-.05a0.93,0.93,0,0,0,.31-0.11"/><path class="cls-1" d="M70.69,59.16c-0.19.08-.25,0-0.24-0.24a0.11,0.11,0,0,0,0-.07,1.28,1.28,0,0,1-.28-0.71A3.7,3.7,0,0,1,70,57.5c0-.65,0-1.3,0-2a17.58,17.58,0,0,0,0-1.88,2.29,2.29,0,0,0-.65-1.53,2.39,2.39,0,0,0-.4-0.24,7,7,0,0,1,.34-0.64,3.5,3.5,0,0,0,.66-0.91c0-.14.09-0.28,0.12-0.42a12.71,12.71,0,0,0,0-3,6.44,6.44,0,0,1,.22-2.34,4,4,0,0,1,.9-1.62,3.25,3.25,0,0,1,.81-0.59,4,4,0,0,1,1-.33c0.3-.06.63,0,0.94-0.09a6.36,6.36,0,0,1,2.06.26c0.73,0.15,1.46.36,2.19,0.58a6.5,6.5,0,0,1,1,.48c0.39,0.2.78,0.39,1.13,0.62a5,5,0,0,1,1.41,1.2,4.91,4.91,0,0,1,.67,1.06,4.3,4.3,0,0,1,.24,1.3c0,0.43-.09.86-0.08,1.3a10.12,10.12,0,0,0,.14,1.45,2.71,2.71,0,0,0,.28.86,1.25,1.25,0,0,0,.73.55c0.23,0.07.24,0.12,0.09,0.25-0.34.28-.69,0.55-1,0.85a0.38,0.38,0,0,0-.1.28c0,0.49,0,1,0,1.48,0,0.16,0,.32,0,0.49a0.43,0.43,0,0,1,0,.22,0.4,0.4,0,0,0,0,.35,1.11,1.11,0,0,1,0,.47,3.51,3.51,0,0,1-.11.45,1.78,1.78,0,0,1-.46.89,0.25,0.25,0,0,0,0,.12,0.25,0.25,0,0,1,0,.12,0.79,0.79,0,0,0-.33.42c-0.32.32-.66,0.63-1,1a5.49,5.49,0,0,1-1.44.89,6.92,6.92,0,0,1-1.72.59c-1,.19-2,0.41-2.95.54a4.25,4.25,0,0,1-1.74-.13,3.92,3.92,0,0,1-1.41-.72A0.7,0.7,0,0,1,71,59.8a0.45,0.45,0,0,0-.24-0.26,0.7,0.7,0,0,1-.1-0.38m7.8-10.56a7.66,7.66,0,0,0-.19-2.3,0.45,0.45,0,0,0-.05-0.15,2.66,2.66,0,0,0-1.34-1.06,2.55,2.55,0,0,0-2.21,0,0.58,0.58,0,0,0-.35.31,4.37,4.37,0,0,0-.28.86c0,0.61,0,1.23,0,1.84s0.06,1.09.09,1.63a0.57,0.57,0,0,1,0,.29,0.62,0.62,0,0,0,.23.76c0.27,0.28.54,0.55,0.8,0.83,0.09,0.1.2,0.24,0,.34a3.13,3.13,0,0,0-1,1.06,0.64,0.64,0,0,0-.12.33c0,0.48,0,1,0,1.43a6.39,6.39,0,0,0,.18,2.55,1.07,1.07,0,0,0,1,.76,4.88,4.88,0,0,0,1,0,2.67,2.67,0,0,0,1.66-.69,1.21,1.21,0,0,0,.38-0.57c0-.7,0-1.39,0-2.08,0-.5,0-1,0-1.49A0.79,0.79,0,0,0,78,52.54c-0.27-.26-0.58-0.5-0.87-0.76-0.09-.08-0.06-0.15,0-0.21a4.52,4.52,0,0,0,.6-0.4,1.72,1.72,0,0,0,.5-0.58,4,4,0,0,0,.19-1c0-.31,0-0.63,0-1m0.9,8.15a2.09,2.09,0,0,0,.06.27,0.52,0.52,0,0,0,.13.24,0.38,0.38,0,0,0,.25,0A0.24,0.24,0,0,0,80,57.17a0.78,0.78,0,0,0-.53-0.45l0,0M72.28,43.26l0.22,0.27,0.25-.16a2.58,2.58,0,0,0-.27-0.26,0.89,0.89,0,0,0-.2.15M72,56.43a0.3,0.3,0,0,0,0,.14,1.57,1.57,0,0,0,.23.23,0.16,0.16,0,0,0,.13,0,0.12,0.12,0,0,0,0-.09L72,56.43m0.91,1.41,0-.08a0.72,0.72,0,0,0-.15-0.07,0.11,0.11,0,0,0,0,.22,0.36,0.36,0,0,0,.15-0.07"/><path class="cls-1" d="M101.18,57.89l-0.67,0a5.1,5.1,0,0,1-.52,0,5.57,5.57,0,0,1-.67-0.15c-0.28-.08-0.53-0.18-0.79-0.28a0.69,0.69,0,0,0-.5,0c-0.33.12-.65,0.27-1,0.37s-0.68.16-1,.24a11.08,11.08,0,0,1-2.18.26,10.42,10.42,0,0,1-1.86-.08c-0.23,0-.49,0-0.71-0.1s-0.26-.09,0-0.23c0,0,0,0,0-.07a1.79,1.79,0,0,0-.22.09,0.66,0.66,0,0,1-.58.06l-0.88-.31a1.29,1.29,0,0,1-.28-0.14c-0.29-.21-0.59-0.42-0.86-0.64A1.58,1.58,0,0,1,88,56.46a1.16,1.16,0,0,1-.08-0.4,0.14,0.14,0,0,0,0-.11,0.24,0.24,0,0,1-.19-0.29,3.69,3.69,0,0,1,.13-1.5,5,5,0,0,0,.07-0.94,1.92,1.92,0,0,0-.26-1,0.83,0.83,0,0,0-.3-0.28c-0.24-.16-0.5-0.31-0.76-0.46s-0.14-.16,0-0.22a4,4,0,0,0,1-.74,0.26,0.26,0,0,0,.09-0.2c0-.33-0.08-0.67-0.07-1a10.47,10.47,0,0,1,.12-1.54A2.73,2.73,0,0,1,88.11,47a3.17,3.17,0,0,1,.28-0.44,1.68,1.68,0,0,1,.27-0.22c-0.12-.18.2-0.26,0.35-0.37a4.53,4.53,0,0,1,1.72-.77c0.3-.08.66-0.08,1-0.15A7.24,7.24,0,0,1,93.26,45c0.69,0,1.39.08,2.08,0.16a7.18,7.18,0,0,1,1.19.29,8.1,8.1,0,0,1,1.15.41,0.69,0.69,0,0,0,.66,0,7.07,7.07,0,0,1,1.09-.33,9,9,0,0,1,1.16-.13c0.23,0,.29,0,0.21.16a3.23,3.23,0,0,0-.34,2.13c0.05,0.58,0,1.16.07,1.75,0,0.13-.1.19-0.33,0.19l-2.6,0c-0.22,0-.2-0.1-0.2-0.18a3.67,3.67,0,0,0,0-.86A2.2,2.2,0,0,0,97,48a3.51,3.51,0,0,0-.93-0.66,1.7,1.7,0,0,0-.51-0.16A4.17,4.17,0,0,0,93.84,47h0a3.13,3.13,0,0,0-1,.2,0.71,0.71,0,0,0-.51.39,3.9,3.9,0,0,0-.4,2.69,1,1,0,0,0,.56.63l0.78,0.48c0.1,0.06,0,.1-0.07.13a3,3,0,0,0-1.16.83,0.34,0.34,0,0,0-.08.21c0,0.65,0,1.3,0,2,0,0.08,0,.17,0,0.25a0.33,0.33,0,0,0,0,.14C91.91,55,92,55.11,92,55.22a5.12,5.12,0,0,0,.25.6,0.81,0.81,0,0,0,.33.19,2.24,2.24,0,0,0,.32.11,0.53,0.53,0,0,1,.44.23,0.54,0.54,0,0,0,.28,0,1.43,1.43,0,0,1,.53-0.08,10.61,10.61,0,0,0,1.44-.14,2.3,2.3,0,0,0,1-.49A0.3,0.3,0,0,1,97,55.6a0.57,0.57,0,0,0,.23,0,1.45,1.45,0,0,0,.26-0.12,0.79,0.79,0,0,0-.21-0.1c-0.21,0-.33-0.16-0.21-0.32a0.49,0.49,0,0,0,.08-0.36c0-.25,0-0.5,0-0.75A0.29,0.29,0,0,0,97,53.81a0.18,0.18,0,0,1,.07-0.31c0.08,0,.07-0.08,0-0.14A1.4,1.4,0,0,1,96.7,53a0.34,0.34,0,0,0-.33-0.14,2,2,0,0,0-.85.13,3.1,3.1,0,0,1-.47.14A0.57,0.57,0,0,1,95,52.84a2.55,2.55,0,0,1,.37-0.53,3.39,3.39,0,0,1,.3-0.27,2.31,2.31,0,0,1,1.16-.53,3.23,3.23,0,0,1,.7-0.09,6.55,6.55,0,0,1,.94.13,2.73,2.73,0,0,0,.78,0,4.57,4.57,0,0,1,1.48-.07,3.48,3.48,0,0,1,1.4.49,1.22,1.22,0,0,1,.66.92c0,0.1-.1.14-0.26,0.13a1.5,1.5,0,0,1-.3-0.05,2.88,2.88,0,0,0-1.09-.06,0.37,0.37,0,0,0-.4.3,20.67,20.67,0,0,1,0,2.07,16.67,16.67,0,0,0,.09,1.78,2.43,2.43,0,0,0,.4.84m-9.91-.61c0.29,0,.31,0,0.18-0.18a0.2,0.2,0,0,1,0-.08c0-.15-0.1-0.15-0.35-0.09a5.06,5.06,0,0,1-.51.06,0.78,0.78,0,0,0-.27.05,0.81,0.81,0,0,0-.27.26,0.29,0.29,0,0,0,.17.16,0.28,0.28,0,0,0,.15,0,1.36,1.36,0,0,1,.77-0.2,0.4,0.4,0,0,1,.16.06l-0.58.09a0.22,0.22,0,0,0,.1.08c0.33,0,.43,0,0.47-0.17m1-.35L92,56.77a1.36,1.36,0,0,0-.21.23,0.25,0.25,0,0,0,.18.09,2,2,0,0,0,.35-0.17m6.56-2.68a1.17,1.17,0,0,0-.26-0.1,0.47,0.47,0,0,0-.17.07,1.11,1.11,0,0,0,.21.1,0.87,0.87,0,0,0,.22-0.07m1.07,2.94-0.07,0,0.28,0.16a0.45,0.45,0,0,0,.13,0,0.15,0.15,0,0,0-.05-0.08l-0.29-.1m-7.32-.42a0.3,0.3,0,0,0,.1-0.11,0.48,0.48,0,0,0-.12-0.1,0.23,0.23,0,0,0-.09.07,0.57,0.57,0,0,0,.11.14m6.12-2.16H98.68a0.14,0.14,0,0,0,0,.09,0.4,0.4,0,0,0,.11.09,0.19,0.19,0,0,0,.08-0.08,0.36,0.36,0,0,0-.1-0.11"/><path class="cls-1" d="M130.09,52.83a0.34,0.34,0,0,1,.26.39c0,0.71-.06,1.42-0.07,2.12a3.54,3.54,0,0,0,.06.79,2.38,2.38,0,0,0,1.27,1.71,2.74,2.74,0,0,0,.86.27,7.78,7.78,0,0,0,1.44.11,0.83,0.83,0,0,0,.74-0.33,3.12,3.12,0,0,1,.23-0.26,3.35,3.35,0,0,0,.42-1.73,2.78,2.78,0,0,0,0-.58,0.2,0.2,0,0,1,.25-0.22c0.81,0.07,1.61-.41,2.42-0.36a0.23,0.23,0,0,1,.24.26c0,1.5,0,3,0,4.49,0,0.24,0,.49,0,0.73s0.1,0.42.13,0.64a0.49,0.49,0,0,1,0,.32,0.27,0.27,0,0,0,.08.4,1.21,1.21,0,0,1,.23.32,0.35,0.35,0,0,1,0,.26,0.23,0.23,0,0,1-.22,0c-0.41-.2-0.83-0.39-1.22-0.63a3.81,3.81,0,0,1-.65-0.57,0.37,0.37,0,0,0-.43-0.09,1.43,1.43,0,0,1-1,.14,0.15,0.15,0,0,0-.11,0,1.41,1.41,0,0,1-1,0l-0.39,0-0.41-.07c-0.19,0-.39,0-0.58-0.09a3.3,3.3,0,0,1-.41-0.15,2.17,2.17,0,0,0-.25-0.1l-0.85-.18a6.12,6.12,0,0,1-1.38-.58c-0.19-.09-0.35-0.22-0.54-0.32a0.62,0.62,0,0,0-.27,0,0.43,0.43,0,0,0-.16.06,4,4,0,0,1-2.67,0,1.46,1.46,0,0,1-.26-0.15l-0.23-.11-0.29-.13a2.67,2.67,0,0,1-1.06-1,1.53,1.53,0,0,1-.15-0.7,0.31,0.31,0,0,1,.23-0.07,1.46,1.46,0,0,1,.31.11L125,57.6a0.65,0.65,0,0,1,.12,0,0.66,0.66,0,0,0,.73,0,0.62,0.62,0,0,0,.34-0.44c0-.58-0.05-1.17-0.08-1.75,0-.38,0-0.76,0-1.14s0-1,0-1.43a0.78,0.78,0,0,1,.09-0.2,0.21,0.21,0,0,0,0-.17,5.88,5.88,0,0,0-.64-0.73,2.22,2.22,0,0,0-.6-0.33c-0.15-.06-0.15-0.12-0.05-0.2a4,4,0,0,1,.45-0.29,1.42,1.42,0,0,0,.9-1.34c0-.23,0-0.45,0-0.68a9.82,9.82,0,0,1,0-1.75,4.69,4.69,0,0,0-.11-1.36,0.57,0.57,0,0,0-.77-0.25,3.78,3.78,0,0,0-.86.29,0.5,0.5,0,0,1-.34,0,0.26,0.26,0,0,1,0-.23,1.79,1.79,0,0,0,.05-0.25,0.28,0.28,0,0,1,.2-0.33,0.53,0.53,0,0,0,.2-0.28,1.88,1.88,0,0,1,.84-0.73,4.21,4.21,0,0,1,1.11-.42,4.05,4.05,0,0,1,1.67-.1c0.21,0,.41.09,0.61,0.14a0.61,0.61,0,0,0,.4-0.07,10.61,10.61,0,0,1,2.3-.9,0.57,0.57,0,0,0,.19-0.05,4.48,4.48,0,0,1,2-.53c0.31,0,.62-0.08.91-0.09a2.82,2.82,0,0,1,1.27.17,0.43,0.43,0,0,0,.56-0.13,4.34,4.34,0,0,1,.74-0.51c0.35-.21.71-0.42,1.07-0.62a1.27,1.27,0,0,1,.37-0.08c0,0.13-.05.25-0.09,0.38a3.83,3.83,0,0,0-.3.89c0,1,0,2,0,2.95,0,0.52,0,1,0,1.54,0,0,0,0,0,.07,0,0.57-.17.23-0.74,0.25-0.41,0-.83.11-1.25,0.16l-0.69.08A0.2,0.2,0,0,1,135.3,47c0-.5-0.11-0.57-0.15-1.07a0.85,0.85,0,0,0-.37-0.59,1.72,1.72,0,0,0-1.33-.36,10.5,10.5,0,0,0-1.59.29,2.49,2.49,0,0,0-1,.63,2,2,0,0,0-.57,1.75c0,0.38.07,0.76,0.09,1.14a1.65,1.65,0,0,1-.08.37,0.28,0.28,0,0,0,0,.12,1,1,0,0,1,.07.27c0,0.35.2,0.51,0.65,0.49l2.5-.1c0.2,0,.39-0.05.59-0.07a0.21,0.21,0,0,1,.27.23c0,0.78-.67,1.56-0.67,2.31a0.2,0.2,0,0,1-.24.21l-1.95-.05a6.64,6.64,0,0,0-1,0,1.31,1.31,0,0,0-.42.27m-2.26-4.59a0.49,0.49,0,0,0-.14.17,0.44,0.44,0,0,0,.14.13A0.46,0.46,0,0,0,128,48.4a0.41,0.41,0,0,0-.15-0.16m9.75,11.15a0.73,0.73,0,0,0-.22-0.17,0.41,0.41,0,0,0-.18.11,0.6,0.6,0,0,0,.18.14,0.51,0.51,0,0,0,.22-0.08m-10,.12,0.07,0a0.38,0.38,0,0,0-.34-0.26l0.27,0.29m9.5-13.31,0.2-.21a0.24,0.24,0,0,0-.11-0.06,0.57,0.57,0,0,0-.17.14,0.5,0.5,0,0,0,.09.13"/><path class="cls-1" d="M120.37,56.73a1.8,1.8,0,0,1,.09.35,2.76,2.76,0,0,0,.21,1.14,1.1,1.1,0,0,0,.2.48c0.12,0.11,0,.2-0.19.14l-1.53-.46a2.21,2.21,0,0,1-.49-0.26,0.51,0.51,0,0,0-.54-0.07,2.83,2.83,0,0,1-1.1.21h-0.58c-0.53,0-1.07,0-1.61,0a2.42,2.42,0,0,1-.41-0.09,0.93,0.93,0,0,0-.21,0,7.4,7.4,0,0,1-1.59-.2l-0.3-.07a3.07,3.07,0,0,1-1.09-.35,0.44,0.44,0,0,0-.23,0,8,8,0,0,1-1,.31,4.37,4.37,0,0,1-1.41,0,1.3,1.3,0,0,0-.26,0,2.52,2.52,0,0,1-1-.21,2.28,2.28,0,0,1-1.1-.7,0.92,0.92,0,0,1-.15-0.54c0-.11.24-0.15,0.46-0.06a2.4,2.4,0,0,0,.78.13c0.66,0.05.78-.06,0.83-0.42a2.94,2.94,0,0,0-.06-0.56,0.91,0.91,0,0,1,.07-0.27,0.1,0.1,0,0,0,0-.06,0.9,0.9,0,0,1,.05-0.69,5.49,5.49,0,0,0,.08-0.87c0-.21,0-0.42,0-0.63a1.19,1.19,0,0,0-.29-0.75,1.69,1.69,0,0,0-.53-0.36c-0.18-.1-0.38-0.19-0.56-0.29a0.08,0.08,0,0,1,0-.12,4.78,4.78,0,0,0,1.08-.72,0.27,0.27,0,0,0,.09-0.22c0-.45,0-0.9,0-1.35,0-.2.13-0.4,0.16-0.61a3.8,3.8,0,0,0,0-.65,0.56,0.56,0,0,0-.17-0.54,0.12,0.12,0,0,1,0-.12,0.27,0.27,0,0,0-.24-0.24,2.23,2.23,0,0,0-1.13,0c-0.15.06-.32,0.1-0.52,0.16a0.49,0.49,0,0,1,0-.13,1.32,1.32,0,0,1,.54-0.84,3,3,0,0,1,.67-0.41,5.89,5.89,0,0,1,.83-0.24c0.1,0,.23,0,0.33,0a4.17,4.17,0,0,1,1.26,0c0.08,0,.15.05,0.23,0.06a1.2,1.2,0,0,0,.4,0,4.3,4.3,0,0,1,1.62-.21,4.08,4.08,0,0,1,.72.09,3.83,3.83,0,0,1,.77.27,1.42,1.42,0,0,1,.8.91,0.6,0.6,0,0,1-.06.25,2.62,2.62,0,0,1-.38-0.08,2,2,0,0,0-1-.05,0.54,0.54,0,0,0-.55.37c0,0.14-.06.27-0.08,0.41a0.23,0.23,0,0,0,0,.1,4.35,4.35,0,0,1,0,1.55,3.11,3.11,0,0,0,.07,1,2.4,2.4,0,0,0,.28.76,1.55,1.55,0,0,0,.75.48c0.18,0.07.18,0.12,0,.21l-1,.6a0.23,0.23,0,0,0-.11.12,3.44,3.44,0,0,0-.09,1.12,3.4,3.4,0,0,1,0,1.19,0.72,0.72,0,0,1-.14.24,0.34,0.34,0,0,1,.11.24c-0.1.14,0,.26,0.11,0.37a2,2,0,0,0,.37.3,4.21,4.21,0,0,0,1.63.58,9.87,9.87,0,0,0,1.63.05,0.53,0.53,0,0,0,.17,0c0.32-.12.41-0.11,0.53,0.13l0.41,0v0l-0.2-.08c-0.18-.07-0.2-0.12-0.07-0.2h0a0.4,0.4,0,0,0,.36-0.48c0-.4,0-0.51.06-0.91,0-.15,0-0.3.05-0.44a0.27,0.27,0,0,1,.33-0.17c0.83,0,1.66-.25,2.49-0.23,0.17,0,.23.06,0.23,0.17,0,0.64,0,1.29,0,1.93a6,6,0,0,1,0,.65,0.42,0.42,0,0,1-.12.16h0m-8.19-.91a0.84,0.84,0,0,0-.13-0.12,0.3,0.3,0,0,0-.14,0,0.07,0.07,0,0,0-.06.06,0.23,0.23,0,0,0,.12.07,1.34,1.34,0,0,0,.21,0,0.15,0.15,0,0,0,0,.12,0.84,0.84,0,0,0,.27.09,0.36,0.36,0,0,0,.14-0.06,1,1,0,0,0-.2-0.12,1.06,1.06,0,0,0-.24,0m-2,1.28,0,0a3.16,3.16,0,0,1-.44,0,1,1,0,0,0-.62,0c-0.16.09-.24,0.22,0,0.35a0.44,0.44,0,0,0,.14.08,0.37,0.37,0,0,0,.13-0.06l0.29-.14h0.07c0,0.19.19,0.18,0.37,0.19s0.17,0,.08-0.1a0.29,0.29,0,0,1-.06-0.1h0.2l0.15,0,0.07,0-0.28-.29m1.11,0.31,0.17-.1L111.06,57a0.47,0.47,0,0,0-.2.18,0.68,0.68,0,0,0,.46.18m3.45-1a0.33,0.33,0,0,0-.1.13,0.15,0.15,0,0,0,.09.12,1.65,1.65,0,0,0,.31,0L115,56.57l-0.18-.13m-3,.69a0.38,0.38,0,0,0,.12-0.13,2.82,2.82,0,0,0-.28-0.18,0.27,0.27,0,0,0-.1.07,3.22,3.22,0,0,0,.26.24m7-1.94a0.76,0.76,0,0,0-.23-0.13,0.57,0.57,0,0,0-.19.1,0.52,0.52,0,0,0,.17.1,0.77,0.77,0,0,0,.25-0.07m-0.21.52h0.12a1.18,1.18,0,0,0-.07-0.18h-0.13l0.08,0.2m-9.22.65a0.35,0.35,0,0,0,.13-0.08,0.14,0.14,0,0,0-.11-0.06,0.46,0.46,0,0,0-.15,0l0.13,0.1m4.08,0.2-0.13-.08a0.48,0.48,0,0,0-.13.08,0.2,0.2,0,0,0,.08.07l0.18-.07"/><path class="cls-1" d="M74.56,61.43a2.55,2.55,0,0,1,.31-0.11c0.71-.17,1.43-0.33,2.15-0.46a11.37,11.37,0,0,0,1.93-.64,7.92,7.92,0,0,0,1.91-1.06,5.25,5.25,0,0,0,1.24-1.24,11,11,0,0,0,.58-1.12,0.44,0.44,0,0,1,0-.09,0.61,0.61,0,0,0,.18-0.57,0.28,0.28,0,0,1,.19-0.33,0.23,0.23,0,0,0,0-.2,0.49,0.49,0,0,1,.1-0.54,0.55,0.55,0,0,1,.3.63c-0.09.32-.1,0.65-0.19,1a4.81,4.81,0,0,1-.43,1.05,6.32,6.32,0,0,1-.83,1.13,8.17,8.17,0,0,1-1,.84,4.26,4.26,0,0,1-.73.46c-0.36.17-.75,0.29-1.12,0.45a12.62,12.62,0,0,1-3,.77c-0.51.09-1,.11-1.53,0.15a0.46,0.46,0,0,1-.14,0V61.43"/><path class="cls-1" d="M101,48.88c-0.05-.45-0.12-0.91-0.16-1.36a2.21,2.21,0,0,1,.13-1.27,0.14,0.14,0,0,0,0-.05c0-.31.07-0.21,0.5-0.31,0.17,0,.24,0,0.24.11a0.15,0.15,0,0,1,0,.09,1.71,1.71,0,0,0-.41,1.15c0,0.45,0,.91,0,1.36s0.05,0.78.07,1.17-0.15.34-.61,0.33l-1.11,0c-0.34,0-.68,0-1,0a0.64,0.64,0,0,1-.19,0A0.32,0.32,0,0,1,98.35,50a0.27,0.27,0,0,1,.17-0.09,1.41,1.41,0,0,1,.27,0l1.63,0c0.41,0,.55-0.05.57-0.28s0-.48,0-0.72H101"/><path class="cls-1" d="M135.29,50.55c-0.28.18-.31,0.3-0.09,0.43a0.21,0.21,0,0,1,0,.16c0,0.67-.67,1.32-0.66,2,0,0.22-.09.27-0.32,0.26-0.77-.05-1.55-0.08-2.33-0.12H131.6a0.28,0.28,0,0,0-.32.29q-0.06,1.28-.14,2.55a0.59,0.59,0,0,0,.08.54,0.45,0.45,0,0,1,0,.27h-0.08l0-.16a0.32,0.32,0,0,0-.06-0.17,0.59,0.59,0,0,1-.23-0.51c0-.27-0.1-0.55-0.11-0.82a6,6,0,0,1,0-.75c0-.46.07-0.92,0.1-1.39,0-.14.12-0.17,0.25-0.17,0.43,0,.86,0,1.29,0S133,53,133.31,53A2.91,2.91,0,0,0,134,53a0.28,0.28,0,0,0,.13-0.23c0-.37.67-0.75,0.68-1.14s0-.67,0-1a0.15,0.15,0,0,1,.09-0.11,2.59,2.59,0,0,1,.37,0"/><path class="cls-1" d="M139.6,41.51a2.56,2.56,0,0,0-.51,1.13,13,13,0,0,0,0,2.73c0,0.77,0,1.53,0,2.3a0.29,0.29,0,0,1-.3.35c-0.79.07-1.58-.31-2.37-0.22h0c-0.12,0-.31,0-0.29-0.14a0.44,0.44,0,0,1,.29-0.18c0.63-.09,1.26.31,1.89,0.25,0.27,0,.31-0.05.33-0.33a34.61,34.61,0,0,0,0-3.84c0-.54,0-1.1.05-1.65a0.34,0.34,0,0,1,.27-0.33,0.87,0.87,0,0,1,.66-0.07"/><path class="cls-1" d="M95.62,47.51H95.36a4.51,4.51,0,0,0-1.76.25,0.48,0.48,0,0,0-.21.14,1.19,1.19,0,0,0-.46.68,1.08,1.08,0,0,1-.18.41,0.34,0.34,0,0,0,0,.1c0,0.35-.06.7-0.07,1a1.12,1.12,0,0,0,0,.24l0,0.19a0.51,0.51,0,0,1-.43-0.43,5,5,0,0,1,.07-1.71,1.06,1.06,0,0,1,.24-0.53,4.34,4.34,0,0,0,.29-0.35,0.8,0.8,0,0,1,.37-0.18,2.5,2.5,0,0,1,1.31-.13c0.1,0,.23,0,0.33,0,0.25,0.06.49,0.14,0.73,0.21v0"/><path class="cls-1" d="M102.2,53.24a0.9,0.9,0,0,1-.23.15,0.26,0.26,0,0,0-.23.25c-0.06.87-.14,1.73-0.19,2.6a10.24,10.24,0,0,0,0,1,0.74,0.74,0,0,0,.08.14c0,0.09,0,.19.08,0.32l-0.14,0a2.83,2.83,0,0,1-.3-0.48,1.8,1.8,0,0,1-.1-0.54,12.63,12.63,0,0,1-.05-1.26c0-.71.09-1.42,0.13-2.13,0-.11.09-0.16,0.29-0.15l0.63,0v0.05"/><path class="cls-1" d="M133.94,45.44a1.3,1.3,0,0,1-.33.09,2.5,2.5,0,0,0-1.27.43,2.26,2.26,0,0,0-.86.77,2.56,2.56,0,0,0-.38,1.33c0,0.27,0,.53,0,0.8s0.1,0.36.14,0.54a0.2,0.2,0,0,1-.06.17,0.32,0.32,0,0,1-.23,0,0.43,0.43,0,0,1-.13-0.25c-0.06-.6-0.13-1.19-0.15-1.78a2.38,2.38,0,0,1,.17-1,1.61,1.61,0,0,1,1.06-.88,4.81,4.81,0,0,1,.7-0.21c0.4,0,.8,0,1.19-0.05a0.33,0.33,0,0,1,.13.05v0.07"/><path class="cls-1" d="M92.68,55.09c-0.21,0-.31-0.09-0.31-0.2q0-.91-0.05-1.82a1.64,1.64,0,0,0,0-.36,0.58,0.58,0,0,1,.31-0.54,4.81,4.81,0,0,1,.75-0.46,0.44,0.44,0,0,1,.56.08c0.12,0.1.06,0.2-.1,0.3s-0.55.39-.83,0.58a0.82,0.82,0,0,0-.25.88c0,0.46,0,.92,0,1.37a0.5,0.5,0,0,1-.09.18"/><path class="cls-1" d="M113.38,54.35a5.26,5.26,0,0,0-.16.51,1.16,1.16,0,0,0,0,.32,0.22,0.22,0,0,1,0,.1,1.27,1.27,0,0,1-.15.17,0.65,0.65,0,0,1-.14-0.16,3.17,3.17,0,0,1-.13-0.49,1.13,1.13,0,0,1,0-.32c0-.27.05-0.55,0.11-0.82a3.15,3.15,0,0,0-.13-0.87,0.71,0.71,0,0,1,.43-0.67l0.65-.39a0.22,0.22,0,0,1,.29,0l0.08,0.05a0.6,0.6,0,0,1,.21.11,0.43,0.43,0,0,1-.18.23,7.6,7.6,0,0,0-.67.4,2.45,2.45,0,0,0-.38.5,0.16,0.16,0,0,0,0,0,2.15,2.15,0,0,0,.11,1c0,0.08,0,.17,0,0.26h0"/><path class="cls-1" d="M92.73,58.55a3.8,3.8,0,0,1,.53-0.06,15.53,15.53,0,0,0,2.94-.27,6.31,6.31,0,0,0,1.56-.43,1.23,1.23,0,0,1,.47-0.15,1.05,1.05,0,0,1,.54.14c0.11,0.09-.11.16-0.27,0.21s-0.6.19-.91,0.27a7.85,7.85,0,0,1-.95.21,24.43,24.43,0,0,1-2.85.2,0.5,0.5,0,0,1-.18,0,1,1,0,0,0-.54,0,2.57,2.57,0,0,1-.33,0V58.55"/><path class="cls-1" d="M139,61.93a4.1,4.1,0,0,1-.31-1.27c0-1.08,0-2.16,0-3.24,0-.51,0-1,0-1.53,0-.16,0-0.35.23-0.33s0.22,0.2.22,0.36c0,0.82,0,1.63,0,2.45,0,1.09,0,2.17,0,3.26a2,2,0,0,1-.05.33l-0.1,0"/><path class="cls-1" d="M113.37,50.82a0.66,0.66,0,0,1-.43-0.65c0-.74,0-1.48,0-2.22,0-.28,0-0.55,0-0.83,0-.11.08-0.16,0.27-0.16h0.29a0.39,0.39,0,0,1,.45.18l0,0c-0.42,0-.53.2-0.53,0.43,0,0.55,0,1.1,0,1.64,0,0.3,0,.59,0,0.89a3.68,3.68,0,0,0,.08.52,1.35,1.35,0,0,1,0,.18"/><path class="cls-1" d="M121.3,58.6a0.54,0.54,0,0,1-.08-0.1,2.7,2.7,0,0,1-.28-1.31c0-.35.05-0.7,0.05-1.05s0-1,0-1.46a0.28,0.28,0,0,1,0-.19,0.32,0.32,0,0,1,.21-0.1,0.29,0.29,0,0,1,.19.11,0.43,0.43,0,0,1,0,.22c0,0.9,0,1.81,0,2.71,0,0.3,0,.6,0,0.9a1.22,1.22,0,0,1-.05.26H121.3"/><path class="cls-1" d="M113.29,58.36a1.4,1.4,0,0,1,.26,0c1,0.15,2,.17,3.07.25h0l0.89-.11,0.74-.15a0.56,0.56,0,0,1,.22,0,0.77,0.77,0,0,1,.13.08l0.29,0.16a1.51,1.51,0,0,1-.37.16c-0.27,0-.56.06-0.84,0.08a15.44,15.44,0,0,1-3.19-.19c-0.13,0-.26-0.07-0.39-0.09l-0.5-.09-0.36-.06V58.36"/><path class="cls-1" d="M84.16,52l0.37,0.17c0.16,0.08.14,0.26-.05,0.4s-0.53.39-.79,0.6a0.51,0.51,0,0,0-.22.51,10.36,10.36,0,0,1,.08,1.05,0.2,0.2,0,0,1-.25.19,0.21,0.21,0,0,1-.14-0.16c0-.49,0-1-0.07-1.49a0.64,0.64,0,0,1,.27-0.65c0.28-.2.54-0.42,0.81-0.62"/><path class="cls-1" d="M83,46.47a0.93,0.93,0,0,0,0,.22,2.54,2.54,0,0,0,.14.25,0.88,0.88,0,0,1,.13.3c0,0.58.05,1.17,0.06,1.75s0,1,0,1.52a1.59,1.59,0,0,1-.06.3h-0.1a0.79,0.79,0,0,1-.11-0.17,3.85,3.85,0,0,1-.18-1.41c0-.72.07-1.43,0.1-2.15a1.87,1.87,0,0,0-.1-0.31,1.81,1.81,0,0,1,0-.32H83"/><path class="cls-1" d="M134.8,61.68l-0.1-.22,0.13,0,1.08,0a0.24,0.24,0,0,0,.12,0,0.22,0.22,0,0,1,.32.09l0.08,0.07,0.27,0.23a1,1,0,0,1-.32.2,1.78,1.78,0,0,1-1.22-.09,0.49,0.49,0,0,0-.27,0,0.57,0.57,0,0,1-.24.05L133,61.53a1,1,0,0,1-.24-0.17,0.46,0.46,0,0,1,.23-0.14c0.29,0,.58.1,0.88,0.15a3.33,3.33,0,0,1,.37.07,2.14,2.14,0,0,1,.28.14l0.3,0.14,0-.05"/><path class="cls-1" d="M108.49,58.13c0.21,0,.43,0,0.64,0A4.91,4.91,0,0,0,110.4,58c0.21-.05.41-0.12,0.62-0.18a0.36,0.36,0,0,1,.15,0l0.65,0.2a4.19,4.19,0,0,1-3.33.11"/><path class="cls-1" d="M126.53,60h0.28c0.25,0,.49.07,0.74,0.12a1.92,1.92,0,0,0,.9-0.11c0.18,0,.34-0.11.53-0.15a0.39,0.39,0,0,1,.2,0l0.39,0.21c0.13,0.07.19,0.14,0.06,0.2a1.74,1.74,0,0,1-.86.21l-0.25,0a0.42,0.42,0,0,1-.15,0A4.3,4.3,0,0,1,127,60.2a2,2,0,0,0-.48-0.17V60"/><path class="cls-1" d="M102.75,53.34c0.72-.09.44-0.41,0.57-0.63a0.71,0.71,0,0,1,.37.72,0.25,0.25,0,0,1-.17.07l-0.59-.1-0.18-.06"/><path class="cls-1" d="M139.65,63.23a1.32,1.32,0,0,1-.32,0,1.66,1.66,0,0,1-.91-0.46,1.3,1.3,0,0,0-.42-0.21,2.27,2.27,0,0,1,1.65.69"/><path class="cls-1" d="M100.5,58.11l0.3,0h0.95c0.16,0,.26,0,0.27.11s-0.12.11-.25,0.11a1.73,1.73,0,0,1-.79-0.1,1.75,1.75,0,0,0-.47-0.05v0Z"/><path class="cls-1" d="M124.88,46.22c0-.13.08-0.22,0.28-0.27a0.4,0.4,0,0,1,.48.08c0.05,0.08,0,.14-0.09.19l-0.39.17c-0.2.09-.29,0-0.29-0.16"/><path class="cls-1" d="M115,46.57a0.2,0.2,0,0,1,.07,0c0.07,0.16.13,0.33,0.19,0.49a0.12,0.12,0,0,1,0,.12,0.57,0.57,0,0,1-.25,0,0.4,0.4,0,0,1,0-.65"/><path class="cls-1" d="M107.37,47.14a0.36,0.36,0,0,1,.34.21,0.35,0.35,0,0,1-.21.09c-0.14,0-.35-0.1-0.32-0.18a0.55,0.55,0,0,1,.19-0.12"/><path class="cls-1" d="M95.91,53.49c0.08-.12,0-0.26.24-0.29a0.36,0.36,0,0,1,.19,0,0.09,0.09,0,0,1,0,.12,1.24,1.24,0,0,1-.18.21,0.55,0.55,0,0,1-.14.06l-0.1-.11"/><path class="cls-1" d="M121.82,59.44A1.19,1.19,0,0,1,121,59.3a1,1,0,0,1,.86.13"/><path class="cls-1" d="M131.85,61c0.33-.14.44,0.19,0.65,0.3-0.14.06-.2,0-0.65-0.3"/><path class="cls-1" d="M131.12,60.87a0.4,0.4,0,0,1,.51.11,0.42,0.42,0,0,1-.51-0.11"/><path class="cls-1" d="M77.05,45.57a0.34,0.34,0,0,1-.11.06l-0.89.08a1.13,1.13,0,0,0-.87.57,3.23,3.23,0,0,0-.25,1.81c0,0.7.06,1.4,0.08,2.09a1.06,1.06,0,0,1-.06.36c0,0.1-.12.13-0.21,0A0.88,0.88,0,0,1,74.54,50c0-.69,0-1.39,0-2.09s0-1.13,0-1.69a1,1,0,0,1,.45-0.8,0.8,0.8,0,0,1,.36-0.12A3,3,0,0,1,77,45.5a0.35,0.35,0,0,1,.07.07"/><path class="cls-1" d="M74.82,57.41a0.35,0.35,0,0,1-.09-0.09,2.72,2.72,0,0,1-.25-1.15c0-.71.05-1.43,0.07-2.14a0.71,0.71,0,0,0,0-.17,1.75,1.75,0,0,1,.91-1.64,0.52,0.52,0,0,1,.74.21,0.16,0.16,0,0,1-.08.13A3.79,3.79,0,0,0,75,53.77a0.49,0.49,0,0,0-.06.28c0,0.68,0,1.35,0,2,0,0.35,0,.7,0,1.05a1.47,1.47,0,0,1-.06.27H74.82"/><path class="cls-1" d="M103.42,31.18l0.64-.54-0.43-.52-0.64.53,0,0a0.13,0.13,0,0,0-.2.17h0l0.46,0.54h0a0.13,0.13,0,0,0,.2-0.17h0Zm-0.06-.48a1.29,1.29,0,0,1,.32-0.24c0.07,0,.13.07,0.06,0.1a1.18,1.18,0,0,0-.3.23,0.06,0.06,0,0,1-.08-0.08"/><path class="cls-1" d="M102.71,30.86c-3.1,1.92-6,4.35-9,6.56-0.64.48-1.05,1.08-.44,1.79s1.25,0.43,1.84-.12c2.69-2.53,5.75-4.85,8-7.66ZM93.22,38.4a0.06,0.06,0,0,1,0-.13,0.06,0.06,0,0,1,0,.13m0-.26a0.06,0.06,0,0,1,0-.13,0.06,0.06,0,0,1,0,.13m0.22-.26a0.06,0.06,0,0,1,0-.13,0.06,0.06,0,0,1,0,.13m1.32-.78a0.06,0.06,0,0,1,0,.12,0.06,0.06,0,0,1,0-.12m0,1.72a0.06,0.06,0,0,1,0,.12,0.06,0.06,0,0,1,0-.12m-0.86.31a0.25,0.25,0,0,0,.19-0.06,0.06,0.06,0,0,1,.08.08,0.37,0.37,0,0,1-.28.1,0.06,0.06,0,0,1,0-.12m0.39,0.12a0.08,0.08,0,0,0,0,.05l-0.07.09a0.06,0.06,0,0,1-.08-0.08,0.32,0.32,0,0,1,.2-0.17c0.08,0,.07.11,0,0.12m0-.46a0.32,0.32,0,1,1,0-.45,0.32,0.32,0,0,1,0,.45m0.22-1.35a5.29,5.29,0,0,1-.64.24c-0.07,0-.1-0.09,0-0.11a5.06,5.06,0,0,0,.61-0.23c0.07,0,.13.07,0.06,0.1m0.36,1.65a0.16,0.16,0,0,0-.18.18,0.06,0.06,0,0,1-.12,0A0.27,0.27,0,0,1,94.88,39a0.06,0.06,0,0,1,0,.12M95.19,37c0.08,0,.07.11,0,0.12h0s0,0,0,0a0.06,0.06,0,0,1-.12,0A0.14,0.14,0,0,1,95.19,37M103,31.58c-3,1.95-5,5-7.9,7-0.06,0-.12-0.06-0.06-0.1,2.9-2,4.93-5.1,7.9-7,0.06,0,.12.06,0.06,0.1"/><path class="cls-1" d="M117,21.8a7,7,0,0,0-.63-1.09s-0.47-.62-0.77-0.91a7,7,0,0,0-1-.81,1.42,1.42,0,0,0-2.11.21c-1,1.14-2.24,2.16-3.21,3.36A11,11,0,0,0,108.06,25a6.33,6.33,0,0,1-.76,1.78c-1,1-2.1,1.92-3.39,3.07h0l0,0a0.13,0.13,0,0,0-.2.17l0,0,0.43,0.52h0a0.13,0.13,0,0,0,.2-0.17h0c1.36-1.07,2.43-2,3.61-2.8a6.33,6.33,0,0,1,1.89-.43,11,11,0,0,0,2.67-.77c1.19-.66,2.27-1.51,3.4-2.26l0.18-.17a1.89,1.89,0,0,0,.72-1.67,0.06,0.06,0,0,1,.11,0,1.81,1.81,0,0,1-.56,1.58h0a1.42,1.42,0,0,0,.58-2m-7.6,1.35,3.83-3.51a0.33,0.33,0,1,1,.45.49l-3.83,3.51a0.33,0.33,0,1,1-.45-0.49m-1.24,2.59a0.06,0.06,0,0,1,.12,0V26a0.06,0.06,0,0,1-.12,0V25.73Zm0,0.33a0.06,0.06,0,0,1,0,.12,0.06,0.06,0,0,1,0-.12m-1,2a0.06,0.06,0,0,1,0-.12,0.06,0.06,0,0,1,0,.12m0.23-.08a0.06,0.06,0,0,1,0-.12,0.06,0.06,0,0,1,0,.12m0.16-.23a0.06,0.06,0,0,1,0-.12,0.06,0.06,0,0,1,0,.12m0.23-.23a0.06,0.06,0,0,1,0-.12,0.06,0.06,0,0,1,0,.12m0.63-.47a0.38,0.38,0,0,0-.34.21,0.06,0.06,0,0,1-.1-0.06,0.5,0.5,0,0,1,.44-0.26,0.06,0.06,0,0,1,0,.12m0-1.72a0.06,0.06,0,0,1,0-.12,0.06,0.06,0,0,1,0,.12m0.22-.22a0.06,0.06,0,0,1-.12,0V25a0.06,0.06,0,0,1,.12,0v0.16Zm0.49,1.7h-0.16a0.06,0.06,0,0,1,0-.12H109a0.06,0.06,0,0,1,0,.12m1.17-.08h-0.78a0.25,0.25,0,0,0-.19.06,0.06,0.06,0,0,1-.08-0.08,0.33,0.33,0,0,1,.16-0.08h0.89a0.06,0.06,0,0,1,0,.12M110,24.49l0,0a0.32,0.32,0,0,1,0-.45l4.18-3.65a0.32,0.32,0,0,1,.44,0h0a0.32,0.32,0,0,1,0,.45l-4.17,3.66a0.32,0.32,0,0,1-.45,0m0.58,2.25a0.06,0.06,0,0,1,0-.12,0.06,0.06,0,0,1,0,.12m0.15-1.37,0,0a0.31,0.31,0,0,1,.05-0.44l4.35-3.47a0.31,0.31,0,0,1,.44.05h0a0.31,0.31,0,0,1-.05.44l-4.33,3.49a0.31,0.31,0,0,1-.44-0.05m0.47,1.37a0.06,0.06,0,0,1,0-.12,0.06,0.06,0,0,1,0,.12m4.87-3.59-4.18,3.08a0.33,0.33,0,0,1-.39-0.53l4.18-3.08a0.33,0.33,0,0,1,.39.53m0.34-1.67a0.08,0.08,0,0,0,0,0,0.06,0.06,0,0,1,.09-0.09,0.22,0.22,0,0,1,.06.13c0,0.08-.12.08-0.13,0m0.19,0.28a0.06,0.06,0,0,1,0-.13,0.06,0.06,0,0,1,0,.13M116.77,22a0.06,0.06,0,0,1,0-.13,0.06,0.06,0,0,1,0,.13"/><path class="cls-1" d="M116.76,38.06a0.06,0.06,0,0,1,0,.1,0.06,0.06,0,0,1,0-.1l0,0a2.44,2.44,0,0,0-.55-0.52,44.57,44.57,0,0,1-5.47-4.11,12.76,12.76,0,0,0-3.21-2.08,0.62,0.62,0,0,0-.8-0.52c-1-.77-4.88-3.84-5.67-4.64a6,6,0,0,1-.85-1.69A11,11,0,0,0,98.93,22c-1-1.18-4.28-2.73-5.47-3.73a45.31,45.31,0,0,0,4,3.19,3.86,3.86,0,0,1,1.62,2.56,1.73,1.73,0,0,1,0,.45,1,1,0,0,0,.26.88v0a1.45,1.45,0,0,0-1.26,0c-1.31.47-2.62-.8-2.87-1.05a0.05,0.05,0,0,1-.05,0,0.06,0.06,0,0,1,0-.11c-0.63-.64-1.17-1.17-1.64-1.59a0.06,0.06,0,0,1-.06.06,0.06,0.06,0,0,1,0-.12A11.52,11.52,0,0,0,91.32,21c1.21,1,3.34,4,4.7,4.68a11,11,0,0,0,2.68.72,6,6,0,0,1,1.83.47c1,0.6,4.78,3.75,5.75,4.56a0.62,0.62,0,0,0,.7.66l0.92,1a3.48,3.48,0,0,1-.22-0.44l-0.23-.19c-0.06,0,0-.13.08-0.08l0.07,0.06a3,3,0,0,1-.09-0.31,0.06,0.06,0,0,1,.11,0,3,3,0,0,0,.15.49c1.28,1,2.6,2,3.81,3.16a1.32,1.32,0,0,1,.49-0.63c0.06,0,.12.06,0.06,0.1a1.19,1.19,0,0,0-.44.59v0a0.06,0.06,0,0,1-.08.08c-1.17-1.1-2.46-2.08-3.71-3.09a4.15,4.15,0,0,0,.74,1l0.14,0.13a0.05,0.05,0,0,1,0,0,0.06,0.06,0,0,1,0,.11,9.28,9.28,0,0,0,.93.75l0.45,0.33c0.62,0.41,1.26.78,1.87,1.17a7.93,7.93,0,0,1,2.79,2.52,0.06,0.06,0,0,1-.1.06,5.68,5.68,0,0,0-1.53-1.64l-0.1-.07,0,0a0.06,0.06,0,0,1,0-.09c-0.64-.47-1.32-0.89-2-1.31,1.32,1.1,2.51,2.34,3.78,3.49,0.59,0.54,1.27.82,1.84,0.09a0.93,0.93,0,0,0,.08-1.26M99,22.82a0.06,0.06,0,0,1,0-.12,0.06,0.06,0,0,1,0,.12m0.16,0.31a0.06,0.06,0,0,1,0-.12,0.06,0.06,0,0,1,0,.12m-5.56,0a0.06,0.06,0,0,1,0-.12,0.06,0.06,0,0,1,0,.12m6.57,2.7a0.06,0.06,0,0,1,0,.12,0.06,0.06,0,0,1,0-.12m-0.63-2.11a0.06,0.06,0,0,1,0,.12,0.06,0.06,0,0,1,0-.12m-0.16,0a0.06,0.06,0,0,1,0-.12,0.06,0.06,0,0,1,0,.12m-0.08-.35a0.06,0.06,0,0,1,0,.12,0.06,0.06,0,0,1,0-.12m-0.06.47c0-.07.1-0.11,0.11,0a4.25,4.25,0,0,0,.46,1.39,0.06,0.06,0,0,1-.1.06,4.35,4.35,0,0,1-.48-1.42m-1.2,2.08a0.14,0.14,0,0,1-.14-0.14c0-.08.11-0.07,0.12,0s0,0,0,0h0a0.06,0.06,0,0,1,0,.12m0.23,0.08a0.06,0.06,0,0,1,0-.12,0.06,0.06,0,0,1,0,.12m0.23-.08a0.06,0.06,0,0,1,0-.12,0.06,0.06,0,0,1,0,.12m0.14-.12a5,5,0,0,1,1.11-.08,0.06,0.06,0,0,1,0,.12,4.84,4.84,0,0,0-1.08.08,0.06,0.06,0,0,1,0-.11m1.55,0.58a1,1,0,0,0-.44-0.07,0.06,0.06,0,0,1,0-.12,1.14,1.14,0,0,1,.5.09c0.07,0,0,.13-0.06.1m0.34,0a0.06,0.06,0,0,1,0-.12,0.06,0.06,0,0,1,0,.12m5.91,4.93a0.06,0.06,0,0,1,0,.13,0.06,0.06,0,0,1,0-.13m0,0.52a0.06,0.06,0,0,1-.05-0.1h0a0.06,0.06,0,1,1,.05,0h0a0.06,0.06,0,0,1,0,.13m0.18,0a0.06,0.06,0,0,1-.06,0h0a0.32,0.32,0,0,1-.13-0.15c0-.08.09-0.11,0.12,0a0.17,0.17,0,0,0,.07.07,0.14,0.14,0,0,1,0,.17m0.27,0.1a0.06,0.06,0,0,1-.06-0.08,0.06,0.06,0,0,1-.05,0,0.06,0.06,0,0,1,0-.13,0.06,0.06,0,0,1,.06.08,0.06,0.06,0,0,1,.05,0,0.06,0.06,0,0,1,0,.13m2.51,2.64a0.06,0.06,0,0,1,0-.12,0.06,0.06,0,0,1,0,.12m0.7,0.39a0.06,0.06,0,0,1,0-.12,0.06,0.06,0,0,1,0,.12m2,1a0.06,0.06,0,0,1,0-.12,0.06,0.06,0,0,1,0,.12M112.41,36a0.06,0.06,0,0,1,0-.12,0.06,0.06,0,0,1,0,.12m0.5,0.52a1.78,1.78,0,0,0-.38-0.38,0.06,0.06,0,0,1,.08-0.08,1.86,1.86,0,0,1,.4.4,0.06,0.06,0,0,1-.1.06m1,1.44a0.06,0.06,0,0,1,0-.12,0.06,0.06,0,0,1,0,.12m2.19-.27a0.06,0.06,0,0,1,0,.12,0.06,0.06,0,0,1,0-.12m-0.45.75a0.32,0.32,0,1,1,0,.45,0.32,0.32,0,0,1,0-.45m-1.43-.09a0.06,0.06,0,0,1,0-.12,0.06,0.06,0,0,1,0,.12M115,39.1h-0.16a0.06,0.06,0,0,1,0-.12H115a0.06,0.06,0,0,1,0,.12m0.39,0.23H115.3a0.06,0.06,0,0,1,0-.12h0.08a0.06,0.06,0,0,1,0,.12m0.78,0.16h-0.55a0.06,0.06,0,0,1,0-.12h0.55a0.06,0.06,0,0,1,0,.12m0.39-1a0.06,0.06,0,0,1,0-.12,0.06,0.06,0,0,1,0,.12m0.16,0.47a0.06,0.06,0,0,1,0-.12,0.06,0.06,0,0,1,0,.12"/><path class="cls-1" d="M96.74,30v0a0.06,0.06,0,0,1-.12,0v-0.2c-0.3-.58-0.6-2-2.25-2-1.93.08-1.68,0.81-2,1.09s0,1.66,0,1.66l0.11,0.13a4.07,4.07,0,0,0,1.11-1c0-.06.14,0,0.1,0.06a4.19,4.19,0,0,1-1.13,1.07l0.22,0.23a3.19,3.19,0,0,0,.89-1.11c0-.07.14,0,0.11,0a3.32,3.32,0,0,1-.92,1.17L93,31.3c0.32,0.27,1.44-1.09,1.47-1.66s0.22,0.45.22,0.45l-0.83,1.24,1,0.8L96,32,96.78,30l0,0m-3.89-.86c-0.14,0-.26.07-0.39,0.08a0.06,0.06,0,0,1,0-.12,0.78,0.78,0,0,0,.2,0H92.53a0.06,0.06,0,0,1,0-.12h0.16a0.06,0.06,0,0,1,0,.09l0.11,0a0.06,0.06,0,0,1,0,.12m0.2-.64c-0.09.09-.14,0.22-0.23,0.31a0.06,0.06,0,0,1-.08-0.08c0.09-.09.14-0.22,0.23-0.31a0.06,0.06,0,0,1,.08.08m0.32,0.07a1.19,1.19,0,0,0-.07.52,0.06,0.06,0,0,1-.12,0,1.31,1.31,0,0,1,.09-0.58c0-.07.13,0,0.1,0.06m2.14-.25,0.09,0.09a0.06,0.06,0,0,1-.09.09l-0.09-.09a0.06,0.06,0,0,1,.09-0.09m-0.44,1c0.09-.09.14-0.22,0.23-0.31a0.06,0.06,0,0,1,.08.08c-0.09.09-.14,0.22-0.23,0.31a0.06,0.06,0,0,1-.08-0.08m0,2.37H94.88a0.06,0.06,0,0,1,0-.12H95a0.06,0.06,0,0,1,0,.12m0.12-1.58L95.07,30a0.06,0.06,0,0,1,.08-0.08L95.23,30a0.06,0.06,0,0,1-.08.08m0.12,1.43a0.06,0.06,0,0,1,0-.12,0.06,0.06,0,0,1,0,.12m0.12-1.35-0.08-.08A0.06,0.06,0,0,1,95.39,30l0.08,0.08a0.06,0.06,0,0,1-.08.08m0.12-1.5a0.06,0.06,0,0,1,0,.13,0.06,0.06,0,0,1,0-.13m0.08,2.69c-0.08,0-.07-0.11,0-0.12a0.11,0.11,0,0,0,.1-0.1c0-.08.12-0.08,0.12,0a0.23,0.23,0,0,1-.22.22m0.36-.26c0,0.07-.13,0-0.1-0.06a0.31,0.31,0,0,0,0-.32c-0.05-.06,0-0.14.08-0.08a0.42,0.42,0,0,1,0,.46M96.36,30H96.05a0.06,0.06,0,0,1,0-.12h0.31a0.06,0.06,0,0,1,0,.12"/><path class="cls-1" d="M117,29.36a1.45,1.45,0,0,0-1.07-.45l-0.62-1-1.14-.41-1.39,1.72c0.27,0.34-.22,2,1.14,2.7a7.9,7.9,0,0,0,.75-0.94,0.06,0.06,0,0,1,.1.06,7.66,7.66,0,0,1-.75.93L114.34,32c0.34,0.11.62-.69,0.85-0.72s0,0.75.13,0.68,1.06-.22,1.27-0.31c0.4-.15.56-1.56,0.56-1.56a1.29,1.29,0,0,0-.14-0.78m-1.2.07a0.06,0.06,0,0,1,0,.13,0.06,0.06,0,0,1,0-.13m-0.17.09a0.06,0.06,0,0,1,0,.13,0.06,0.06,0,0,1,0-.13m-2-.13a0.06,0.06,0,0,1,0,.13,0.06,0.06,0,0,1,0-.13m-0.39.39a0.06,0.06,0,0,1,0-.13,0.06,0.06,0,0,1,0,.13m0.17-.17a0.06,0.06,0,0,1,0,.13,0.06,0.06,0,0,1,0-.13M113.45,31c-0.07,0-.13-0.07-0.06-0.1a2.29,2.29,0,0,0,.76-0.68c0-.06.15,0,0.1,0.06a2.42,2.42,0,0,1-.8.73m0.81-1a0.06,0.06,0,0,1,0,.13,0.06,0.06,0,0,1,0-.13m0.53,0.75a3.49,3.49,0,0,1-1.12.72c-0.07,0-.1-0.08,0-0.11a3.34,3.34,0,0,0,1.07-.69,0.06,0.06,0,0,1,.08.08m-0.4-.84a0.06,0.06,0,0,1,0,.13,0.06,0.06,0,0,1,0-.13m1-.77c-0.22.52-1.73,0.38-1.73,0.38l1.79-.48a0.37,0.37,0,0,0-.06.1m0.18,0.51a0.06,0.06,0,0,1,0,.13,0.06,0.06,0,0,1,0-.13m0.15,1.84a0.06,0.06,0,0,1-.12,0c0-.21.07-0.41,0.08-0.63a0.06,0.06,0,0,1,.12,0c0,0.21-.07.41-0.08,0.63m0.06-1.13a0.6,0.6,0,0,1-.17-0.35,0.06,0.06,0,0,1,.12,0,0.48,0.48,0,0,0,.14.27,0.06,0.06,0,0,1-.08.08m0.4-1.09a0.06,0.06,0,0,1,0,.13,0.06,0.06,0,0,1,0-.13m-0.06,2.22a0.06,0.06,0,0,1-.12,0V31a0.06,0.06,0,0,1,.12,0v0.55Zm0.52-1.12c-0.15.07-.32,0.09-0.47,0.16s-0.13-.07-0.06-0.1,0.32-.09.47-0.16,0.13,0.07.06,0.1m0.41-.33a1.18,1.18,0,0,1-.17.32,0.06,0.06,0,0,1-.08-0.08A1.13,1.13,0,0,0,117,30c0-.07.13,0,0.1,0.06"/><path class="cls-1" d="M105.89,35.28c-0.25-.35-1.65-0.17-1.65-0.17a1.29,1.29,0,0,0-.72.33c-0.3.29,0.91,1.81,1.47,1.9s-0.52.7-.52,0.7l-1.1-1.49-0.89.88-0.12,1.2,2,0.93c0.29-.37,2.3-0.25,2.41-2.18s-0.63-1.76-.88-2.11m-2.28,3.65a1.32,1.32,0,0,1-.5-0.66c0-.07.09-0.1,0.11,0a1.19,1.19,0,0,0,.44.59c0.06,0,0,.14-0.06.1m0.66-.38a1.26,1.26,0,0,1-1.3-.81c0-.07.07-0.13,0.1-0.06a1.15,1.15,0,0,0,1.2.75c0.08,0,.07.11,0,0.12m0.45,0a2.28,2.28,0,0,1-1.44-1,0.06,0.06,0,0,1,.1-0.06,2.16,2.16,0,0,0,1.37,1,0.06,0.06,0,0,1,0,.11M105.6,37a0.06,0.06,0,0,1,0-.12,0.06,0.06,0,0,1,0,.12m0.23,0c-0.08,0-.07-0.11,0-0.12a0.08,0.08,0,0,0,0-.05l0.07-.09a0.06,0.06,0,0,1,.08.08,0.32,0.32,0,0,1-.2.17m0.31-.08h0s0,0,0,0a0.06,0.06,0,0,1-.12,0,0.14,0.14,0,0,1,.14-0.14c0.08,0,.07.11,0,0.12m0.28-.1a0.06,0.06,0,0,1-.08-0.08,0.1,0.1,0,0,0,0-.15,0.06,0.06,0,0,1,.08-0.08,0.21,0.21,0,0,1,0,.32"/><path class="cls-1" d="M107.64,19.39a2.1,2.1,0,0,1-.83-1.65c0-.43-0.5,1.43-0.43,1.95a1.5,1.5,0,0,1-.37,1.41c-0.88.89-1.65,1.41-2.39,0.89a1.66,1.66,0,0,1-.5-0.6c1.74,0.71,2.4-1.22,2.4-1.22a19.29,19.29,0,0,0,0-2c-0.07-.9-1.71-2.45-1.59-3.06a27.57,27.57,0,0,0,.34-4.56s-0.77,2-1.23,2.8a3.72,3.72,0,0,0,0,3.51,5.69,5.69,0,0,1,1.23,2c0.21,0.93-.78,1.8-1.26,2.15a1.67,1.67,0,0,1,0-1.33c0.33-.45-0.29-2.25-1.45-2.67,0,0,.69,1.75-0.49,2.57-0.92.63-.36,2.9,1.66,3.76l0.35,0.14h0.37a4.27,4.27,0,0,1-1.33-1.4,0.06,0.06,0,0,1,.1-0.06,4,4,0,0,0,1.44,1.45,3.09,3.09,0,0,0,2.6-1.45,0.06,0.06,0,0,1,.1.06,3.21,3.21,0,0,1-2.69,1.51h-0.28l0.21,0.07a3.45,3.45,0,0,0,3.13-1.27c0-.06.13,0,0.08,0.08a3.51,3.51,0,0,1-2.7,1.32,2.56,2.56,0,0,0,3-1.15c1-1.49.89-2.9,0.52-3.27m-2.56,1a0.06,0.06,0,0,1,0,.13,0.06,0.06,0,0,1,0-.13m-0.22.34a0.06,0.06,0,0,1,0,.13,0.06,0.06,0,0,1,0-.13m-0.26.22a0.06,0.06,0,0,1,0,.13,0.06,0.06,0,0,1,0-.13m-0.17.09a0.06,0.06,0,0,1,0,.13,0.06,0.06,0,0,1,0-.13m-0.3.13h0.09a0.06,0.06,0,0,1,0,.13h-0.09a0.06,0.06,0,0,1,0-.13m-0.39,0h0.17a0.06,0.06,0,0,1,0,.13h-0.17a0.06,0.06,0,0,1,0-.13m-0.17-.3a0.06,0.06,0,0,1,0,.13,0.06,0.06,0,0,1,0-.13m-0.17.22a0.06,0.06,0,0,1,0,.13,0.06,0.06,0,0,1,0-.13m-1.85-1.62a4.07,4.07,0,0,0-.49.94,1.65,1.65,0,0,0,.13,1.21c0,0.07-.07.13-0.1,0.06a1.91,1.91,0,0,1,.14-1.92,2.78,2.78,0,0,0,.64-2.17,0.06,0.06,0,0,1,.11,0,2.37,2.37,0,0,1-.43,1.9m0.22,1.93a0.06,0.06,0,0,1,0-.12,0.06,0.06,0,0,1,0,.12m0.14-.22a0.06,0.06,0,0,1-.12,0V21a0.06,0.06,0,0,1,.12,0v0.16Zm0.18,0.68a0.06,0.06,0,0,1,0-.12,0.06,0.06,0,0,1,0,.12m4.46-.23a0.06,0.06,0,0,1,0-.12,0.06,0.06,0,0,1,0,.12m0.39,0.7a0.06,0.06,0,0,1,0-.12,0.06,0.06,0,0,1,0,.12m0.16-.31a0.13,0.13,0,1,1,0-.1,0.06,0.06,0,0,1,0,.1m0-.31a0.06,0.06,0,0,1,0-.12,0.06,0.06,0,0,1,0,.12m0.23-.94a0.06,0.06,0,0,1,0-.12,0.06,0.06,0,0,1,0,.12M107.56,21a0.06,0.06,0,0,1,0-.12,0.06,0.06,0,0,1,0,.12"/><path class="cls-1" d="M105.12,13.16a12.83,12.83,0,0,1,.23,3c0,0.07-.13,0-0.11,0a10,10,0,0,0-.21-2.79,5.46,5.46,0,0,1-.55,1.62s0.65,2.07,1.06,1.35c0.32-.57-0.18-2.66-0.4-3.19"/><path class="cls-1" d="M79.24,67.39l-0.55-.2a0.64,0.64,0,0,0-.51,0l-0.18.1a0.12,0.12,0,0,1,0,.07,0.79,0.79,0,0,1-.49.21l-0.59.31,0.64,0.15h0.08a4.1,4.1,0,0,1,.59.14,0.13,0.13,0,0,1,.07.05h0.06a0.51,0.51,0,0,0,.47-0.12l0.52-.47a0.17,0.17,0,0,0-.06-0.29"/><path class="cls-1" d="M134,67.5a0.13,0.13,0,0,1-.06-0.08c-0.24-.09-0.43-0.28-0.68-0.36a0.14,0.14,0,0,1-.06,0,0.52,0.52,0,0,0-.35,0l-0.51.2a0.23,0.23,0,0,0-.06.39l0.14,0.12h0a1,1,0,0,1,.42.34,0.57,0.57,0,0,0,.37,0l1.42-.39-0.16-.08A1.24,1.24,0,0,1,134,67.5"/><path class="cls-1" d="M81.38,69.24l0-.33c0-.09,0-0.2.15-0.15l-0.23-.7-0.43-1.24c-0.13-.38-0.27-0.75-0.4-1.13a0.16,0.16,0,0,0-.22-0.13c-0.14,0-.2,0-0.2-0.16a2.52,2.52,0,0,0,0-.35c0-.09,0-0.12.11-0.13l0.62-.07,0.71-.09h0.09c0,0.19,0,.37.06,0.55a0.17,0.17,0,0,1-.13.08c-0.14,0-.17.07-0.13,0.19l0.34,1.09,0.27,0.85,0,0.08,0.14-.71c0-.2.09-0.39,0.12-0.59s0.06-.43.1-0.64a0.19,0.19,0,0,1,.1-0.14c0.23,0,.46-0.06.7-0.08l0.82,1.88h0c0-.16,0-0.31.06-0.47,0-.49.07-1,0.11-1.47,0-.26,0-0.28-0.27-0.27,0-.07,0-0.15,0-0.22a1.92,1.92,0,0,0,0-.23,0.11,0.11,0,0,1,.1-0.16,0.23,0.23,0,0,1,.27.22l0.11,0c0.09,0,.1,0,0.09-0.08s0-.16,0-0.23l0.92-.09L85.33,65l-0.07,0C85,65,85,65,85,65.23c-0.06.56-.13,1.12-0.19,1.67s-0.1.95-.15,1.42a0.17,0.17,0,0,0,0,0c0.15,0,.16.1,0.17,0.21s0,0.24,0,.36a0.12,0.12,0,0,1-.06.1l-1.34.13,0,0c0-.18,0-0.36-0.05-0.55a0.49,0.49,0,0,1,.13-0.17L82.92,67h0c0,0.13-.06.25-0.08,0.38-0.06.35-.11,0.7-0.17,1.06,0,0.07,0,.13.09,0.13a0.12,0.12,0,0,1,.07.08c0,0.15,0,.31,0,0.46a0.1,0.1,0,0,1-.11.12l-1.08.12a0.18,0.18,0,0,1-.1,0l-0.16-.12"/><path class="cls-1" d="M122.43,68c0,0.2,0,.39-0.05.58a0.12,0.12,0,0,1-.09.07l-1.44-.11,0,0c0-.18,0-0.37,0-0.56a0.16,0.16,0,0,1,.11-0.07,0.77,0.77,0,0,1,.19,0c0-.15-0.08-0.27-0.11-0.39a2.15,2.15,0,0,1,0-.25,0.17,0.17,0,0,0,0,0l-0.18-.48a0.16,0.16,0,0,0-.07-0.09h-0.39a0.12,0.12,0,0,0,0,.09c0,0.34,0,.67-0.08,1a0.09,0.09,0,0,0,.11.11c0.14,0,.17.06,0.16,0.19a3.6,3.6,0,0,0,0,.38,0.09,0.09,0,0,1-.12.11l-1.2-.09-0.27,0a5,5,0,0,1,.07-0.53,0.23,0.23,0,0,1,.18-0.09,0.11,0.11,0,0,0,.15-0.13q0.09-1.42.18-2.85a0.59,0.59,0,0,1,0-.15c0-.13,0-0.18-0.13-0.18a0.62,0.62,0,0,1-.19-0.07c0-.06,0-0.16.07-0.2a0.13,0.13,0,0,0,0-.1c-0.16-.08,0-0.19,0-0.31,0.62,0,1.22.06,1.83,0.13a1.64,1.64,0,0,1,.84.26,1.24,1.24,0,0,1,.5.73,1.57,1.57,0,0,1-.14,1.14,1,1,0,0,1-.45.4,0.17,0.17,0,0,0-.09.23c0.1,0.34.2,0.69,0.3,1s0.1,0.31.43,0.3m-0.89-3.25-0.1-.09c-0.14.09-.21,0-0.3-0.09l-0.06,0-0.49,0a0.09,0.09,0,0,0-.12.1q0,0.6-.09,1.21a0.09,0.09,0,0,0,.1.11l0.4,0a0.42,0.42,0,0,0,.41-0.16,1.12,1.12,0,0,0,.2-0.48,2.15,2.15,0,0,0-.1-0.57h0.14M120,64.13l0.4,0.09v0a0.4,0.4,0,0,0-.41-0.05"/><path class="cls-1" d="M103.22,63.37c0.54,0,1.05,0,1.57,0a4.05,4.05,0,0,1,.79.08,1.15,1.15,0,0,1,.89.82,1.54,1.54,0,0,1,0,1.08,1,1,0,0,1-.45.5,0.15,0.15,0,0,0-.08.22l0.26,0.69c0.06,0.16.11,0.33,0.17,0.49a0.2,0.2,0,0,0,.12.11,1.41,1.41,0,0,0,.28,0c0,0.2,0,.39,0,0.59a0.12,0.12,0,0,1-.09.07h-1.39a0.13,0.13,0,0,1-.09-0.09c0-.14,0-0.28,0-0.42a0.13,0.13,0,0,1,.16-0.16h0.13c0-.11-0.08-0.2-0.1-0.29-0.08-.29-0.19-0.56-0.3-0.84A0.15,0.15,0,0,0,105,66.1a2.67,2.67,0,0,0-.38,0,0.1,0.1,0,0,0,0,.08c0,0.34,0,.69,0,1,0,0.09.05,0.1,0.12,0.09s0.18,0.05.17,0.18a3.57,3.57,0,0,0,0,.38,0.09,0.09,0,0,1-.11.12h-1.21l-0.27,0c0-.13,0-0.27,0-0.42a0.21,0.21,0,0,1,.25-0.23,0.17,0.17,0,0,0,.07-0.13c0-.43,0-0.86,0-1.29s0-1.08,0-1.62a0.4,0.4,0,0,1,0-.11c0-.13,0-0.15-0.14-0.15a0.76,0.76,0,0,1-.2-0.05c0-.07-0.06-0.16.06-0.21a0.13,0.13,0,0,0,0-.1c-0.16-.07-0.06-0.18-0.07-0.3m1.26,0.8a1.41,1.41,0,0,1,0,.24c0,0.32,0,.63,0,0.95a0.08,0.08,0,0,0,.1.1h0.45a0.4,0.4,0,0,0,.37-0.2,1.11,1.11,0,0,0,.15-0.49,2.2,2.2,0,0,0-.14-0.54l0.1-.07-0.07,0c-0.08.09-.14,0-0.21,0a0.43,0.43,0,0,0-.15-0.06h-0.52a0.19,0.19,0,0,0-.09.07l-0.05.07M104,63.64l0.42,0.07a0.35,0.35,0,0,0-.42-0.07"/><path class="cls-1" d="M92.48,68c0-.19,0-0.19.16-0.21l0.18,0-0.05-.83c0-.74-0.1-1.49-0.14-2.23,0-.13,0-0.18-0.19-0.16s-0.19,0-.2-0.16,0-.26,0-0.39a0.12,0.12,0,0,1,.13-0.13c0.56,0,1.11-.08,1.67-0.08a1.7,1.7,0,0,1,1.09.33,1.11,1.11,0,0,1,.38.75,12.1,12.1,0,0,1,.1,2.26,1.07,1.07,0,0,1-.36.87,0.59,0.59,0,0,1-.35.18,1,1,0,0,1-.22.09L94,68.3l-0.51,0-0.74,0-0.24,0A0.43,0.43,0,0,1,92.67,68l-0.19,0m1.26-.25a2.36,2.36,0,0,0,.47,0A0.56,0.56,0,0,0,94.68,67q0-1-.11-2.07a0.63,0.63,0,0,0-.3-0.55,0.82,0.82,0,0,0-.5-0.07c-0.21,0-.22,0-0.21.24l0.14,2.58,0,0.53m1.38,0L95,67.78l-0.1.07L95,67.92,95,68h0.09l0.05-.26"/><path class="cls-1" d="M112.58,67.95l0,0.06a4.47,4.47,0,0,1-.48.08c-0.19,0-.37,0-0.56,0l-0.65,0-0.68,0a0.41,0.41,0,0,1,.18-0.39l-0.18,0c0-.19,0-0.19.17-0.19l0.18,0,0-.84c0-.75,0-1.49.06-2.24,0-.13,0-0.17-0.16-0.17s-0.19,0-.19-0.19,0-.26,0-0.39a0.11,0.11,0,0,1,.13-0.11c0.56,0,1.13,0,1.69.07a1.68,1.68,0,0,1,1,.42,1.12,1.12,0,0,1,.32.8,12.08,12.08,0,0,1-.09,2.25,1.08,1.08,0,0,1-.43.84,0.52,0.52,0,0,1-.38.13m-1.06-2.14v0.52c0,0.34,0,.67,0,1a0.18,0.18,0,0,0,0,.12,1.45,1.45,0,0,0,.43,0,0.56,0.56,0,0,0,.52-0.6c0-.68.06-1.37,0.07-2.05a0.58,0.58,0,0,0-.45-0.66,2.05,2.05,0,0,0-.34,0,0.15,0.15,0,0,0-.18.18c0,0.5,0,1,0,1.5m1.07,1.86,0.12,0.15,0,0h0.07l0.09-.26-0.18.12-0.08,0"/><path class="cls-1" d="M109.11,66.72l0.71,0a0.13,0.13,0,0,1,.09.09c0,0.4,0,.81,0,1.22L107,68c0-1.54,0-3.06.09-4.59a0.45,0.45,0,0,1,.48.15l-0.07-.16H108l1.39,0h0.5a0.1,0.1,0,0,1,.11.11c0,0.38,0,.75,0,1.13a0.13,0.13,0,0,1-.08.1l-0.6,0a0.11,0.11,0,0,1-.12-0.14c0-.15,0-0.3,0-0.47a3.51,3.51,0,0,0-.35,0h-0.7a0.13,0.13,0,0,0-.15.15c0,0.31,0,.62,0,0.92a0.14,0.14,0,0,0,.1.09,1.12,1.12,0,0,0,.28,0,0.13,0.13,0,0,0,.06-0.09,1.62,1.62,0,0,0,0-.21h0.67c0.12,0,.11.09,0.11,0.16,0,0.26,0,.52,0,0.78s0,0.26,0,.41l-0.7,0a0.13,0.13,0,0,1-.07-0.09,1.41,1.41,0,0,1,0-.23H108a0.11,0.11,0,0,0-.06.08c0,0.39,0,.78,0,1.18a0.13,0.13,0,0,0,.09.09l1,0c0.09,0,.1,0,0.1-0.11s0-.33,0-0.53"/><path class="cls-1" d="M117,66.49c0-.19,0-0.37,0-0.54a0.14,0.14,0,0,1,.1-0.09L118.7,66a0.08,0.08,0,0,1,.09.11c0,0.61-.08,1.22-0.12,1.83,0,0.13,0,.26,0,0.39s0,0.16-.15.14-0.32,0-.48,0H118c-0.09-.15-0.22-0.07-0.34-0.06a1.9,1.9,0,0,1-.86-0.06,1.67,1.67,0,0,1-.7-0.37,1,1,0,0,1-.31-0.71c0-.31,0-0.61,0-0.92,0-.47,0-0.94.06-1.41a1.15,1.15,0,0,1,.91-1.06,2,2,0,0,1,1.33.1,0.79,0.79,0,0,1,.83,0V64c0,0.41-.05.82-0.08,1.23a0.11,0.11,0,0,1-.14.12l-0.66,0a2.85,2.85,0,0,0,0-.37,0.63,0.63,0,0,0-.54-0.55,0.67,0.67,0,0,0-.25,0,0.54,0.54,0,0,0-.45.51c0,0.18,0,.37,0,0.56,0,0.51-.08,1-0.1,1.54a0.53,0.53,0,0,0,.43.66,0.74,0.74,0,0,0,.53,0,0.37,0.37,0,0,0,.17-0.25,6.39,6.39,0,0,0,0-.76,0.15,0.15,0,0,0-.11-0.08l-0.76,0M116.76,68a0.3,0.3,0,0,0-.28-0.13,0.15,0.15,0,0,0-.05.1,0.1,0.1,0,0,0,.08.05l0.25,0"/><path class="cls-1" d="M87.79,68.61c0,0.18-.17.18-0.32,0.19a1.7,1.7,0,0,1-1.07-.25,0.9,0.9,0,0,1-.42-0.6,5,5,0,0,1-.08-0.58c0-.52-0.09-1-0.12-1.56a4.8,4.8,0,0,1,0-.7,0.84,0.84,0,0,1,.54-0.72,2.14,2.14,0,0,1,1.53-.12,1.05,1.05,0,0,1,.78.91c0.05,0.37.07,0.75,0.09,1.13s0.06,0.89.08,1.34a0.77,0.77,0,0,1-.33.74,2.57,2.57,0,0,1-.37.25,0.91,0.91,0,0,1-.34,0m-1-2.09h0l0.05,0.56c0,0.19,0,.38.06,0.57a0.51,0.51,0,0,0,.73.45,0.36,0.36,0,0,0,.24-0.32c0-.32,0-0.65,0-1s-0.05-.93-0.09-1.4a0.6,0.6,0,0,0-.29-0.5,0.5,0.5,0,0,0-.75.41,1,1,0,0,0,0,.2c0,0.33.06,0.67,0.09,1"/><path class="cls-1" d="M91,68.36c0,0.19-.19.17-0.35,0.18a1.68,1.68,0,0,1-1.07-.29,0.88,0.88,0,0,1-.37-0.58,5.46,5.46,0,0,1-.07-0.59c0-.52-0.07-1-0.09-1.55a4.13,4.13,0,0,1,0-.72,0.87,0.87,0,0,1,.62-0.72A2.16,2.16,0,0,1,91.18,64a1.06,1.06,0,0,1,.77.93c0,0.4.06,0.81,0.08,1.21s0,0.84,0,1.27a0.75,0.75,0,0,1-.34.71,2.51,2.51,0,0,1-.37.24,1,1,0,0,1-.34,0m-1-2.07h0c0,0.19,0,.38,0,0.57s0,0.38.05,0.57a0.52,0.52,0,0,0,.8.37,0.34,0.34,0,0,0,.16-0.21c0-.35,0-0.71,0-1.06s0-.91-0.07-1.37a0.63,0.63,0,0,0-.27-0.5A0.5,0.5,0,0,0,90,65a0.89,0.89,0,0,0,0,.27c0,0.35,0,.71.08,1.06"/><path class="cls-1" d="M98.81,63.54v0.15l0,0c0-.07,0-0.18.15-0.16l0.23,0h0.05a1.79,1.79,0,0,1,.7-0.05l0.89,0a0.09,0.09,0,0,1,.12.1c0,0.41,0,.82,0,1.24h-0.68a0.14,0.14,0,0,1-.09-0.1c0-.17,0-0.33,0-0.53-0.29,0-.58,0-0.87,0a0.2,0.2,0,0,0-.24.18,0.64,0.64,0,0,0,0,.16c0,0.24,0,.47,0,0.71a0.12,0.12,0,0,0,.15.14h0.14c0.12,0,.19,0,0.17-0.18s0-.17.15-0.16h0.51a0.09,0.09,0,0,1,.11.1c0,0.33,0,.66,0,1,0,0,0,0,0,0,0,0.22,0,.22-0.2.22H99.85a0.12,0.12,0,0,1-.15-0.13c0-.19,0-0.2-0.2-0.18a0.53,0.53,0,0,0-.27,0,0.43,0.43,0,0,0,0,.25c0,0.33,0,.65,0,1a0.11,0.11,0,0,0,.14.12c0.11,0,.15,0,0.15.13s0,0.31,0,.47a0.14,0.14,0,0,1-.11.06l-1.23,0c-0.18,0-.18,0-0.19-0.18s0-.21,0-0.31,0-.17.14-0.16,0.17,0,.17-0.18c0-1.05-.08-2.11-0.11-3.16,0-.16,0-0.32,0-0.47a0.2,0.2,0,0,1,0-.13,0.62,0.62,0,0,1,.17,0,0.21,0.21,0,0,0,.08,0,0.45,0.45,0,0,1,.33-0.06m1.4,0.16-0.14.15L100.24,64l0-.25m-1.26.12c0.1-.05.12-0.08,0.08-0.18A0.19,0.19,0,0,0,99,63.6a0.22,0.22,0,0,0,0,.07c0,0.05,0,.1,0,0.16"/><path class="cls-1" d="M126.6,68.48V68.43a0.55,0.55,0,0,0,.24,0,1.58,1.58,0,0,0,.07-0.38c0-.05,0-0.11,0-0.2l0.71,0.06a0.12,0.12,0,0,1,.07.09c0,0.37-.08.74-0.12,1.11a0.11,0.11,0,0,1-.15.1L125.8,69l-0.88-.08a0.11,0.11,0,0,1-.13-0.15c0.12-1.21.23-2.41,0.34-3.62,0-.13,0-0.22-0.16-0.23a0.14,0.14,0,0,1-.08-0.11c0-.15,0-0.3,0-0.45a0.09,0.09,0,0,1,.12-0.09l1.36,0.13a0.09,0.09,0,0,1,.11.11c0,0.14,0,.28,0,0.42a0.12,0.12,0,0,1-.16.13c-0.24,0-.22,0-0.24.2l-0.28,2.85c0,0.19,0,.21.18,0.22s0.25,0,.38,0a1.45,1.45,0,0,1,.25.09m-1.28.3,0.14,0h0.12l0.05,0a0.05,0.05,0,0,0,0,0,0.19,0.19,0,0,0-.3.11"/><path class="cls-1" d="M130,68.89V68.81l0,0a0.54,0.54,0,0,0,.21,0,1.91,1.91,0,0,0,.08-0.38,1.77,1.77,0,0,0,0-.2l0.7,0.07a0.13,0.13,0,0,1,.07.1c0,0.36-.09.72-0.13,1.08a0.12,0.12,0,0,1-.16.12l-1.62-.2-0.86-.09a0.12,0.12,0,0,1-.13-0.16c0.14-1.2.27-2.41,0.4-3.61,0-.13,0-0.21-0.16-0.22a0.14,0.14,0,0,1-.08-0.11c0-.15,0-0.3,0-0.45a0.09,0.09,0,0,1,.12-0.09l1.37,0.16a0.14,0.14,0,0,1,.09.11c0,0.15,0,.3,0,0.44a0.1,0.1,0,0,1-.14.11h-0.1a0.11,0.11,0,0,0-.16.12c-0.11,1-.23,2-0.34,3,0,0.17,0,.18.16,0.2l0.38,0a0.26,0.26,0,0,1,.27.14m-1.31.22H129a0.23,0.23,0,0,0-.2-0.13,0.56,0.56,0,0,0-.15.13"/><path class="cls-1" d="M124.09,66.53c0,0.49-.08,1-0.13,1.48,0,0.12,0,.18.14,0.17s0.16,0,.14.17,0,0.28,0,.42a0.08,0.08,0,0,1-.11.09l-1.34-.12a0.13,0.13,0,0,1-.08-0.09c0-.16,0-0.32,0-0.47s0.08-.11.15-0.09,0.16,0,.17-0.14q0.12-1.47.25-2.93c0-.13,0-0.21-0.17-0.19A0.09,0.09,0,0,1,123,64.7c0-.15,0-0.31,0-0.46a0.09,0.09,0,0,1,.12-0.09l1.34,0.12a0.1,0.1,0,0,1,.1.13c0,0.14,0,.28,0,0.42a0.11,0.11,0,0,1-.16.12c-0.14,0-.18,0-0.19.16,0,0.48-.08,1-0.12,1.45"/><path class="cls-1" d="M103,68l-1.53,0c0-.2,0-0.4,0-0.6a0.17,0.17,0,0,1,.13-0.06c0.13,0,.16,0,0.15-0.16q0-1.47-.05-2.94c0-.13,0-0.21-0.18-0.17a0.09,0.09,0,0,1-.12-0.1c0-.15,0-0.31,0-0.46s0-.1.11-0.1l1.35,0a0.09,0.09,0,0,1,.11.1c0,0.14,0,.29,0,0.43a0.11,0.11,0,0,1-.14.13c-0.15,0-.18,0-0.17.18,0,1,0,1.95,0,2.92,0,0.18,0,.18.18,0.17s0.13,0,.13.08,0,0.2,0,.29,0,0.18,0,.29"/><rect class="cls-2" width="208.49" height="105.12"/></svg>