<svg id="Layer_1" data-name="Layer 1" xmlns="http://www.w3.org/2000/svg" viewBox="0 0 208.49 105.12"><defs><style>.cls-1{fill:#fff;}.cls-2{fill:none;}</style></defs><title>DEDE UNDER CNSTRC</title><path class="cls-1" d="M85.42,69.33s-0.59-1.25-2.91-.84a9.69,9.69,0,0,1-3.32.15s0.45,1,2.69.72C81.89,69.36,84.44,68.88,85.42,69.33Z"/><path class="cls-1" d="M123.77,69.33s0.59-1.25,2.91-.84a9.69,9.69,0,0,0,3.32.15s-0.45,1-2.69.72C127.31,69.36,124.76,68.88,123.77,69.33Z"/><path class="cls-1" d="M94.46,37a4.76,4.76,0,0,0-.67-1.85h0l0,0a14.81,14.81,0,0,0-2.46.36h0a4.92,4.92,0,0,0,.53,3.78h0a14.7,14.7,0,0,0,2.45-.36h0A4.77,4.77,0,0,0,94.46,37Zm-1.77-.94A10.49,10.49,0,0,1,94,35.94a12,12,0,0,1-2.6.37A10.4,10.4,0,0,1,92.68,36.05ZM93,38.41a10.81,10.81,0,0,1-1.31.12A10.39,10.39,0,0,1,93,38.27a10.58,10.58,0,0,1,1.31-.12A10.63,10.63,0,0,1,93,38.41Zm13.37-2a5.29,5.29,0,0,0-.44-2.15h0a16.32,16.32,0,0,0-2.76,0h0a5.47,5.47,0,0,0,0,4.25h0a16.25,16.25,0,0,0,2.76,0h0A5.29,5.29,0,0,0,106.39,36.38Zm-1.81-1.32a11.72,11.72,0,0,1,1.46.08,13.46,13.46,0,0,1-2.93,0A11.68,11.68,0,0,1,104.58,35.06Zm0,2.66a11.71,11.71,0,0,1-1.46-.08,13.46,13.46,0,0,1,2.93,0A11.75,11.75,0,0,1,104.58,37.71ZM110,34.56h0a15.65,15.65,0,0,0-2.66-.12h0a5.28,5.28,0,0,0-.2,4.08h0a15.74,15.74,0,0,0,2.66.12h0a5.27,5.27,0,0,0,.16-4.09h0Zm-1.42,3.3a10.94,10.94,0,0,1-1.41-.14,11.59,11.59,0,0,1,1.41,0,11.84,11.84,0,0,1,1.4.14A11.11,11.11,0,0,1,108.59,37.86Zm0.1-2.4a11.31,11.31,0,0,1-1.4-.14,11.54,11.54,0,0,1,1.41,0,11.3,11.3,0,0,1,1.41.14A11.51,11.51,0,0,1,108.69,35.46Zm-6.47,1a5.1,5.1,0,0,0-.52-2.05h0a15.65,15.65,0,0,0-2.66.12h0a5.26,5.26,0,0,0,.16,4.09h0a15.74,15.74,0,0,0,2.66-.12h0A5.1,5.1,0,0,0,102.22,36.5Zm-1.79-1.19a11.56,11.56,0,0,1,1.41,0,11.35,11.35,0,0,1-1.4.14,11.51,11.51,0,0,1-1.41,0A11.31,11.31,0,0,1,100.43,35.3Zm0.11,2.56a11.11,11.11,0,0,1-1.41,0,11.83,11.83,0,0,1,1.4-.14,11.59,11.59,0,0,1,1.41,0A10.94,10.94,0,0,1,100.54,37.86Zm-2.3-1.2a4.93,4.93,0,0,0-.61-1.94h0a15.15,15.15,0,0,0-2.55.26h0a5.07,5.07,0,0,0,.38,3.92h0a15.1,15.1,0,0,0,2.55-.26h0A4.93,4.93,0,0,0,98.25,36.66Zm-1.79-1a10.9,10.9,0,0,1,1.36-.06,11.2,11.2,0,0,1-1.34.21,11.36,11.36,0,0,1-1.36.06A10.56,10.56,0,0,1,96.46,35.61Zm0.25,2.45a11,11,0,0,1-1.36.06,10.73,10.73,0,0,1,1.34-.21A11.23,11.23,0,0,1,98,37.85,10.64,10.64,0,0,1,96.7,38.06Zm21.06-2.57h0a14.8,14.8,0,0,0-2.45-.36l0,0h0a4.77,4.77,0,0,0-.67,1.85,4.82,4.82,0,0,0,.1,1.92h0a14.7,14.7,0,0,0,2.45.36h0A4.91,4.91,0,0,0,117.76,35.49Zm-1.65,2.92a10.66,10.66,0,0,1-1.29-.26,10.57,10.57,0,0,1,1.31.12,10.35,10.35,0,0,1,1.29.26A10.84,10.84,0,0,1,116.11,38.41Zm0.32-2.22a10.39,10.39,0,0,1-1.29-.26,12,12,0,0,1,2.6.37A10.45,10.45,0,0,1,116.43,36.19ZM114,35h0a15.13,15.13,0,0,0-2.55-.26h0a5.09,5.09,0,0,0-.42,3.91h0a15.08,15.08,0,0,0,2.54.26h0A5.08,5.08,0,0,0,114,35h0Zm-1.55,3.09a10.61,10.61,0,0,1-1.34-.21,11.24,11.24,0,0,1,1.36.06,10.73,10.73,0,0,1,1.34.21A11,11,0,0,1,112.43,38.06Zm0.23-2.3a11.18,11.18,0,0,1-1.34-.21,10.9,10.9,0,0,1,1.36.06,10.58,10.58,0,0,1,1.34.21A11.36,11.36,0,0,1,112.66,35.76Z"/><path class="cls-1" d="M92.15,26.69c-0.07.22,0.3,0.24,0.47,0.38a0.35,0.35,0,0,0,.4.05,1.72,1.72,0,0,0,.37,0c0.13-.06.32,0-0.27-0.23A2.07,2.07,0,0,0,92.15,26.69Zm23.68,0.24c-0.6.25-.41,0.17-0.27,0.23a1.79,1.79,0,0,0,.37,0,0.35,0.35,0,0,0,.4-0.05c0.17-.15.54-0.16,0.47-0.38A2.07,2.07,0,0,0,115.83,26.93Zm-2.88-4.46c-1.54,1.88.52,4.06,2.75,3.3s2.36-3.49.31-4.11a3.43,3.43,0,0,0-.87-0.15c0,0.07.05,0.18,0,.18a0.37,0.37,0,0,1-.15-0.18A2.6,2.6,0,0,0,112.95,22.48Zm3.85,0.77a1.32,1.32,0,0,1-.36-0.41S117,23,116.79,23.25Zm-0.53,1a0.38,0.38,0,0,1-.32-0.34A0.52,0.52,0,0,1,116.27,24.21Zm-1.48.45a2.55,2.55,0,0,1-.39-0.47A0.49,0.49,0,0,1,114.78,24.66Zm-0.41-2.11c0.06,0.19,0,.17,0,0.17a1.55,1.55,0,0,0-.3-0.41S114.26,22.2,114.38,22.55Zm-1.53,1.38a0.61,0.61,0,0,1,.37.32A0.43,0.43,0,0,1,112.85,23.93ZM124,22a8.86,8.86,0,0,1,.92,3.35s0.79,1.45,1-.07S124,22,124,22Zm-24-6.88a0.84,0.84,0,0,0,1,1.08c-0.38.46,0.65,1.06,0.65,1.06a0.51,0.51,0,0,1,.33-0.83,0.76,0.76,0,0,1,.69.53c0.62,1.37,2.85.94,2.85,0.94,2.28-.65,1.06-3.24,1.06-3.24-0.69-1.84.63-1.15,0.63-1.15,0.43-.41-1-1.16-1-1.16a0.63,0.63,0,0,0-.16-0.62,0.55,0.55,0,0,0-.56,0,0.14,0.14,0,0,0-.2.12,0.27,0.27,0,0,0-.32.1c-0.36.26,0.31,0.5,0.11,0.63-0.38.24-.38,0.55-0.15,1.53,0.22,1.22-.11,1.26-0.11,1.26a0.59,0.59,0,0,1-.7-0.4c-1-3.16-3.44-1.72-3.44-1.72-1.56.82-1.1,1.58-1.1,1.58A0.77,0.77,0,0,0,100,15.12Zm6.13-2.39c-0.19.13,0.08,0.19,0.08,0.19a0.17,0.17,0,0,1-.23,0C105.89,12.74,106.1,12.73,106.1,12.73Zm-0.7,4.79a1.61,1.61,0,0,0,1.06-1.94,1.45,1.45,0,0,1-1.06,1.94l-0.06,0Zm-5.07-2.27c0.31-1.77,2.39-.89,2.39-0.89C100.59,14.05,100.33,15.26,100.33,15.26ZM101.42,16c0.88-.64,1.11.18,1.11,0.18A0.85,0.85,0,0,0,101.42,16ZM101,15.75c0.91-1.58,1.9-.41,1.9-0.41A1.41,1.41,0,0,0,101,15.75Zm-0.41-2.24c1.94-.82,2.62.67,2.62,0.67a2.24,2.24,0,0,0-1.58-.7c-1.76.07-1.75,1.15-1.75,1.15A1.27,1.27,0,0,1,100.63,13.51Zm19.68,11.41a1.9,1.9,0,0,0-1-1.21,2.8,2.8,0,0,0,.46,1.64C120.24,25.76,120.55,25.5,120.31,24.92Zm0.24,2.67a2.48,2.48,0,0,0-2.3-1.86,5.18,5.18,0,0,0-1.8.37,4.71,4.71,0,0,0-.63.34,0.21,0.21,0,0,1-.17.12,1.48,1.48,0,0,0-1.21.36,1.53,1.53,0,0,1-.46.38,1.4,1.4,0,0,0-1,1.48c0,1.25,1,3.79,4.81,2.68C117.81,31.46,121.16,30.49,120.55,27.59ZM116.86,27a2.85,2.85,0,0,1-.64.35,3,3,0,0,1-.71,0,1.37,1.37,0,0,0-1.18.75v0a0.87,0.87,0,0,1,.46-0.72,2.22,2.22,0,0,1,.32-0.17,1.11,1.11,0,0,0-.75,0,2,2,0,0,1,1-.14,0,0,0,0,0,0,0s0.68-.13.37-0.4a0.15,0.15,0,0,0,.1-0.08,0.33,0.33,0,0,0,.45.15c0.33-.17.67-0.25,1.27-0.52a1.68,1.68,0,0,1,.78-0.15,2.07,2.07,0,0,0-1.1.44,2,2,0,0,0-.12.27,1.11,1.11,0,0,1,.71.32l0.08,0.06L117.82,27A0.9,0.9,0,0,0,116.86,27ZM120,31.39a1.24,1.24,0,0,0,.58-0.83,1.83,1.83,0,0,0-1,.58C119.45,31.49,119.66,31.64,120,31.39ZM117.5,17.82c-1.76-.35-2.54.88-2.28,0.88a4.87,4.87,0,0,1,1.14,1.23l-0.88-.7,0.35,0.88a41.79,41.79,0,0,0,3.86,3.68,5.15,5.15,0,0,1,1.14,6.75,3.81,3.81,0,0,1-3,1.8c-1.84.26-1.34,2.06-1,1.71a6.26,6.26,0,0,1,1.49-.79l-0.61.53c-0.61,1.23.9,2.11,0.9,2.11A2.94,2.94,0,0,1,120,33.17c1.84-.88,5.44-3.16,4.65-8.24C123.82,18.7,117.5,17.82,117.5,17.82ZM116.9,18.9a0.48,0.48,0,0,0,.5-0.09,0.3,0.3,0,0,0-.27-0.44,0.34,0.34,0,0,1,.24-0.05s0.65,0.16.18,0.71A0.39,0.39,0,0,1,116.9,18.9Zm0.44,2.34a3,3,0,0,0,1.94-2.66A2.12,2.12,0,0,1,117.34,21.24Zm4.33,10.59a7.34,7.34,0,0,0,2.47-6.51,9.63,9.63,0,0,0-3.94-6.16,8.16,8.16,0,0,1,4.23,7.23A7,7,0,0,1,121.66,31.83ZM96,28.78a1.4,1.4,0,0,0-1-1.48,1.53,1.53,0,0,1-.46-0.38,1.48,1.48,0,0,0-1.21-.36,0.21,0.21,0,0,1-.16-0.12,4.76,4.76,0,0,0-.63-0.34,5.19,5.19,0,0,0-1.8-.37,2.48,2.48,0,0,0-2.3,1.86c-0.61,2.9,2.75,3.87,2.75,3.87C95,32.57,96,30,96,28.78Zm-1.34-.73a1.38,1.38,0,0,0-1.18-.75,3,3,0,0,1-.71,0A2.84,2.84,0,0,1,92.13,27a0.9,0.9,0,0,0-1,.06l-0.08.06L91.18,27a1.11,1.11,0,0,1,.71-0.32,2,2,0,0,0-.12-0.27,2.07,2.07,0,0,0-1.1-.44,1.68,1.68,0,0,1,.78.15c0.61,0.27.94,0.35,1.27,0.52a0.33,0.33,0,0,0,.45-0.15,0.15,0.15,0,0,0,.1.08C93,26.88,93.65,27,93.65,27s0,0,0,0a1.75,1.75,0,0,1,1,.14,1.11,1.11,0,0,0-.75,0,2.27,2.27,0,0,1,.32.17,0.87,0.87,0,0,1,.46.72v0Zm-5.28,3.08a1.84,1.84,0,0,0-1-.58,1.24,1.24,0,0,0,.58.83C89.33,31.64,89.55,31.49,89.38,31.13Zm-0.69-6.21c-0.24.58,0.07,0.83,0.53,0.44a2.81,2.81,0,0,0,.46-1.64A1.9,1.9,0,0,0,88.69,24.92Zm2.43,7.41a3.81,3.81,0,0,1-3-1.8,5.15,5.15,0,0,1,1.14-6.75,41.6,41.6,0,0,0,3.86-3.68l0.35-.88-0.88.7a4.86,4.86,0,0,1,1.14-1.23c0.26,0-.53-1.23-2.28-0.88,0,0-6.31.88-7.19,7.1C83.51,30,87.11,32.29,89,33.17a2.94,2.94,0,0,1,1.38,2.72s1.51-.88.9-2.11l-0.61-.53a6.25,6.25,0,0,1,1.49.79C92.46,34.39,93,32.6,91.12,32.33Zm0.51-14a0.33,0.33,0,0,1,.24.05,0.3,0.3,0,0,0-.27.44,0.48,0.48,0,0,0,.5.09,0.39,0.39,0,0,1-.64.13C91,18.48,91.63,18.32,91.63,18.32Zm-1.91.26a3,3,0,0,0,1.94,2.66A2.12,2.12,0,0,1,89.72,18.58Zm-5.14,7.81a8.16,8.16,0,0,1,4.23-7.23,9.62,9.62,0,0,0-3.94,6.16,7.34,7.34,0,0,0,2.47,6.51A7,7,0,0,1,84.58,26.39Zm16-7.83s-1.85-1.62-5.77-1.23c0,0-1.08,1,.27,1.29s2.12,0,1.14,1.28-1.58,1.36.3,1.79,2,0.27,1.75,1.22-0.82,1,.46,1.49,0.73,1.15.46,1.49-0.45,1.39.91,1.72,1.87,0.8,1.06,3.06l0.43,0.18,0.49-.84S106.86,23.41,100.61,18.56Zm1.46,10.26a10.27,10.27,0,0,0,.08-1.68,4.54,4.54,0,0,0-2.05-.46,4,4,0,0,1,2.09.13,12.8,12.8,0,0,0,.19-2.71,9.51,9.51,0,0,0-3.28-.49,4.89,4.89,0,0,1,3.36.18,6.62,6.62,0,0,0-.82-2.52c-1.2-.63-4.46-0.44-4.46-0.44a6.6,6.6,0,0,1,4.43.14,6.78,6.78,0,0,0-3.83-2.34l-0.22,0,0.22,0a7.2,7.2,0,0,1,2.9,1C104.43,22.23,102.07,28.82,102.07,28.82ZM97.9,26a1,1,0,0,0-.24-1,0.58,0.58,0,0,0,0-.14,0.77,0.77,0,0,0,.25-0.27,0.26,0.26,0,0,0-.2,0,0.51,0.51,0,0,1-.2.24,0.35,0.35,0,0,0-.23.11A1.28,1.28,0,0,0,96.57,26a3.36,3.36,0,0,0,1.67,3c1.6,1.06,2.33-.1,2.33-0.1a6.83,6.83,0,0,1-1.9-1.08A2,2,0,0,1,97.9,26Zm1.38,3.86c-0.55-.17-1.9-0.53-3.29,1.48a4.16,4.16,0,0,1-1.16,1.14,2.64,2.64,0,0,1-.69.35L94,32.91a0.54,0.54,0,0,0-.33.63s0,0.34.62,0.41a23.77,23.77,0,0,0,4.32-.39,2.43,2.43,0,0,0,1.48-.73,1.88,1.88,0,0,1-2.8-.75,1.42,1.42,0,0,1,.37-1.85,1.83,1.83,0,0,0-.24,1.7c0.88,1.88,2.78.68,2.86,0.63A2,2,0,0,0,99.28,29.87Zm-0.85,1.67a0.23,0.23,0,0,1,.29-0.2c0.16,0,.31.18,0.1,0.31A0.23,0.23,0,0,1,98.43,31.54Zm1.13,0.75a0.49,0.49,0,0,1-.84-0.22,0.5,0.5,0,0,1,.62-0.44C99.68,31.67,100,32,99.56,32.29Zm-16.46-7c0.2,1.51,1,.07,1,0.07A8.88,8.88,0,0,1,85,22S82.9,23.78,83.1,25.29Zm25.77,2.31a1.11,1.11,0,0,0,.91-1.72c-0.27-.34-0.82-1,0.46-1.49s0.67-.55.46-1.49-0.13-.79,1.75-1.22,1.28-.48.3-1.79-0.21-.94,1.14-1.28,0.27-1.29.27-1.29c-3.91-.39-5.77,1.23-5.77,1.23C102.14,23.41,106.88,30,106.88,30l0.49,0.84,0.43-.18C107,28.41,107.51,27.94,108.87,27.6Zm-1.94,1.22s-2.36-6.6,1.4-9.18c0,0,.64-0.6,3.07-1.06h0a6.89,6.89,0,0,0-4,2.37,6.59,6.59,0,0,1,4.42-.14s-3.26-.19-4.46.44a6.64,6.64,0,0,0-.82,2.52,4.9,4.9,0,0,1,3.36-.18,9.51,9.51,0,0,0-3.28.49,12.85,12.85,0,0,0,.19,2.71,4,4,0,0,1,2.09-.13,4.61,4.61,0,0,0-2,.49S106.86,28.44,106.93,28.82ZM110.76,29a3.36,3.36,0,0,0,1.67-3,1.28,1.28,0,0,0-.69-1.09,0.35,0.35,0,0,0-.23-0.11,0.51,0.51,0,0,1-.2-0.24,0.26,0.26,0,0,0-.21,0,0.76,0.76,0,0,0,.25.27,0.58,0.58,0,0,0,0,.14,1,1,0,0,0-.24,1,2,2,0,0,1-.76,1.82,6.85,6.85,0,0,1-1.9,1.08S109.16,30.05,110.76,29Zm-6.28-10.56a1.13,1.13,0,1,0,1.13,1.13A1.13,1.13,0,0,0,104.48,18.44ZM103.63,20a3.07,3.07,0,0,0,.59.53A0.87,0.87,0,0,1,103.63,20Zm1.71-.17a1.42,1.42,0,0,0-1.06-1.15C105.7,18.75,105.34,19.8,105.34,19.8ZM93,21.67c-2.05.63-1.92,3.35,0.31,4.11s4.29-1.42,2.75-3.3a2.6,2.6,0,0,0-2-1,0.37,0.37,0,0,1-.15.18s0-.1,0-0.18A3.44,3.44,0,0,0,93,21.67ZM92.2,23.25c-0.21-.22.36-0.41,0.36-0.41A1.33,1.33,0,0,1,92.2,23.25Zm0.53,1a0.52,0.52,0,0,1,.32-0.34A0.38,0.38,0,0,1,92.73,24.21Zm3.42-.28a0.43,0.43,0,0,1-.37.32A0.61,0.61,0,0,1,96.15,23.93Zm-1.53-1.38c0.12-.35.3-0.24,0.3-0.24a1.53,1.53,0,0,0-.3.41S94.56,22.75,94.62,22.55Zm0,1.64a2.5,2.5,0,0,1-.39.47A0.49,0.49,0,0,1,94.6,24.19Zm10.74,5.2c-0.13.26-.53,1-0.74,1.34a4,4,0,0,0-.7-1.21l0.62,1.36,0,0.08-0.75-1.58a2.14,2.14,0,0,0-1.28,1.3,2,2,0,0,0,1.31,2.54,2.08,2.08,0,0,0,2.73-1.48A2.05,2.05,0,0,0,105.34,29.39Zm0.77,0.86a2,2,0,0,1,.17.82,2,2,0,0,1-2.13,1.64c-1.79-.34-1.59-1.64-1.59-1.64a1.8,1.8,0,0,0,1.7,1.52,2,2,0,0,0,1.78-1A1.63,1.63,0,0,0,106.11,30.25ZM115,32.91l-0.18-.06a2.64,2.64,0,0,1-.69-0.35A4.17,4.17,0,0,1,113,31.35c-1.39-2-2.74-1.65-3.29-1.48a2,2,0,0,0-1,2.69c0.08,0,2,1.25,2.86-.63a1.83,1.83,0,0,0-.24-1.7,1.42,1.42,0,0,1,.37,1.85,1.88,1.88,0,0,1-2.79.75,2.42,2.42,0,0,0,1.48.73,23.79,23.79,0,0,0,4.32.39c0.63-.06.62-0.41,0.62-0.41A0.54,0.54,0,0,0,115,32.91Zm-5.61-.62c-0.44-.28-0.12-0.62.22-0.65a0.5,0.5,0,0,1,.62.44A0.49,0.49,0,0,1,109.44,32.29Zm0.73-.65c-0.2-.13-0.06-0.29.1-0.31a0.23,0.23,0,0,1,.29.2A0.23,0.23,0,0,1,110.17,31.64Z"/><path class="cls-1" d="M76.35,43.47a7,7,0,0,1,7.44,7.41,8.88,8.88,0,0,1-1.07,4.34,6.68,6.68,0,0,1-1.5,1.9,9.16,9.16,0,0,1-2.3,1.38,0.64,0.64,0,0,0-.41.3,1.22,1.22,0,0,0,.69.53L80.45,60a3.83,3.83,0,0,0,1.83.48,2.31,2.31,0,0,0,1.39-.6,0.42,0.42,0,0,1,.2-0.1,0.23,0.23,0,0,1,.19.12,0.35,0.35,0,0,1,.09.24,2.33,2.33,0,0,1-.77.89,4.38,4.38,0,0,1-2.81,1.28,4.73,4.73,0,0,1-1.72-.35,18.22,18.22,0,0,1-2.48-1.29q-1.92-1.12-2.55-1.41a3,3,0,0,0-1.22-.29,1.89,1.89,0,0,0-1.5.73,2.66,2.66,0,0,0-.61,1.77,0.29,0.29,0,0,1-.29.35q-0.35,0-.35-0.46l0-.85,0.15-.73a4.65,4.65,0,0,1,1.13-1.58A0.3,0.3,0,0,0,71.19,58a1.65,1.65,0,0,0-.51-0.45A6.23,6.23,0,0,1,68.73,55,8.48,8.48,0,0,1,68,51.53a7.73,7.73,0,0,1,2.31-5.83A8.32,8.32,0,0,1,76.35,43.47Zm-1.11.85a4.11,4.11,0,0,0-3.39,1.55,6.52,6.52,0,0,0-1.25,4.2A9.75,9.75,0,0,0,72.27,56a5.06,5.06,0,0,0,4.25,2.31A4.18,4.18,0,0,0,80,56.55,7.23,7.23,0,0,0,81.32,52a8.53,8.53,0,0,0-1.78-5.46A5.34,5.34,0,0,0,75.23,44.32Z"/><path class="cls-1" d="M96.15,48.06v8a3.29,3.29,0,0,0,.21,1.52,1.41,1.41,0,0,0,1.1.29h0.3a0.78,0.78,0,0,1,.23,0,0.29,0.29,0,0,1,.22.29c0,0.31-.29.46-0.88,0.46H96.71c-0.35,0-.63,0-0.82,0a10.72,10.72,0,0,0-1.83.31,0.79,0.79,0,0,1-.23,0c-0.19,0-.28-0.16-0.28-0.48a3.19,3.19,0,0,1,0-.43c0-.17,0-0.3,0-0.39,0-.26-0.06-0.39-0.17-0.4a0.4,0.4,0,0,0-.21.15l-0.46.48a3.78,3.78,0,0,1-2.83,1.23,3.68,3.68,0,0,1-2.86-1.05,4.48,4.48,0,0,1-1-3.12q0-2.73.1-4.73c0-.24,0-0.44,0-0.62a0.8,0.8,0,0,0-.76-0.94l-0.51,0a0.3,0.3,0,0,1-.33-0.35A0.4,0.4,0,0,1,85,47.94a7.92,7.92,0,0,1,1.46-.09,5.77,5.77,0,0,0,1.79-.26,2,2,0,0,1,.54-0.1c0.15,0,.22.1,0.22,0.3s0,0.47,0,.7q-0.12,1.36-.12,4.76a8.49,8.49,0,0,0,.47,3.49,2,2,0,0,0,1.89.88A2.19,2.19,0,0,0,93,57a2.76,2.76,0,0,0,.6-1.91V50.27a2.65,2.65,0,0,0-.2-1.34,1.88,1.88,0,0,0-1.12-.37,0.35,0.35,0,0,1-.4-0.31q0-.41.77-0.41a10.58,10.58,0,0,0,3.1-.31A0.77,0.77,0,0,1,96,47.48c0.12,0,.18.08,0.18,0.26v0.32Z"/><path class="cls-1" d="M103.24,47.89a4.5,4.5,0,0,1,3.43,1.57,4,4,0,0,1,1.21,2.64c0,0.33-.23.5-0.69,0.5l-0.59,0h-1.08l-2.42,0h-1.71a0.8,0.8,0,0,0-.47.09,0.63,0.63,0,0,0-.14.48,4.51,4.51,0,0,0,1.11,3,3.29,3.29,0,0,0,2.56,1.31,3.57,3.57,0,0,0,2.6-.95l0.41-.4a0.31,0.31,0,0,1,.22-0.1,0.24,0.24,0,0,1,.28.27,2.52,2.52,0,0,1-1,1.24,5.57,5.57,0,0,1-3.75,1.54,4.68,4.68,0,0,1-3.62-1.53,5.61,5.61,0,0,1-1.4-3.94,5.94,5.94,0,0,1,1.5-4A4.57,4.57,0,0,1,103.24,47.89Zm-0.36.65a1.89,1.89,0,0,0-1.52.85,3.22,3.22,0,0,0-.65,2,0.43,0.43,0,0,0,.19.45,3.72,3.72,0,0,0,1,.08l0.89,0,1.33-.05q1.12,0,1.12-.69a2.65,2.65,0,0,0-.72-1.83A2.17,2.17,0,0,0,102.88,48.54Z"/><path class="cls-1" d="M113.92,47.89a4.5,4.5,0,0,1,3.43,1.57,4,4,0,0,1,1.21,2.64q0,0.5-.69.5l-0.59,0H116.2l-2.42,0h-1.71a0.8,0.8,0,0,0-.47.09,0.64,0.64,0,0,0-.14.48,4.51,4.51,0,0,0,1.11,3,3.29,3.29,0,0,0,2.56,1.31,3.57,3.57,0,0,0,2.6-.95l0.41-.4a0.31,0.31,0,0,1,.22-0.1,0.24,0.24,0,0,1,.28.27,2.53,2.53,0,0,1-1,1.24,5.58,5.58,0,0,1-3.75,1.54,4.68,4.68,0,0,1-3.62-1.53,5.6,5.6,0,0,1-1.4-3.94,5.94,5.94,0,0,1,1.5-4A4.57,4.57,0,0,1,113.92,47.89Zm-0.36.65a1.88,1.88,0,0,0-1.52.85,3.22,3.22,0,0,0-.65,2,0.43,0.43,0,0,0,.18.45,3.71,3.71,0,0,0,1,.08l0.89,0,1.33-.05q1.12,0,1.12-.69a2.65,2.65,0,0,0-.72-1.83A2.17,2.17,0,0,0,113.56,48.54Z"/><path class="cls-1" d="M130.86,53.35v2.6a4.67,4.67,0,0,0,.09,1.13,1.21,1.21,0,0,0,.41.57,2.21,2.21,0,0,0,1.18.45,0.36,0.36,0,0,1,.4.31q0,0.38-.91.38a4.36,4.36,0,0,1-.55,0l-0.84-.1c-0.38,0-.67-0.06-0.89-0.06a10.12,10.12,0,0,0-2,.15,2.86,2.86,0,0,1-.51.05,0.25,0.25,0,0,1-.28-0.28,0.37,0.37,0,0,1,.3-0.32,1.2,1.2,0,0,0,.76-0.6,3.54,3.54,0,0,0,.19-1.39v-3a4.85,4.85,0,0,0-.7-2.77,2.18,2.18,0,0,0-1.9-1,2.5,2.5,0,0,0-1.73.59,2,2,0,0,0-.66,1.54v4.28a2.72,2.72,0,0,0,.44,1.72,2.06,2.06,0,0,0,1.5.64,0.32,0.32,0,0,1,.36.29,0.36,0.36,0,0,1-.45.36,9.63,9.63,0,0,1-1-.06,19.3,19.3,0,0,0-2-.18,12.61,12.61,0,0,0-1.72.14,5.22,5.22,0,0,1-.63.07,0.26,0.26,0,0,1-.32-0.27,0.29,0.29,0,0,1,.22-0.27,1.64,1.64,0,0,0,.83-0.53,2.17,2.17,0,0,0,.18-1.06V51.19a3,3,0,0,0-.19-1.28,0.71,0.71,0,0,0-.69-0.35h-0.59a0.23,0.23,0,0,1-.19-0.08,0.26,0.26,0,0,1-.07-0.19,0.35,0.35,0,0,1,.19-0.34,8.34,8.34,0,0,1,1.13-.33,7.79,7.79,0,0,0,2.69-1.12,0.27,0.27,0,0,1,.17-0.08c0.1,0,.15.07,0.15,0.24l0,0.64V49l0.08,0.49a0.2,0.2,0,0,0,.17.17,0.82,0.82,0,0,0,.41-0.35A3.84,3.84,0,0,1,127,47.92a3.41,3.41,0,0,1,3,1.26A7.39,7.39,0,0,1,130.86,53.35Z"/><path class="cls-1" d="M137.46,47.92a7.12,7.12,0,0,1,1.91.3,0.65,0.65,0,0,1,.56.5l0,0.56L140,50.09l0,0.43a0.58,0.58,0,0,1,0,.15,0.23,0.23,0,0,1-.27.24,1.59,1.59,0,0,1-.68-0.84,2.64,2.64,0,0,0-2.29-1.63,1.76,1.76,0,0,0-1.19.43,1.31,1.31,0,0,0-.5,1,2,2,0,0,0,1.5,1.7L137.53,52a11.4,11.4,0,0,1,1.54.74,3.12,3.12,0,0,1,.78.75,3.32,3.32,0,0,1,.63,2.06,3.56,3.56,0,0,1-1,2.57A3.31,3.31,0,0,1,137,59.11a8.78,8.78,0,0,1-1.94-.27l-0.88-.22-0.58-.09a0.32,0.32,0,0,1-.28-0.36c0-.07,0-0.18,0-0.32a4.53,4.53,0,0,0,0-.5l0-1.4V55.33a0.68,0.68,0,0,1,.06-0.37,0.41,0.41,0,0,1,.3-0.07,0.34,0.34,0,0,1,.28.35,6.07,6.07,0,0,0,.85,1.93A2.51,2.51,0,0,0,137,58.5a1.81,1.81,0,0,0,1.28-.48,1.58,1.58,0,0,0,.51-1.21,1.68,1.68,0,0,0-.49-1.28,6.21,6.21,0,0,0-1.88-1,6,6,0,0,1-2.3-1.37,2.84,2.84,0,0,1-.64-2,2.93,2.93,0,0,1,1.08-2.39A4.45,4.45,0,0,1,137.46,47.92Z"/><path class="cls-1" d="M89,65.4h-1v2.85h0.53V67.19H89A0.9,0.9,0,1,0,89,65.4Zm0,1.32H88.59V65.87H89A0.42,0.42,0,1,1,89,66.71Zm3.67,0.22c0,0.67-.27.9-0.72,0.91s-0.7-.24-0.72-0.91V65.4H90.72v1.53a1.25,1.25,0,1,0,2.49,0V65.4H92.7v1.53Zm3.46,0.45a0.82,0.82,0,0,0-.36-0.68A0.76,0.76,0,0,0,96,66.18a0.77,0.77,0,0,0-.86-0.79h-1v2.85h1A0.86,0.86,0,0,0,96.16,67.38Zm-1.44-1.51h0.44a0.32,0.32,0,1,1,0,.63H94.72V65.87Zm0.49,1.91H94.72V67H95.2A0.4,0.4,0,1,1,95.2,67.78Zm3.56,0H97.5V65.4H97v2.85h1.79V67.77ZM100,65.4H99.49v2.85H100V65.4Zm2.35-.06a1.48,1.48,0,1,0,0,3,1.71,1.71,0,0,0,1-.3l0,0V67.37l-0.14.13a1.25,1.25,0,0,1-.87.33,1,1,0,0,1,0-2,1.25,1.25,0,0,1,.87.33l0.14,0.13V65.66l0,0A1.71,1.71,0,0,0,102.37,65.34Zm5.82,2.91h0.53V65.4h-0.53v1.12h-1.3V65.4h-0.53v2.85h0.53V67h1.3v1.26ZM111,68.32a1.5,1.5,0,1,0-1.51-1.5A1.46,1.46,0,0,0,111,68.32Zm0-2.53a1,1,0,1,1-1,1A1,1,0,0,1,111,65.79Zm4.23,1.14c0,0.67-.27.9-0.72,0.91s-0.71-.24-0.72-0.91V65.4h-0.54v1.53a1.25,1.25,0,1,0,2.49,0V65.4H115.2v1.53Zm2.24,1.38a0.91,0.91,0,0,0,1-.88,1,1,0,0,0-.9-0.93c-0.41-.11-0.47-0.24-0.48-0.38s0.13-.31.44-0.32a1.12,1.12,0,0,1,.6.22l0.1,0.07,0.11-.41,0-.05,0,0a1.28,1.28,0,0,0-.78-0.26,0.84,0.84,0,0,0-.95.78,0.91,0.91,0,0,0,.81.86c0.49,0.14.56,0.24,0.57,0.47a0.41,0.41,0,0,1-.48.38,1,1,0,0,1-.75-0.34l-0.11-.12-0.12.49v0l0,0A1.34,1.34,0,0,0,117.44,68.3Zm3.61-2.44V65.4h-1.79v2.85h1.79V67.78h-1.26V67h1V66.51h-1V65.87h1.26ZM92.39,72.16A0.46,0.46,0,0,1,92,71.85l-0.26-.44a0.8,0.8,0,0,0,.6-0.82,0.86,0.86,0,0,0-1-.87h-1v2.85H90.9V71.46h0.25L91.48,72a0.91,0.91,0,0,0,.81.54h0a1,1,0,0,0,.27,0l0.06,0V72.12l-0.11,0H92.39ZM91.34,71H90.9v-0.8h0.44A0.4,0.4,0,1,1,91.34,71Zm1.93,1.58h1.79V72.09H93.8V71.3h1V70.83h-1V70.18h1.26V69.71H93.27v2.85Zm3.6-1.74c-0.41-.12-0.47-0.24-0.47-0.38s0.13-.31.44-0.32a1.11,1.11,0,0,1,.6.22l0.1,0.07L97.64,70l0-.05,0,0a1.29,1.29,0,0,0-.78-0.26,0.84,0.84,0,0,0-.95.78,0.91,0.91,0,0,0,.81.86c0.5,0.14.56,0.24,0.57,0.47a0.41,0.41,0,0,1-.48.38A1,1,0,0,1,96,71.82l-0.11-.12-0.12.49v0l0,0a1.34,1.34,0,0,0,1,.35,0.91,0.91,0,0,0,1-.88A1,1,0,0,0,96.86,70.82Zm3.75-1.11H98.18v0.47h1v2.38h0.53V70.18h1V69.71Zm1.2,0,0,0.05-1.2,2.8h0.54l0.32-.75h1.06l0.32,0.75h0.55l-1.23-2.85h-0.35Zm-0.17,1.64,0.34-.79,0.34,0.79h-0.68Zm4.12-.11c0,0.67-.27.9-0.72,0.91s-0.7-.24-0.72-0.91V69.71h-0.54v1.53a1.25,1.25,0,1,0,2.49,0V69.71h-0.52v1.53Zm3.42,0.91a0.46,0.46,0,0,1-.43-0.31l-0.26-.44a0.8,0.8,0,0,0,.6-0.82,0.86,0.86,0,0,0-1-.87h-1v2.85h0.53V71.46h0.25L108.26,72a0.91,0.91,0,0,0,.81.54h0a1,1,0,0,0,.27,0l0.06,0V72.12l-0.11,0ZM108.12,71h-0.44v-0.8h0.44A0.4,0.4,0,1,1,108.12,71Zm3-1.27,0,0.05-1.2,2.8h0.54l0.32-.75h1.06l0.32,0.75h0.55l-1.23-2.85H111.1Zm-0.18,1.64,0.34-.8,0.34,0.8h-0.68Zm4.21,0.2-1.47-1.83h-0.33v2.85h0.5V70.73l1.46,1.83h0.33V69.71h-0.5v1.83Zm1.22-1.36h1v2.38h0.53V70.18h1V69.71h-2.43v0.47Z"/><rect class="cls-2" width="208.49" height="105.12"/></svg>