<svg id="Layer_1" data-name="Layer 1" xmlns="http://www.w3.org/2000/svg" viewBox="0 0 208.49 105.12"><defs><style>.cls-1{fill:#fff;}.cls-2{fill:none;}</style></defs><title>DEDE UNDER CNSTRC</title><path class="cls-1" d="M148.19,61.81h-18v-18h18v18Zm-17.72-.28h17.44V44.09H130.47V61.53Z"/><path class="cls-1" d="M56.57,49.86h-5V46.8H65.39v3.06h-5V61h-3.8V49.86Z"/><path class="cls-1" d="M96.79,50.71a4.31,4.31,0,0,1-.33,1.81,3,3,0,0,1-.89,1.13,2.8,2.8,0,0,1,1.08,1.15,4.37,4.37,0,0,1,.41,2,4.55,4.55,0,0,1-.41,2.07,3.12,3.12,0,0,1-1.13,1.25,4.64,4.64,0,0,1-1.74.62,13.91,13.91,0,0,1-2.22.16H82.69V46.8h8.87a13.1,13.1,0,0,1,2.08.16,4.43,4.43,0,0,1,1.66.59,3,3,0,0,1,1.09,1.2A4.26,4.26,0,0,1,96.79,50.71Zm-10.4,1.84h5.25a1.84,1.84,0,0,0,1.17-.32,1.3,1.3,0,0,0,.4-1.08A1.27,1.27,0,0,0,92.74,50a2.06,2.06,0,0,0-1.14-.3H86.39v2.85Zm0,2.36v3h5.27a3.07,3.07,0,0,0,.66-0.07,1.3,1.3,0,0,0,.53-0.24,1.17,1.17,0,0,0,.35-0.47,1.86,1.86,0,0,0,.13-0.74,1.34,1.34,0,0,0-.44-1.17,2,2,0,0,0-1.17-.3H86.39Z"/><path class="cls-1" d="M102.87,57.9h8.76V61H99.08V46.8h3.8V57.9Z"/><polygon class="cls-1" points="131 44.63 131 60.99 134.71 60.99 141.67 49.87 132.82 49.87 132.82 46.89 145.74 46.89 145.74 49.58 138.82 60.99 147.37 60.99 147.37 44.63 131 44.63"/><polygon class="cls-1" points="74.26 46.8 70.15 46.8 63.22 60.96 67.17 60.96 69.83 55.32 69.82 55.32 72.25 50.17 72.25 50.18 72.25 50.17 76.06 58.21 76.06 58.21 77.36 60.96 81.19 60.96 74.26 46.8"/><polygon class="cls-1" points="117.08 55.24 126.32 55.24 126.32 52.55 113.28 52.55 113.28 60.96 126.39 60.96 126.39 57.9 117.08 57.9 117.08 55.24"/><polygon class="cls-1" points="117.08 49.86 126.36 49.86 126.36 46.8 113.28 46.8 113.28 49.86 117.08 49.86"/><rect class="cls-2" width="208.49" height="105.12"/></svg>